<?xml version="1.0" encoding="UTF-8"?>
<svg id="creative" xmlns="http://www.w3.org/2000/svg" viewBox="0 0 143 228">
  <path id="Path_6401-2" data-name="Path 6401-2" d="m.09.03C.07.08.09,4.31.09,6.14c-.02,14.98-.05,30.88-.07,47.22,0,16.06-.01,32.56-.01,49.03.02,32.94.1,65.77.31,94.74,0,0,.73,9.24,1.52,16.21v9.62h97.22c.14.16,1.84.47-.05.61-2.01.05-2.74-.11-1.91-.2-3.02.22-1.35.47-3.36.56l.92.04c-.86.11,1.5.66-2.85.69-3.17,0-2.18-.22-2.25-.35-2.02.11-4.04.07-6.05-.12.17.08-.02.15-.76.16-4.19.12-2.41-.33-3.97-.38-5.97-.19.74.71-5.91.74l7.74.12c-.32.19-.49.47,1.18.47.16-.28,2.9-.53,5.48-.49.74.33-6.93.37-2.58.72-1.56-.06-3.72.03-5.64,0,1.94-.35-6.18-.07-2.84-.46-8.44.09-9.67-.16-17.4.11,3.19-.52,6.43-.72,9.67-.61l.33.2c5.04-.24-3.93-.22-3.02-.56-6.23.54-13.8-.26-21.42-.06,1.34.18-.17.28-.5.47,1.59-.11,3.19-.07,4.78.11-1.07.18-2.14.29-3.22.33-.8.27,2.31,0,3.39.15-1.46.04-2.92.17-4.36.41-.89-.14-1.77-.34-2.63-.59-7.07-.05-6.42.42-11.91.35,2.31.02-.7-.21.77-.21l-1-.02c5-.4,13.59-.39,12.74-1.04-4.08.06-7.04.43-12.03.45l.21-.12c-3.6-.03.05.16-.8.27-4.03.22-5.21-.63-8-.16l4.13.1c-3.11.27.92.04.17.48-5.53.33-15.1.11-22.94.43,1.94.21,3.9.29,5.85.26-1.34.59-2.53.5-1.08,1l3.6.03.05.55c-.98.01-1.96-.02-2.83-.07-.5.34-5.46-.11-5.71.22l3.06-.04c1.5.28-2.1.26-4.25.35,2.04.35,6.66-.02,11.01-.04-.32-.2,4.03-.61-.21-.64.05-.22,2.58-.34,4.25-.35-.76.1,2.36.49.42.68,2.29-.14,1.07.05,4.79-.06-.59.15,7.31-.01,6.82.46,1.33-.2-.07-.7,4.79-.72-1.18-.32-6.59-.37-2.96-.72l-2.36.22c-3.38-.15.92-.34-3.49-.47,1.5-.09,3.01-.07,4.51.07-1.13-.69,6.55-.34,6.77-.85,1.55.22,3.12.28,4.68.17-.33.19,1.01.37-.87.5-1.56-.06-2.69.02-4.4-.13.96.68,6.27.22,10.3.36-.57-.06-.72-.12.39-.22,2.46.11,7.89.22,6.33.55l12.4-.09c-.84.12-1.68.16-2.53.12l6.92.02c1.62.22-2.36.22-3.06.43l4.99-.02-.7.21c2.79-.19,5.59-.15,8.38.13,5.47-.11,5.37-.81,12.78-.5-.27.35-4.19.12-5.91.35,1.45.12,5.85-.13,6.6.2,5.32-.2,4.73-.82,7.31-1.16,4.35-.03.48.3.65.4,1.28.02,3.38-.62,4.55-.15,2.1-.26,3.28-.55.17-.67,2.06.02,4.12-.09,6.17-.32-1.87.51,2.64.2,2.9.62,3.5.09,11.23.21,14.51-.34l-.97.56,4.08-.06c3.06.34-3.6.36-5.64.39,2.72.01,4.99.02,7.2.03,2.99,0,5.89-.02,9.2-.02v-.7c0,.35-.01.64-.02.67-1.92-.11-.82-.22-1.97-.37.52-.04,1.09-.07,1.68-.09-.02-2.08-.02-4.28-.02-6.47,0-.91,0-1.82,0-2.7,0-.63,0-1.24-.01-1.82.08-.68.17-.34.19,1.87l-.05-5.44c.22.43.21-2.22.36,3.16l-.07-5.04c.06-5.55.18.25.25,1.62l.04-8.77c-.12-3.15-.19,1.79-.25-4.26.19-8.09.12-18.42.18-27.61l-.2,6.48c.06-5.54-.3-4.43-.44-6.14.03-5.12.01-12.02.1-16.36.17,4.94.43,2.9.58-1.7.03-10.4-.35-7.85-.48-13.64.44,4.51.15-7.25.38-6.23-.02-13.21-.17-26.5-.16-40.14-.06.27-.13,4.18-.19,1.79-.09-2.7-.02-5.4.19-8.09-.04-6.48-.18-10.22-.31-12.36.04,2.81-.02,3.07-.14,2.55-.04-6.48.25-4.69.05-10.83.23-1.62.12,6.83.34,6.23.02-5.72-.08-9.3-.2-13.47.15-.94.04,3.83.16.68-.11-8.85-.25-19.51-.34-26.16l.19-1.79c-.01-4.26-.06-7.08-.14-9.03.08-2.3.13-.51.15,1.7.02-5.72-.14-12.68-.16-15.96.12.56.02,3.25.11,4.21v-2.22c0-.84-.01-1.69-.02-2.55-.02-2.59-.05-5.22-.07-7.81C142.34,0,.08.07.09.03Zm100.19,222.91h2.31c-.36.02-.79.04-1.33.07-.33.03-.66,0-.98-.07Zm14.46.51c-1.65-.27.24-.38,2.11-.51h7.23c-2.03.29-6.47.45-6.12.94-5.48.11,1.45-.26-3.22-.43h0Zm25.57-.32c-1.66.07-3.4.16-5.22.23l3.24-.11c.59.07-.09.12-.96.17-.4.03-.84.06-1.17.08s-.54.06-.53.1l-1.98-.19c-.54.31,4.45.3,3.27.6-.43-.04-.86-.05-1.29-.02l1.94.1c-.3,0-.59,0-.87-.01h-.75c-.49.01-.97.02-1.44.03-.94.04-1.83.07-2.7.11-1.63.1-3.26.04-4.88-.17,7.83-.06,1.62-.86,8.48-1.05-.45.03-.9.01-1.35-.04h6.11v-4.99l.12,5.18h0Zm.1-44.32c-.07,1.1-.15,1.78-.22,2.3v-8.51c.07,1.72.16,1.74.22,6.21h0Zm-.22-17.7v-3.99c.05,1.94.04,3.12,0,4h0Zm.57-5.99c-.11,3.71-.38-1.1-.42-6.23-.01,2.58-.12,4.93.01,7.59-.06.74-.11.22-.16-.7v-10.1c.03-.44.06-1.12.08-2.16.12,6.82.45,2.47.49,11.59h0Zm-.54-118.55c0-.15-.01-.34-.02-.55v-7.44c.04,2.89.17,5.22.02,7.98h0Zm-.02-10.91v-.77.09c0,.23,0,.45,0,.67h0Z" fill="#d12c2c"/>
</svg>