<?xml version="1.0" encoding="UTF-8"?>
<svg id="creative" xmlns="http://www.w3.org/2000/svg" viewBox="0 0 409.35 407.29">
  <path d="m402.6,153.18c.03-.69.08-.87.14-.92-.02-.57-.04-1.11-.06-1.69l-.08,2.61Z"/>
  <path d="m407.88,311.07c0,.1,0,.16,0,.28.05-.3.11-.68.17-.75q-.11-.29-.18.47Z"/>
  <path d="m406.58,271.3c.05-.7.11-1.38.18-2-.07.03-.12.87-.18,2Z"/>
  <path d="m402.26,174.89c.09-1.76.18-3.55.27-5.4-.17.58-.34,2.64-.27,5.4Z"/>
  <path d="m406.34,276.66c.06-1.41.16-3.67.24-5.36-.12,1.63-.2,3.43-.24,5.36Z"/>
  <path d="m408.02,382.19l-.05,3.82c.06-1.08.12-2.26.17-3.55-.04-.08-.07-.29-.12-.26Z"/>
  <path d="m.86,139.77l-.18,2.09c.09-.35.14-1.13.18-2.09Z"/>
  <path d="m0,25.48c0-.36,0-.68,0-1.02,0,.34,0,.65,0,1.02Z"/>
  <path d="m0,22.09c0,.82,0,1.59,0,2.37,0-1.02.02-1.93,0-2.37Z"/>
  <path d="m407.04,390.44c-.02-.28-.05-.54-.07-.77.02.31.05.55.07.77Z"/>
  <path d="m407.04,390.44c.26,3.1.38,8.9.74,9.04l.18-13.47c-.27,4.38-.65,6.78-.93,4.43Z"/>
  <path d="m401.04,130.76c-.03-.62-.05-1.13-.08-1.92.02.86.05,1.43.08,1.92Z"/>
  <path d="m400.37,21.5c0-.55-.02-1.17-.03-1.86,0,.66.02,1.27.03,1.86Z"/>
  <path d="m404.29,319.97l.03-2.67c-.02,1.21-.03,2.07-.03,2.67Z"/>
  <path d="m408.45,358.03c.03.84.07,1.83.12,3.05-.03-1.32-.08-2.31-.12-3.05Z"/>
  <path d="m1.21,106.52c-1.48.13-.08,25.38-.36,33.25l.22-2.5c.6,9.19.06,21.88-.34,28.31-.08,13.91-.07,34.72.54,48.63l-.31-2.76c.4,11.48-.08,18.66.32,30.16-.11-.31-.3-4.61-.4-.16-.21,26.62-.1,53.49.06,80.35.08,13.43.16,26.86.24,40.25.03,6.7.05,13.38.08,20.06,0,8.32,0,16.63.01,24.92,3.31,0,6.6,0,9.89.01,26.88.07,55.42.13,84.75.21,28.83.01,58.44.03,88,.04,59.12-.05,118.04-.29,170.05-.89,0,0,16.59-2.08,29.09-4.32h17.26V125.19c.29-.39.85-5.25,1.09.13.09,5.74-.19,7.8-.35,5.43.39,8.61.85,3.84,1.01,9.57l.08-2.61c.2,2.45,1.19-4.26,1.24,8.12,0,9.04-.39,6.21-.62,6.42.24,7.02.04,12.42-.21,17.23.14-.49.27.05.28,2.18.22,11.93-.59,6.86-.69,11.3-.34,17,1.28-2.12,1.32,16.84l.22-22.03c.34.92.85,1.39.84-3.36-.51-.45-.95-8.26-.87-15.62.59-2.12.66,19.75,1.3,7.36-.1,4.43.06,10.58,0,16.06-.63-5.51-.12,17.6-.83,8.1.16,24.03-.28,27.54.19,49.57-.38-1.99-1.39-16.05-1.1-27.53l.35-.94c-.43-14.36-.4,11.19-1,8.59.97,17.74-.46,39.29-.1,61,.32-3.82.51.49.85,1.41-.08-8.72-.21-7.2.2-13.61.45,1.22.28,6.42.6,9.18.49,2.29,0-6.57.27-9.66.26,8.28.33,7.5.73,12.42-.39,4.58-.61,3.96-1.05,7.49-.09,20.15.76,18.28.63,33.92.04-6.58-.37,2-.38-2.19l-.03,2.85c-.72-14.23-.7-38.71-1.87-36.27.11,11.63.77,20.05.8,34.26l-.22-.6c-.05,10.26.29-.15.49,2.28.4,11.48-1.13,14.85-.29,22.79l.18-11.75c.48,8.87.08-2.61.86-.47.59,15.76.19,43,.77,65.33.41-6.42.43-8.25.46-16.67,1.05,3.81.9,7.2,1.8,3.08l.05-10.26.98-.15c.02,2.8-.04,5.58-.13,8.07.61,1.41-.19,15.55.4,16.25l-.08-8.72c.5-4.28.46,5.98.62,12.1.63-5.81-.04-18.97-.08-31.36-.35.9-1.09-11.47-1.15.6-.4-.15-.61-7.35-.62-12.1.18,2.18.87-6.72,1.23-1.19-.25-6.53.09-3.06-.11-13.63.27,1.68-.02-20.81.83-19.43-.36-3.79-1.25.2-1.29-13.63-.58,3.36-.67,18.78-1.3,8.44l.39,6.72c-.27,9.63-.61-2.63-.85,9.95.04-3.69-.29-11.18.13-12.85-1.24,3.23-.61-18.66-1.52-19.27.37-2.77.41-6.43.31-13.34.34.94.66-2.88.89,2.48-.1,4.43.04,7.65-.24,12.54,1.23-2.72.39-17.87.65-29.34-.1,1.61-.22,2.06-.39-1.11.19-7.01.4-22.47.99-18.04l-.16-35.33c.29-.16.12,5.04.22,7.2l.03-19.72c.39-4.61.39,6.71.77,8.7l-.03-14.22.38,1.99c-.25-3.5-.37-19.89.24-23.86-.19-15.59-1.45-15.3-.89-36.41.62.78.22,11.93.63,16.83.22-4.12-.23-16.67.36-18.81-.36-15.14-1.47-13.48-2.08-20.82-.05-12.38.53-1.37.71-1.86.04-3.66-1.11-9.63-.27-12.97-.46-5.97-.99-9.34-1.2-.47,0-6.58-.3-15.91-.57-17.58.92,5.33.36-7.51,1.12-8.25.16-9.97.38-31.99-.61-41.32l1,2.76-.11-11.63c.61-8.7.64,10.25.7,16.07.02-7.74.04-14.22.06-20.51-.01-8.52-.03-16.77-.04-26.19-.35,0-.8,0-1.26,0,.62.02,1.15.04,1.2.06-.19,5.47-.39,2.34-.67,5.62-.08-1.49-.13-3.09-.16-4.78-3.74.07-7.69.07-11.61.05-1.64,0-3.27-.01-4.85-.02-1.14,0-2.23,0-3.26.03-1.23-.24-.61-.47,3.36-.54l-9.77.13c.77-.62-3.99-.61,5.67-1.03l-9.03.19c-9.96-.16.45-.51,2.9-.72l-15.75-.1c-5.65.34,3.21.55-7.65.72-14.52-.55-33.05-.34-49.56-.5l11.63.58c-9.95-.16-7.95.84-11.02,1.26-9.19-.09-21.57-.05-29.36-.3,8.87-.48,5.21-1.21-3.06-1.64-18.66-.07-14.08,1-24.48,1.36,8.1-1.24-13.01-.42-11.18-1.09-23.71.05-47.56.49-72.05.47.48.18,7.5.36,3.21.55-9,.2-13.29-.31-14.52-.55-11.63.11-18.34.5-22.18.87,5.05-.12,5.51.06,4.58.39-11.62.11-8.4-.72-19.42-.14-2.9-.66,12.26-.33,11.18-.98-10.26-.05-16.69.23-24.18.56-1.69-.42,6.88-.1,1.22-.45-15.89.32-35.02.71-46.96.96l-3.21-.55c-7.65.04-12.7.16-16.21.41-4.13-.22-.91-.36,3.06-.43-10.27-.05-22.76.4-28.66.45,1.01-.33,5.84-.05,7.55-.32-1.3,0-2.63,0-3.99,0-1.51.02-3.04.03-4.58.05-4.65.07-9.37.13-14.02.2.09,6.23.17,12.31.25,17.79.03,3.6-.02,6.8-.24,9.31C.02,27.88,0,26.64,0,25.48c-.03,19.03.37,35.61.43,56.28-.65,18.94.85,6.11.78,24.76Zm399.09,15.17v-6.57c.04,1.03.08,2.26.12,3.78,0,1.92-.06,2.73-.12,2.79Zm.91-41.18c-.49,4.71-.69-.67-.91-6.01v-20.6c.52,5.78.81,18.42,1.69,17.44.19,15.61-.47-4.13-.78,9.17Zm-.58-72.85c.13,4.73.28,9.69.42,14.86l-.2-9.24c.13-1.68.21.27.3,2.73.05,1.15.1,2.4.14,3.34.05.92.11,1.55.18,1.52l-.34,5.64c.56,1.54.53-12.68,1.07-9.32-.07.76-.08,2.61-.04,3.67l.17-5.52c0,.84-.01,1.67-.02,2.49,0,.72,0,1.43,0,2.13.02,1.4.04,2.77.06,4.1.07,2.67.13,5.22.19,7.68.11,4.92.14,9.47-.31,13.9-.11-22.29-1.54-4.62-1.89-24.14.03,2.31,0,3.45-.07,3.88V7.98h-8.95c3.06-.11,6.14-.22,9.29-.33Zm-79.55-.29c1.98.21,3.19.42,4.13.62h-15.28c3.09-.18,3.12-.45,11.15-.62Zm-31.76.62h-7.17c3.48-.12,5.6-.09,7.17,0Zm-10.76-1.62c6.65.32-1.98,1.07-11.18,1.21,4.63.04,8.84.33,13.63-.03,1.33.17.4.32-1.25.45h-18.14c-.79-.09-2.02-.17-3.87-.23,12.24-.34,4.43-1.28,20.81-1.39Zm-212.79,1.57c-.27.02-.61.04-.99.05h-13.35c5.18-.11,9.36-.48,14.33-.05Zm-19.58.05h-1.38c.06-.01.12-.02.17-.03.41.02.81.03,1.21.03Z"/>
  <path d="m263.88,7.59c1.16,0,2.34-.01,3.51-.02-1.16-.01-2.31-.01-3.51.02Z"/>
</svg>