<?xml version="1.0" encoding="UTF-8"?>
<svg id="creative" xmlns="http://www.w3.org/2000/svg" viewBox="0 0 438.07 435.02">
  <path d="m334.57,39.63c-.48-.34-.58-.47-.58-.54-.42-.24-.82-.48-1.24-.73l1.83,1.27Z"/>
  <path d="m422.49,140.4q-.2-.2-.01.45c.03.08.05.13.09.22-.05-.27-.12-.59-.08-.67Z"/>
  <path d="m406.48,110.16c-.26-.55-.5-1.09-.71-1.6-.04.06.27.72.71,1.6Z"/>
  <path d="m349.38,50.69c-1.13-1-2.27-2.01-3.45-3.05.29.44,1.56,1.65,3.45,3.05Z"/>
  <path d="m408.59,114.31c-.53-1.1-1.45-2.84-2.11-4.15.6,1.29,1.32,2.68,2.11,4.15Z"/>
  <path d="m436.12,201.25l.2,3.33c0-.95-.02-1.98-.06-3.11-.05-.07-.09-.25-.14-.22Z"/>
  <path d="m30.03,327.34l.75,1.66c-.07-.31-.36-.92-.75-1.66Z"/>
  <path d="m.5,233.77c-.02-.31-.04-.59-.07-.88.02.29.04.57.07.88Z"/>
  <path d="m.44,232.89c-.06-.89-.1-1.67-.15-2.05.05.71.1,1.37.15,2.05Z"/>
  <path d="m436.29,207.28c-.06.74-.14,1.31-.22,1.64-.13.56-.28.48-.43-.44.33,2.68.57,7.73.94,7.85l-.06-5.88-.03-2.94-.17-2.94c0,1.05,0,1.97-.04,2.71Z"/>
  <path d="m435.64,208.48c-.03-.24-.06-.47-.09-.67.03.26.06.48.09.67Z"/>
  <path d="m317.41,31.25c-.48-.22-.87-.39-1.48-.67.65.31,1.1.51,1.48.67Z"/>
  <path d="m421.69,149.33l-.71-2.18c.31.99.54,1.69.71,2.18Z"/>
  <path d="m433.9,180.27c.16.71.35,1.55.59,2.59-.23-1.12-.43-1.96-.59-2.59Z"/>
  <path d="m250.06,2.65c.69.1,1.38.2,2.08.31-.56-.11-1.28-.21-2.08-.31Z"/>
  <path d="m437.93,218.6c.25-2.55.16-6.72-.09-11.6-.24-2.43-.5-5.05-.76-7.73-.15-1.34-.22-2.7-.43-4.05-.19-1.35-.37-2.71-.56-4.06-.25.81-2.35-9.81-1.08.66-.21-.04-.56-1.61-.93-3.68-.2-1.03-.35-2.2-.58-3.35-.22-1.15-.44-2.3-.64-3.31.51,1.86-.17-5.96,1.04-1.21-.55-2.45-.69-3.27-.83-4.17-.1-.58-.15-1.2-.4-2.3-.25-1.1-.63-2.69-1.27-5.22.15.34-.03-.6-.38-2.18-.17-.79-.39-1.75-.61-2.78-.28-1.02-.58-2.13-.88-3.24-.59-2.22-1.17-4.45-1.54-6.07-.34-1.63-.59-2.6-.27-2.39-.7-1.52-.99-1.39-1.58-2.3-.3-.46-.67-1.18-1.22-2.5-.58-1.31-1.18-3.27-2.35-6.05.33,1.45,1.46,5.39,2.13,7.9.67,2.52.85,3.61-.89-.54l2.24,5.42c2.03,8.13-1.2-2.01,1.55,8.54-.86-3.08-2.86-9.25-3.03-10.72-.14,1.51-1.58-2.26-3.11-6.43-1.63-4.13-3.55-8.59-4.04-8.67-.13-.59-.3-1.22-.52-1.91-.23-.69-.54-1.43-.89-2.28-.71-1.69-1.67-3.76-2.94-6.45.64.6-.43-2.55,1.69,1.57,1.46,3.55,2.85,5.98,4.08,10.05.07-.66-.23-1.9-.77-3.54-.61-1.61-1.49-3.6-2.5-5.79-.51-1.09-1.04-2.24-1.59-3.42-.55-1.17-1.21-2.33-1.82-3.52-1.25-2.36-2.44-4.77-3.57-6.98.31.62.46,1.05.37,1.02-.08-.04-.43-.52-1.19-1.66-.72-1.34-1.66-3.07-2.63-4.88-.49-.9-.98-1.82-1.46-2.72-.51-.88-1.01-1.72-1.47-2.51-1.83-3.14-2.96-5.26-1.67-3.8l-2.09-3.22-2.24-3.12c-1.51-2.06-2.95-4.19-4.53-6.2l-4.77-6.01c-.78-1.02-1.62-1.98-2.47-2.94l-2.53-2.89c.12-.29,2.97,3.22,4.25,4.6l-5.6-6.5-1.4-1.62-1.48-1.55-2.95-3.11c-2.5-3.16,4.35,3.92,5.75,5-1.35-1.57-2.84-3.01-4.25-4.52-1.44-1.48-2.84-3.01-4.32-4.45.51.3,1.01.63,1.49.96-1.13-1.03-4.38-3.92-7.54-6.97-3.23-2.97-6.56-5.92-7.67-7.31-2.64-2.16-4.76-3.58-6.54-4.84-.9-.61-1.73-1.17-2.54-1.72-.81-.54-1.65-1.01-2.48-1.53-1.68-1.03-3.47-2.17-5.76-3.74-2.29-1.56-5.21-3.36-9-5.98.88-.14,8.95,5.33,12.58,7.6-2.73-2.4-12.25-7.88-13.53-9.35-11.65-6.35-11-4.45-16.92-6.87-2.38-1.25-3.69-1.79-4.23-2.1-.54-.3-.35-.3.13-.16.98.25,3.14,1.05,2.97.9-2.87-1.41-8.07-2.46-10.38-4.43-5.01-1.49-7.9-2.05-.85.96-2.64-1.05-5.87-2.24-8.61-3.2-2.76-.92-5.08-1.48-5.79-1.6,2.33.3.82-.3-1.32-1.1-1.07-.4-2.3-.84-3.28-1.25-.98-.4-1.75-.69-1.84-.93-2.07-.62-4.77-1.42-7.77-2.32-3.02-.83-6.4-1.55-9.74-2.32-6.73-1.33-13.47-2.3-17.54-2.23l2.51-.69-5.02-.58c-1.67-.18-3.34-.42-5.02-.5-3.74-.58-1.51-.61,2.3-.35,1.89.21,4.18.47,6.3.7,1.16.14,2.28.27,3.25.39-5.88-.87-10.96-1.52-15.93-1.8-2.77-.2-5.5-.45-8.32-.46-2.81-.05-5.71-.16-8.8-.16,3.6.24,1.46.44,3.17.77-2.12.1-4.63.22-7.16.28-2.53.07-5.09.04-7.28.23-.54-.08-.68-.19-.25-.31.42-.14,1.42-.27,3.14-.33l-2.12.09-2.11.19-4.22.39c.63-.67-3.52-.35,4.85-1.4l-7.83.79c-2.17.1-3.22.23-3.56.2-.34-.02.04-.13.75-.29,1.42-.33,4.22-.62,5.27-.82-4.59.21-9.13.9-13.7,1.41-2.43.48-1.71.53-1.56.63.15.09-.27.25-4.92,1.17-1.57.22-3.19.46-4.86.69-1.67.22-3.35.65-5.08,1-3.45.74-7.04,1.48-10.6,2.55-1.79.5-3.59,1.01-5.4,1.51-1.81.49-3.57,1.16-5.35,1.73-1.78.59-3.55,1.18-5.3,1.77-1.75.61-3.44,1.31-5.13,1.94l4.83-1.58,4.9-1.35c-2.07.66-3.5,1.18-4.51,1.6-1.01.43-1.59.83-2,1.13-.81.62-.9,1.04-2.06,1.73-1.86.72-3.88,1.5-5.96,2.3-2.04.91-4.14,1.84-6.21,2.76-1.03.46-2.06.91-3.07,1.36-1,.46-1.95.96-2.89,1.41-1.87.92-3.61,1.76-5.15,2.48,6.63-3.93,3.48-3.18-3.13-.2-3.55,2.01-5.96,3.46-7.69,4.57-1.73,1.11-2.73,2-3.57,2.69-1.65,1.44-2.56,2.38-6.22,5.03,2.57-2.48.15-1.03-2.73,1.01-2.89,2.01-6.29,4.48-5.84,3.75-8.22,6.29-16.02,13.17-23.39,20.59-7.26,7.52-14.11,15.54-20.57,24.03.4-.22,4.32-4.91,2.16-1.86-.59.78-1.15,1.51-1.66,2.18-.5.69-.96,1.33-1.39,1.93-.87,1.18-1.63,2.15-2.27,2.95-1.29,1.59-2.14,2.46-2.55,2.83-1.4,2.11-2.55,4.07-3.6,5.79-1.03,1.75-1.98,3.25-2.69,4.66-1.43,2.8-2.41,4.88-3.08,6.42,2.08-3.86,2.43-4.12,2.32-3.25-2.46,4.39-3.54,5.87-4.42,7.4-.91,1.51-1.74,2.99-3.66,7.37-1.75,1.96,4.55-9.62,3.56-9.09-1.03,1.98-1.95,3.79-2.78,5.48-.82,1.7-1.63,3.24-2.24,4.79-1.27,3.08-2.41,5.89-3.55,8.94-1.01,1.17,2.34-5.5,0-1.15-1.25,3.23-2.47,6.65-3.74,10.09-1.14,3.49-2.21,7.03-3.28,10.45-.9,3.47-1.77,6.84-2.58,9.97-.71,3.15-1.27,6.08-1.81,8.6l-1.15,2.6c-1.11,6.55-1.86,10.88-1.91,13.95-.67,3.53-.45.74-.09-2.7-1.31,8.82-1.79,19.72-1.78,24.76-.16-.41-.14-1.67-.11-3.01.06-1.34.19-2.77.11-3.51-.86,11.15.44,25.18.55,32.48-.16-.94-.26-2.02-.34-3.02.16,2.06.32,4.08.47,6.08.16,2,.49,3.96.74,5.92.27,1.96.54,3.9.81,5.85.37,1.93.73,3.86,1.1,5.8.39,1.94.71,3.9,1.17,5.85.48,1.95.96,3.92,1.44,5.93.88,4.03,2.22,8.08,3.42,12.39.45,2.01.99,3.54,1.37,4.78.4,1.24.71,2.16.98,2.87.53,1.42.86,2,1.2,2.56.65,1.14,1.47,2.18,4.39,9.68-.75.37,1.51,5.38,4.24,11.09,1.51,2.78,3.12,5.75,4.55,8.39,1.46,2.63,2.88,4.86,3.65,6.38l-.89-1.98c1.12,1.65,2.27,3.49,3.4,5.4,1.22,1.86,2.44,3.8,3.58,5.69.57.95,1.13,1.88,1.67,2.79.53.91,1.12,1.74,1.63,2.56,1.04,1.63,1.95,3.1,2.67,4.29,1.67,2.5,3.83,5.11,6.01,7.93,2.14,2.86,4.7,5.61,7.16,8.44l1.87,2.1c.65.67,1.31,1.33,1.96,2,1.3,1.32,2.59,2.61,3.85,3.88,1.24,1.28,2.54,2.43,3.79,3.54,1.25,1.1,2.45,2.15,3.58,3.14l-1.94-1.42c7.44,6.55,11.97,10.8,20.07,16.56-.3-.05-3.32-2.2-.35.24,19.09,14.43,40.94,25.62,64.01,32.75,23.09,7.03,47.26,10.33,71.06,9.68,5.7-.01,11.47-.55,17.31-1.01,2.91-.36,5.84-.72,8.79-1.09,1.48-.15,2.94-.46,4.41-.7,1.47-.26,2.95-.52,4.43-.78,11.81-2.22,23.7-5.44,35.38-9.75,23.37-8.61,45.74-21.82,65.11-38.45,9.69-8.31,18.62-17.48,26.63-27.27,8.02-9.79,15.01-20.26,21.02-31.05,6-10.79,10.96-21.93,14.91-33.11,3.97-11.18,6.69-22.48,8.63-33.49,0,0,.06-2.67.15-6.59-.03-1.96-.13-4.23-.23-6.61-.11-2.38-.2-4.88-.53-7.33-.17-1.48-.35-2.93-.53-4.33.34-4.89.52-9.81.52-14.78,0-82.57-47.32-154.08-116.32-188.92-.44-.56-3.31-2.61.64-.84,4.37,2.14,5.8,3.18,3.93,2.41,1.68.72,2.67,1.23,3.35,1.49.68.27,1.01.35,1.28.4.53.09.79.06,2.94,1.21l-1.88-1.18c1.9.88-2.55-2.89,6.61,2.43,6.51,4.17,4.26,3.19,4.28,3.49,1.29.76,2.51,1.48,3.62,2.22,1.1.77,2.12,1.51,3.09,2.23,1.93,1.45,3.66,2.77,5.23,4.1-.24-.36.2-.19,1.63.93,4.07,3.06,5.13,4.08,5.54,4.63.4.55.16.64,1.55,1.92,5.35,4.86,5.22,4.33,5.28,3.89.03-.4.41-.88,6.27,4.74l-3.37-3.29c-1.1-1.12-2.33-2.11-3.49-3.17l-3.53-3.13c-.59-.52-1.17-1.06-1.77-1.55l-1.84-1.48c.83.23,1.47.08-1.74-2.44-.31.08-1.85-.83-3.92-2.24-2.13-1.35-4.84-3.14-7.38-5-.57-.77,2.97,1.54,5.63,3.23,1.34.83,2.43,1.53,2.67,1.61.25.07-.3-.58-2.39-2.23,1.55,1.11,3.34,2.52,5.23,3.99,1.88,1.48,3.91,2.95,5.69,4.51-3.99-2.62,11.36,10,4.72,5.18,2,1.64,3.61,3.28,5.14,4.71,1.51,1.45,2.87,2.75,4.13,3.95,2.39,2.53,4.38,4.64,6.33,6.71,3.77,4.27,7.42,8.35,13.36,15.71-.68-.56-3.08-3.05-6.04-6.38-1.52-1.63-3.25-3.41-4.95-5.29-.84-.94-1.7-1.9-2.54-2.85-.88-.92-1.73-1.84-2.55-2.75l-.3-.82c-8.79-8.58,6.36,7.17,4.23,6.07,2.64,2.71,5.4,5.6,7.9,8.9,1.28,1.63,2.58,3.29,3.86,5,1.21,1.77,2.44,3.56,3.68,5.38.62.91,1.24,1.83,1.86,2.75.6.94,1.17,1.9,1.76,2.86,1.18,1.91,2.36,3.84,3.55,5.78,1.12,1.98,2.26,3.98,3.39,5.98l1.73,2.99c.57,1,1.08,2.04,1.64,3.05-1.2-3.05.64.13,1.3.68-.87-1.65-1.49-2.81-1.97-3.7-.51-.87-.87-1.48-1.2-2.04-.64-1.12-1.09-2.06-2.29-4.54.9.68,3,4.62,4.42,6.54,1.42,1.47-2.77-4.92-3.88-7.33,3.75,6.06,3.58,5.38,5.85,8.97,1.45,3.69,1.01,3.32,2,6.21,1.89,3.97,3.16,6.88,4.28,9.13.57,1.12,1,2.12,1.4,3.03.41.91.78,1.72,1.14,2.52.73,1.59,1.41,3.08,2.23,5,.69,1.74,1.41,3.87,2.35,6.72-1.56-4.68.29,2.02-.84-1.31l.76,2.33c-2.21-5.71-5.3-13.41-8.16-19.25-1.45-2.91-2.7-5.42-3.65-7.02-1-1.58-1.61-2.29-1.64-1.7,1.2,2.17,2.16,4.26,3.16,6.28.98,2.03,2.03,3.98,2.98,6.05,1.81,4.17,3.89,8.56,5.75,14.35l-.38-.42c2.76,8.32.23-.21,1.09,1.69.44,1.15.82,2.2,1.14,3.18.28.99.52,1.91.72,2.77.41,1.71.7,3.18.97,4.56.6,2.74.92,5.13,2.1,8.34l-1.04-4.91c-.37-1.63-.84-3.24-1.26-4.86,2.54,7.17-.53-2.17.72-.62.52,1.61,1.12,3.36,1.65,5.27.48,1.92.99,3.96,1.52,6.09.26,1.07.52,2.16.79,3.28.25,1.12.44,2.27.66,3.44.43,2.33.87,4.74,1.32,7.19.37,2.46.67,4.98,1.01,7.5.17,1.26.33,2.53.5,3.8l.33,3.82c.21,2.55.48,5.08.65,7.58.12,2.51.24,4.97.36,7.37.25-5.54.36-7.13-.23-14.38,1.3,3.2,1.37,6.16,2,2.53l-.32-4.45c-.11-1.48-.19-2.97-.4-4.45l.95-.24c.08.61.15,1.22.23,1.82.04.61.08,1.21.11,1.8.07,1.18.12,2.34.15,3.42.18.3.32,1.29.44,2.63.1,1.34.27,3.01.25,4.68.04,3.32.06,6.57.36,6.87l-.28-7.62c.4-3.77.59,5.22.89,10.59ZM261.75,11.28c4.66.75,9.57,1.55,9.16.83,12.8,3.44-3.49-.5,7.28,2.88,2.87,1.21.82.84-2.3.14-.62-.14-1.29-.3-1.97-.45-5.68-1.57-11.46-2.9-17.32-3.99.54.04,1.14.1,1.77.16,1.06.1,2.22.22,3.38.43Zm-47.15-4.33c1.23-.07,2.46-.2,3.71-.21,1.25-.02,2.51-.03,3.78-.05,1.27-.01,2.56-.02,3.87-.03,1.3,0,2.62-.04,3.95.05-1.27-.09-2.54-.07-3.82-.07h-3.82c-2.58-.33,6.37-.16,6.26-.46l4.74.71c.67-.23-2-.56-4.48-.88-2.49-.22-4.79-.39-3.35-.62.65.08,2.21.14,3.12.12l-4.43-.28c2.51.1,4.88.11,7.15.28,2.27.11,4.44.21,6.53.3.52.03,1.04.05,1.56.08.51.05,1.02.11,1.52.16,1,.12,1.99.24,2.97.38,1.95.28,3.83.63,5.67,1.09-9.7-1.18-10.48-.88-11.21-.47-.69.38-1.35.68-9.37.32,1.39.07,2.28.14,2.82.2-4.68-.31-9.4-.48-14.16-.48-2.2,0-4.39.04-6.58.11,1.18-.08,2.35-.16,3.55-.25Zm-62.85,10c1.62-.35,2.64-.46,3.46-.5-4.01,1.24-7.97,2.6-11.88,4.07.34-.16.62-.31.89-.45,1.42-.73,2.37-1.21,7.53-3.12Zm-25.71,10.87c.31-.13.59-.24.85-.34-1.4.67-2.79,1.35-4.18,2.05,1.38-.76,2.45-1.31,3.33-1.71Zm-18.16,9.26c.84-.64,1.26-1.06,1.79-1.53.52-.47,1.15-.99,2.39-1.83.62-.42,1.4-.92,2.39-1.54.5-.3,1.05-.64,1.67-1.01.64-.34,1.33-.71,2.1-1.11,5.2-2.24-1.1,1.56-7.68,5.67,1.72-.93,3.36-1.83,5.01-2.73.82-.47,1.65-.91,2.5-1.36.85-.46,1.69-.95,2.55-1.49.95-.32.56.03-.34.63-4.72,2.45-9.34,5.08-13.84,7.87-.61.29-1.48.77-2.71,1.5,2.13-1.46,3.34-2.4,4.17-3.07ZM12.01,168.83s-.02.11-.02.16c-.82,3.41-1.56,6.86-2.21,10.33.12-.85.23-1.68.34-2.48.42-2.72.98-5.25,1.9-8.01Zm-3.29,16.56c-.04.25-.09.5-.12.75,0-.04,0-.09-.01-.12.05-.21.09-.42.13-.63ZM306.2,26.48c.59.24,1.24.51,1.99.82,1.37.6,1.96.99,2.05,1.1-1.34-.65-2.69-1.29-4.05-1.92Z"/>
  <path d="m228.97,7.37c-.45-.02-.95-.05-1.51-.07.53.03,1.03.05,1.51.07Z"/>
  <path d="m110.55,35.74c-.85.48-1.7.96-2.56,1.5.85-.5,1.7-1,2.56-1.5Z"/>
</svg>