<?xml version="1.0" encoding="UTF-8"?>
<svg id="creative" xmlns="http://www.w3.org/2000/svg" viewBox="0 0 554.6 502">
  <path d="m554.6,501.64s-.1-3.45-.12-4.43c-.12-3.92-.25-7.8-.37-11.66-.14-3.85-.28-7.66-.41-11.49-.1-2.46-.21-4.92-.3-7.39-.4-9.14-.81-18.49-1.14-28.85.29-19.05-1.26-6.1-1.7-24.82,1.88-.2-.62-120.03-.51-127.94l-.21,2.52c-1.02-9.2-.72-85-.37-91.46-.29-13.96-.91-66.39-2.08-80.32l.48,2.76c-.84-11.5-.44-50.25-1.28-61.77.15.31.51,4.62.51.14-.16-7.12-.33-45.78-.51-52.93C538.86,3.68-3.91-2.62,2.5,1.26c1.35.22-1.39.65-1.39.65C.89,1.93-.17,50.42.02,59.67c.44-.91,1.57,11.49,1.46-.63.51.14.89,7.38.98,12.13-.26-2.19-1,38.29-1.55,32.75.41,6.56-.07,3.07.34,13.69-.37-1.67.34,52.41-.76,51.06.52,3.8,1.58-.24,1.84,13.66.69-3.39.56-18.88,1.51-8.51l-.6-6.74c.19-9.68.81-28.9.92-41.52,0,3.7.54,42.74.03,44.42,1.52-3.28,1.07,18.72,2.24,19.32-.43,2.79-.41,6.46-.18,13.41-.44-.95-.8,2.9-1.17-2.47.06-4.46-.16-7.67.11-12.61-1.52,2.76-.22,81-.37,92.52.1-1.62.25-2.08.52,1.1-.12,7.04-.16,22.58-.98,18.14l.74,130.04c-.37.17-.23-5.06-.39-7.22l.27,19.81c-.43,4.63-.6-6.73-1.11-8.71l.26,14.29-.51-1.99c.19,1.75.39,6.74.44,11.8,0,1.26,0,2.54.01,3.75,0,1.61-.03,3.15-.03,4.59-.03,4.02-.11,7.39-.27,9.39.18,7.39.45,12.67.7,17.08.03.55.19,9.25.23,9.77,0,.03,31.83-10.94,34.13-11.58-.22.55,23.2-5.28,29.12-8.54,10.38-4.11,1.36.28,1.84.36,1.84-.82,3.64-1.74,5.37-2.76,1.91-1.04,3.81-1.95,5.37-1.95,4.78-2.68,7.34-4.57-.12-1.81,5.5-2.21,13.04-5.96,14.29-6.93-3.99,3.15,6.36-2.16,7.3-1.43,8.27-3.39,26.34-11.2,33.47-15.96l-1.79,2.38,9.41-4.38c7.35-2.32-8.04,4.57-12.75,6.81,12.89-5.66,130.89-36.5,134.2-36.09,3.48.42,150.08,38.51,156.33,40.82,1.2,1.2-5.66-2.4-1.2.16,13.12,5.42,29.05,8.87,39.11,12.58,0,0,9.55,2.71,11.82,3.47,2.25.77,15.49,5.42,17.68,6.13,4.41,1.39,9.14,3.14,7.82,2.68s3.67,1.32,5.15,1.77c3,.83,9.67,2.71,9.67,2.71l43.59,11.6s0-.22.01-.33l.03-.03Z"/>
  <path d="m.41,8.79l3.96,39.74c-1.39-3.79-1.27-38.72-2.34-34.56l.1,41.82-1.24.17c-.07-2.82-.04-5.61.04-8.1C.33,46.81.63,6.93.49,2.6c.16,0,.33.02.52.03h.1l-.02,10.15c.28-4.41.73-6.82,1.11-4.48-.19-1.56-.34-3.8-.51-5.67h2.86c-.27,4.7-.26,38.59-.18,45.9L.41,8.79Z"/>
</svg>