<?xml version="1.0" encoding="UTF-8"?>
<svg id="creative" xmlns="http://www.w3.org/2000/svg" viewBox="0 0 475.35 435.96">
  <path d="m210.01,5.98c-2.47,2.02-2.81,2.45-2.34,2.3.37-.44,1.05-1.12,2.34-2.3Z"/>
  <path d="m148.28,53.97c.45-.39.87-.77,1.24-1.13-.92.77-1.53,1.32-1.24,1.13Z"/>
  <path d="m185.43,28.53c.12,0,.32-.07.59-.2.19-.22.05-.2-.59.2Z"/>
  <path d="m22.73,260.32c1.11,3.78,1.72,5.66,2.07,6.59-.7-2.27-1.43-4.6-2.11-6.79l.04.2Z"/>
  <path d="m51.01,346.08c-.04-.11-.09-.23-.13-.33.06.19.11.33.17.53l-.04-.2Z"/>
  <path d="m20.41,253.66c-.18-.43-.38-.9-.53-1.13.43,1.43.53,1.49.53,1.13Z"/>
  <path d="m49.9,340.16l1.11,5.92c.31.75.62,1.51,1.03,2.51.73.94-1.2-5.69-2.13-8.43Z"/>
  <path d="m20.41,253.66c.63,1.45,1.41,3.73,2.28,6.47l-.6-3.22c-2.23-7.65-1.65-4.09-1.68-3.25Z"/>
  <path d="m201.06,16.31c-.33.24-.7.52-1.15.85.35-.25.73-.54,1.15-.85Z"/>
  <path d="m167.97,38.66c.07-.06.14-.11.2-.17-.06.05-.13.11-.2.17Z"/>
  <path d="m131.77,67.58l-.1-.11c0,.08.03.11.1.11Z"/>
  <path d="m475.35,171.11c-1.88-1.26-3.31-2.2-4.51-2.98-.6-.38-1.15-.73-1.68-1.07-.5-.31-.99-.61-1.48-.92-1.65-.99-3.47-2.05-7.09-4.28,12.17,9.07-5.82-3.17.84,2.46-5.69-4.12-3.75-3.06-12.21-8.75,5.23,3.27,1.11-.16,6.85,3.62-10.39-6.89-7.9-4.97-19.06-12.37-3.62-1.66,8.68,6.88-.08,1.49l-4.92-3.3c-.01-.09.61.25,1.51.85-3.36-2.37-4.2-2.84-4.13-2.61L222.26,4.1l-12.29,9.56c5.44-6.29,9.31-11.45,6.45-10.56-3.13,2.02,6.75-6.31.57-1.68l-5.59,5.25c.8-1.04-2.88,1.31-3.74,1.6-2.01,2.41,8.41-5.14,1.87,1.1-1.23,1.41-5.55,4.75-8.48,6.93,4.17-3.03-1.09,1.61-3.21,3.55-3.92,2.69-9.82,7.46-11.82,8.46-.48.57-3.32,2.89-5.36,4.38l-.33-.03c-4.35,3.63,1.65-1.01.65.06-3.19,2.58-8.55,6.14-13.81,10.27,5.26-4.13,9.46-7.79,13.08-10.92-9.86,7.17.99-2.22,2.78-4.35-7.56,6.23-10.26,8.86-16.35,14.07-7.71,5.43-.89-1.3,1.28-3.16-6.76,5.68-13.56,11.87-17.14,14.97,4.69-4.76,3.62-4.28,7.89-8.51-5.95,3.98-6.71,5.36-9.19,7.72,1.52-1.29,3.91-3.22,4.59-3.53-6.74,5.15-4.76,5.33-7.89,8.5-4.83,3.32-13.44,9.81-14.46,9.75l.48.51c-5.67,4.67-3.28,2-4.35,2.48-1.81,2.14,1.41.7-8.23,8.48.66-2.25-8.79,6.69-9.28,5.49-4.51,3.62-6.17,5.78-11.01,9.37-5.69,3.53,6.16-6.93,9.12-8.97,6.57-5.16-.52,1.13,2.12-.94l6.08-5.21c-3.68,2.53-10.76,7.66-10.27,6.56-6.26,5.2,5.53-3.55-1.31,2.18l-4.44,3.05c-6.82,5.72,2.06-.39-7,6.87,5.76-5.25-9.94,7.73-9.95,6.59.33,1.18-16.32,12.9-17.67,15.1l5.01-3.57-1.39.44c5.26-4.13,9.46-7.79,15.03-11.88-4.03,3.67,2.05-.39-2.7,3.78-8.95,7.83-2.87,1.47-4.19,2.5l-7.08,6.28,5.35-3.56c-5.68,4.68-13.57,10.88-21.62,17.06-12.25,8.69,1.06-1.63-7.8,4.47-3.64,3.15-2.54,2.65-7.97,6.77,3.1-2,5.09-4.14,7.14-5.68,3.04-1.46-9.44,7.78-8.47,7.88-2.38,1.51-2.13.95-.57-.64-8.89,7.27-17.67,13.96-21.62,15.91l-3.37,3.73c-3.54,2.66-6.32,4.71-6.14,4.45,0-.07.51-.52,1.28-1.19.39-.33.84-.72,1.33-1.14.32-.29.67-.59,1.02-.9,2.82-2.48,5.92-5.23-.77-.37-2.94,2.27-5.85,4.52-8.55,6.61.9,3.11,1.76,6,2.51,8.45.1.31.19.6.28.9.06.19.12.37.18.55.12.35.23.68.34.99.22.62.43,1.16.61,1.6l-2.01-7.11c.61,1.69,1.07,2.92,1.46,3.9.3.66.55,1.22.83,1.85.56,1.28,1.19,2.89,2.33,6.31,1.33,4.96.01,2.48,2.18,8.3,3.06,12.13,1.26,8.07-.34,4.82,1.5,4.97,3.33,11.43,3.93,12.19-.17.15-.78-.53-1.8-3.29-2.07-10.5-2.01-3.72-2.29-8.17l-.62-2.25c-.11-.2-.21-.37-.31-.51,1.07,4.4.79,4.51.22,3.5l1.55,3.93.08,3.25c1,3.86,2.41,6.2,2.55,8.44.96,5.9-3.45-8.04.29,6.05,4.07,15.07,5.09,13.78,7.83,24.02-.07-1.11-.82-3.64-1.69-6.83,1.3,3.22-.08-2.69,1.78,2.81.21,3.37,3.33,14.1,5.7,22.3-.99-2.03.14,3.34-.82.83,1.28,4.13,2.5,7.94,3.33,9.63-4.26-16.85,5.22,16,2.2,2.83,3.69,13.02,3.77,15.7,5.71,23.88-.37-.47-4.73-14.85-1.72-3.23,4.53,13.05.34-2.66,4.17,7.4l-2.13-8.41c.59-1.3,4.36,14.38,5.17,16.47,1.25,5.21-2.3-7.1-1.47-1.9,2,7.74,3.67,11.44,4.74,16.44-1.97-4.6-.86-1.63-2.96-6.91,5.18,18.02-.97-.72,2.59,13.15,1.37,4.34,1.1,1.41,2.98,8.49-.53-4.3-.16-3.84-3.4-15.23,2.09,3.71,4.06,15.05,6.91,22.83-1.75-6.39-.38-2.05-2.5-8.91.52-1.16-.09-3.75,2.45,2.32-2.33-7.34-4.1-10.3-6.91-20.97-.03-3.15,4.35,12.82,5.43,12.65,2.04,5.12,5.27,18.08,6.56,24.03,3.59,10.1,7.22,22.71,10.42,30.32.89,3.69,2.84,9.97,5.04,17.08,1.09,3.56,2.24,7.32,3.38,11.06.58,1.97,1.16,3.94,1.72,5.87.65,2.31,1.28,4.58,1.9,6.77.38,0,.72,0,1.06.01.62.12,2.36.2,4.46.26,1.86.05,4.01.1,5.75.14,2.86.08,4.51.16,1.13.39,3.05-.13,12.15-.25,9.36-.64-1.25.16-2.62.03-5.23.06l2.33-.6c7.03.25,14.91-.52,21.66-.16,2.2.48-12.68.32-8.13.88,6.48-.9,32.94-1.29,41.36-.91,5.65.12,6.32.88,8.68.96l9.5-.06c1.11.24,1.26.53,3.03.84,4.68.17,7.86-.08,10.77-.22,12.39.48,5.78,1.1-.58,1.6l-7-.25c-5.11.34-12.43.2-8.13.88,3.55-.07,3.43-.36,4.68-.52l4.11.39c4.14-.3,15.58-.46,14.36-.99,8.39.38,18.04-.08,25.48.35-5.11-.34,1.38-.56-.13-.98l-8.95-.16c7.17-.15,17.51-.55,24.26-.19-.83.33-1.1.45,2.33.77-4.82-.46,12.54-.6,2.08-1.18-3.85.19-7.45.26-12.43.21-3.27-.73,4.58-.81,8.98-1.22,5.51-.17,16.28-.39,23.71-.65,4.69.17,6.06.99,14.07.5-10.03-.68,8.99-1.14,12.13-1.83h1.24c1.7.05,3.26.04,4.73,0h12.01c-4.07.2-14.36.22-17.15.72-.43.51,2.62,1.35-9.11,1.62,14.08.26,8.28-.44,14.76-.65l-4.82.07c2.19-.2-1.95-.59,2.33-.6,16.53.19,19.44.73,30.6,1.38-2.49-.37,2.61-.72,5.24-.74,10.75.47-.14,1.09,6.45,1.85,3.74-.47,11.05-.33,8.58-.71,4.26,0,2.05.2,5.09.34,2.75-.43,5.94-.68,11.84-.67-.54.22-1.36.56-7.02.44,6.34.19,8.67.96,5.92,1.39l-10.33-.29c-4.7.52,9.64.22,9.24.73-4.56.12-7.99-.21-10.9-.07,2.9.55,11.84.02,17.08-.04,8.28.09,5.24.63,5.37.92,14.07-.88-16.26-.99-3.16-1.81,2.23-.28,6-.42,10.27-.5,2.14-.03,4.4-.06,6.66-.08,3.05-.02,6.09-.04,8.95-.06.41-1.25.8-2.44,1.18-3.58-.87,2.07-1.35,3.04-1.51,3.12-.29-.05-.33-.09-.09-.13-.03-.45.53-2.52,1.37-5.33.73-2.38,1.68-5.51,2.66-8.72-1.68,4.91-2.2,5.95-2.71,7.02-.47.96-.78,1.5-2.17,5.83-1.28.03-2.89.07-4.91.12l-.45-.58c1.59.01,3.25.03,5.06.04.88-2.44,1.8-5,2.7-7.53.83-2.29,1.64-4.56,2.37-6.69-.25,1.22.32-.04-.22,1.83l5.43-16.81-.22,1.82c3.56-10.29,8.28-22.81,10.16-29.02-1.63,4.98-3.63,9.1-2.02,3.84.79-3.09,2.38-8.66,4.03-13.34,1.47-2.26,7.48-20.03,4.3-8.58,4.6-14.59,2.66-9.28,6.98-23.26l-2.98,9.33c-.74.82.33-4.42-1.12-1.45l5.26-15.48c-.57,2.37-1.75,6.35-1.56,6.14,2.47-7.18-.32.05,1.84-6.78.14-.5.28-.96.41-1.4l2.08-6.12c1.31-3.15,2.06-3.46,4.43-11.25-.82,2.49-2.48,6.86-1.7,3.79,1.98-5.82,2.8-8.46,3.25-10.12l4.43-13.04c1.26-2.01,1.88-2.37,4.5-9.66l-1.91,5.59c1.7-3.78,3.36-8.16,4.73-12.22,4.31-14.06,7.85-26.59,11.74-39.81l7.75-22.82c.53-1.01-.35,2.98.06,2.31,1.93-5.32.49-2.76,2.7-8.71.33.27-3.71,13.31-1.48,7.66-.37-.85,1.56-6.16,2.04-8.9,1.67-4.39.34.24,1.19-1.65.81-2.48,1.05-4.02,1.88-6.2l-.21,1.81c2.36-6.1,2.54-7.09,2.75-8.31.1-.61.22-1.28.61-2.67.2-.7.46-1.57.84-2.71.19-.57.4-1.21.64-1.93.27-.79.58-1.67.92-2.65-.19-.23-.66.84-1.31,2.7-.62,1.76-1.43,4.32-2.38,7.27-.58.73-.45-.38,0-2.34l4.01-11.82-5.07-3.41c2.13,1.29,4.3,2.6,5.56,3.25-.05.18-.06.27-.07.35l.14-.37-10.04-7.31c.79.3,1.68.72,2.6,1.2.46.25.93.51,1.41.77l.73.42.84.5c2.25,1.35,4.52,2.76,6.39,3.78-.22.98-.35,1.75-.33,2.26.36-1.06.69-2,.83-2.43Z"/>
  <path d="m456.07,159.19c.3.2.61.4.93.62-.34-.23-.64-.43-.93-.62Z"/>
  <path d="m6.48,195l1.13,4.13c.24.42.51.96.78,1.51-.82-2.72-1.54-4.99-1.91-5.65Z"/>
  <path d="m6.39,199.73c.33.74.79,1.77,1.14,2.39l-1.31-3.33.18.93Z"/>
  <path d="m90.82,433.38c-.4.02-.71.04-.85.05.32-.02.6-.04.85-.05Z"/>
  <path d="m6.6,200.85l-.21-1.12c-.49-1.09-.69-1.52.21,1.12Z"/>
  <path d="m433.52,145.86c.36.25.69.48,1.1.78-.41-.3-.76-.55-1.1-.78Z"/>
  <path d="m289.59,431.95l4-.06c-1.73,0-2.98.03-4,.06Z"/>
  <path d="m52.27,355.1c6.49,22.79,4.37,9.24,10.99,32.71l-2.94-12.05c-.54.84-3.33-7.38-6.01-16.5l-.27-2.94c.6,1.52,1.21,3.15,1.82,4.86-.92-3.46-1.15-2.69-2.2-6.89.02,1.57-2.89-5.78-1.38.81Z"/>
  <path d="m56.08,362.04c-.04-.17-.09-.4-.12-.57-.03-.08-.07-.19-.1-.29.08.29.14.53.23.86Z"/>
</svg>