<?xml version="1.0" encoding="UTF-8"?>
<svg id="creative" xmlns="http://www.w3.org/2000/svg" viewBox="0 0 136.42 120.34">
  <path id="Path_5446" data-name="Path 5446" d="m88.87,74.14c-.13.1-.17.11-.19.1-.09.09-.18.18-.27.27l.47-.37h0Z" fill="#ea6428" stroke="#da6c3a"/>
  <path id="Path_5447" data-name="Path 5447" d="m117.23,51.73s.03-.02.06-.03c-.07.02-.16.04-.18.02-.02.05.02.05.13,0h0Z" fill="#ea6428" stroke="#da6c3a"/>
  <path id="Path_5448" data-name="Path 5448" d="m109.56,56.75c-.15.07-.29.13-.43.18.15-.04.3-.1.43-.18Z" fill="#ea6428" stroke="#da6c3a"/>
  <path id="Path_5449" data-name="Path 5449" d="m92.7,71.01c-.33.23-.67.46-1.01.71.38-.17.72-.41,1.01-.71Z" fill="#ea6428" stroke="#da6c3a"/>
  <path id="Path_5450" data-name="Path 5450" d="m110.65,56.19c-.3.13-.75.39-1.1.57.35-.15.71-.36,1.1-.57Z" fill="#ea6428" stroke="#da6c3a"/>
  <path id="Path_5451" data-name="Path 5451" d="m132.89,44.42c-.24.07-.51.14-.79.24-.01.02-.05.05-.04.07.27-.11.55-.21.83-.31h0Z" fill="#ea6428" stroke="#da6c3a"/>
  <path id="Path_5452" data-name="Path 5452" d="m2.61,48.1c.53-.59.58-.72.46-.69-.13.24-.28.47-.46.69Z" fill="#ea6428" stroke="#da6c3a"/>
  <path id="Path_5453" data-name="Path 5453" d="m16.82,34.94c-.1.1-.2.21-.29.31.21-.2.35-.36.29-.31Z" fill="#ea6428" stroke="#da6c3a"/>
  <path id="Path_5454" data-name="Path 5454" d="m7.75,41.55c-.06,0-.11.01-.16.04-.03.06,0,.06.16-.04Z" fill="#ea6428" stroke="#da6c3a"/>
  <path id="Path_5455" data-name="Path 5455" d="m60.09,50.51l.35-.32c-.13.09-.25.19-.35.32Z" fill="#ea6428" stroke="#da6c3a"/>
  <path id="Path_5456" data-name="Path 5456" d="m45.51,71.46c-.04.07-.08.13-.12.19.04-.06.08-.12.12-.19Z" fill="#ea6428" stroke="#da6c3a"/>
  <path id="Path_5457" data-name="Path 5457" d="m45.11,72.1c.1-.15.19-.3.28-.45-.12.19-.23.36-.28.45Z" fill="#ea6428" stroke="#da6c3a"/>
  <path id="Path_5458" data-name="Path 5458" d="m133.82,44.48c.55-.35,2.01-.95,1.99-1.11l-2.93,1.05c1.08-.29,1.66-.33.93.07h0Z" fill="#ea6428" stroke="#da6c3a"/>
  <path id="Path_5459" data-name="Path 5459" d="m74.13,6.4c.32.13.55.24.73.3s.29.14.37.17l-.27-.15-.29-.11c-.2-.07-.38-.16-.57-.22l.03.02h0Z" fill="#ea6428" stroke="#da6c3a"/>
  <path id="Path_5460" data-name="Path 5460" d="m79.04,21.92s.01-.05.02-.08l-.04.12.03-.04h0Z" fill="#ea6428" stroke="#da6c3a"/>
  <path id="Path_5461" data-name="Path 5461" d="m72.89,6.2c-.08,0-.16.01-.23.03.26.05.28.02.23-.03Z" fill="#ea6428" stroke="#da6c3a"/>
  <path id="Path_5462" data-name="Path 5462" d="m85.55,78.05c-.09.11-.17.19-.29.33.14-.14.21-.24.29-.33Z" fill="#ea6428" stroke="#da6c3a"/>
  <path id="Path_5463" data-name="Path 5463" d="m79.78,20.73c-.21.4-.5.79-.74,1.18-.05.18-.1.37-.17.61.02.15.21-.13.42-.53.2-.41.36-.83.49-1.26h0Z" fill="#ea6428" stroke="#da6c3a"/>
  <path id="Path_5464" data-name="Path 5464" d="m72.89,6.2c.18-.01.36,0,.54.02.2.05.43.1.67.15l-.52-.29c-1.42-.34-.81,0-.69.12h0Z" fill="#ea6428" stroke="#da6c3a"/>
  <path id="Path_5465" data-name="Path 5465" d="m.96,48.86c.73-.57-1.35,1.87.02.53l1.11-1.55c-.12.32.74-.35.98-.42.34-.73-2.01,1.44-.71-.42.26-.4.56-.77.9-1.1.42-.42.89-.86,1.21-1.15-1.41,1.31-.14-.21.35-.82.46-.37,1.01-.91,1.53-1.37.38-.37.8-.69,1.24-.98.36-.45.77-.86,1.21-1.23l.1.02c.98-1.02-.41.27-.21-.05.72-.73,2.05-1.65,3.28-2.77-1.05.95-2.05,1.96-2.99,3.02,2.32-1.96-.09.7-.42,1.33,1.69-1.75,2.28-2.48,3.67-3.92,1.93-1.47.29.62-.14,1.04,1.53-1.59,3.14-3.27,3.97-4.13-1.03,1.33-.74,1.23-1.68,2.4.85-.53,1.58-1.23,2.14-2.06-.33.35-.7.66-1.1.92,1.62-1.34,1-1.53,1.69-2.4,1.3-.87,3.65-2.69,3.7-2.31l-.23-.25c1.4-1.18.86-.44,1.15-.53.4-.6-.48-.34,1.9-2.3-.06.71,2.24-1.59,2.46-1.15.88-.82,1.8-1.58,2.76-2.3,1.51-.72-1.47,1.84-2.22,2.32-1.66,1.24.09-.34-.58.15l-1.51,1.3c.95-.57,2.77-1.76,2.69-1.42,1.56-1.28-1.44.77.26-.64.38-.23.76-.46,1.15-.67,1.73-1.37-.6-.04,1.72-1.75-.72.65-.08.2.75-.36s1.87-1.2,1.89-1.01c-.08-.22.99-.95,2.11-1.7.9-.5,1.73-1.1,2.49-1.79l-1.34.73h.4c-1.41.87-2.47,1.76-3.95,2.64,1.03-.88-.59-.06.63-1.05,2.31-1.86.79-.23,1.13-.47.6-.51,1.22-.99,1.84-1.48l-1.45.69c.75-.53,1.65-1.12,2.64-1.76s2.06-1.29,3.15-1.93c3.34-1.69-.26.45,2.16-.71.67-.55,1.4-1.04,2.16-1.44-.68.33-1.33.72-1.96,1.15-.86.16,2.58-1.62,2.3-1.77.66-.25.6-.09.18.29,1.13-.71,2.3-1.36,3.5-1.95.79-.43,1.63-.76,2.51-.97l.94-.86c4.41-2.1-2.83,1.79.93.13,1.24-.57,2.45-1.2,3.62-1.91l-1.33.62c.74-.61,1.53-1.15,2.36-1.62,1.17-.52.65-.02,1.95-.82,1.79-.67,2.11-.61,1.92-.39s-.86.69-1.08.95c2.57-.88-1.01,1.14.62.29l-.48.12c.4-.25.81-.51,1.21-.75s.82-.48,1.23-.71c-.43.07-.84.18-1.24.34-.22.1-.28.17-.29.22-.02.11.13.14-.42.15-.49.2-.98.39-1.47.6.65-.41,1.35-.75,2.08-1.01.47-.19.93-.38,1.3-.53.24-.08.48-.2.69-.35.06.1-.22.45-1.74,1.04.36,0,.71.03,1.06.06.37-.13.74-.28,1.09-.46.25-.15.54-.23.83-.23.69-.04.24.19.03.34s-.19.2,1.38-.15c.84-.18,1.43-.28,1.9-.4.46-.08.81-.19,1.11-.26s.58-.14.92-.19c.16-.01.34-.02.55-.02.23,0,.46,0,.69.05-.45-.14-.93-.2-1.4-.16.71-.14-.54-.29.66-.36.25.09.5.16.76.21.32.08.71.13,1.1.25.19.06.41.08.61.16s.4.14.61.21.39.17.58.25c.19.07.37.16.54.27-.42-.07.34.57-.11.4.17.09.33.17.49.25.14.1.28.19.41.27.27.14.47.3.63.37-.13-.14-.22-.27-.31-.35s-.16-.15-.21-.2c-.09-.1-.1-.13-.05-.11.28.13.54.31.76.52.35.25.63.61.81.73s.16.04-.19-.51c.35.41.65.86.91,1.34.16.35.3.71.4,1.07.09.31.16.63.21.95.03.16.06.33.09.5s.04.38.07.58c-.07-.15-.13-.31-.17-.47-.1-.23-.21-.52-.3-.73s-.18-.32-.18-.27c0,.08.02.16.05.24.03.14.07.35.14.62.47,1.26.53,1.15.6.93.03-.11.06-.24.14-.21s.21.21.36.76l-.04-.46c-.02-.15-.05-.3-.07-.45-.04-.3-.1-.6-.17-.89.07-.08.18.06.28.34.12.37.2.76.25,1.14.03.22.06.45.08.67s.02.44.03.64.02.37.03.51c0,.1,0,.21.01.31-.05.59-.07.17-.11-.23-.06-.41-.16-.8-.25-.24,0,.42-.02.8,0,1.14,0,.34-.02.64-.02.93,0,.27-.03.54-.07.81-.02.13-.04.26-.06.39s-.07.26-.12.39c0-.26-.01-.51-.06-.76-.02-.12-.02-.25-.07-.86-.05.49-.12.85-.16,1.11-.04.18-.09.36-.15.53-.07.2-.1.14-.13.05s-.06-.21-.12-.13c-.16.34-.3.69-.4,1.06-.06.23-.09.47-.07.71,0,.12-.02.23-.06.34-.02.08-.06.18-.1.3-.06.13-.12.27-.21.45.25-.26.47-.55.65-.87.13-.23.23-.48.31-.74.05-.17.11-.36.19-.59s.11-.5.18-.8c.05.31.03.63-.05.93-.1.42-.23.83-.4,1.23-.1.22-.17.44-.28.66s-.22.46-.32.69c-.22.46-.43.92-.6,1.36.36-.65.42-.75.49-.86.17-.32.31-.65.42-.99.39-.07.68-.62.36.88.26-.69.45-1.4.57-2.13.11-.7.28-1.46.47-2.65.11-.16.15-.05.16.21.01.36-.01.72-.07,1.07-.02.21-.05.43-.07.63s-.07.4-.08.57c-.03.34-.04.6.06.64-.2.93-.56,1.82-1.04,2.64-.48.88-1.05,1.7-1.69,2.47-.65,1.2-1.4,2.34-2.22,3.42-.82,1.11-1.64,2.14-2.19,3.01-.7.66-1.83,1.9-3.13,3.31-.65.71-1.33,1.46-2.01,2.2s-1.37,1.45-2.01,2.11c-.52.28-3.15,3.24-1.78,1.44-.18.27-2.17,2.59-1.51,2.11.26-.35.55-.69.86-1l-.21.6c-.63.67-1.23,1.37-1.79,2.1-.54.72-1.12,1.41-1.74,2.06-.51.3,1.97-2.51,1.06-1.79-.91,1.41-1.9,2.78-2.95,4.09-.66.84-1.32,1.7-1.9,2.44s-1.11,1.37-1.46,1.76c-.9,1.11-1.24,1.06-1.62,1.51-.48.64-.96,1.28-1.42,1.94-.25.12-.49.26-.72.42-.57.71-1.08,1.46-1.53,2.26-1.95,2.46-1.19.95-.43-.49.36-.47.75-.92,1.12-1.38.65-1.13,1.79-2.59.93-1.87-.24.33-.42.69-.53,1.08l-.74.75c-.54.91-2.13,3.33-1.78,3.19-.69.87-1.33,1.77-1.92,2.7-.62.92-1.22,1.82-1.79,2.58.82-1.01,0,.41.35.18.42-.62.85-1.25,1.29-1.86-.49.76-1.03,1.73-1.6,2.66-.29.47-.57.93-.85,1.36s-.54.84-.8,1.18c0-.25,0-.33-.57.34.79-.94-1.46,2.82.12.69.48-.93,1.01-1.83,1.59-2.7.69-.54-.36,1.14-.79,2.18-.69,1.21-2,3.58-2.85,5.25-.77.9-1.41,1.91-1.92,2.98.75-1.05.55-.47.16.47-.38.84-.71,1.71-.98,2.6-1.03,1.65-1.24,2.9-2.17,4.17.27-.75,1.64-3.4,1.82-4.16-.13-.19-.78.33.53-2.32-1.78,3.08-.85,1.91-1.53,3.4.18-.36.35-.73.54-1.09-.19.52.44-.32-.06.63-1.98,3.66-2.51,4.21-3.93,6.68.39-.52,0,.72-.27,1.34-1.22,2.45-.39-.21-1.31,1.23-.19.96-.88,2.7-.53,2.15-.14.41-.33.81-.56,1.19-.12,1.01-.33,2.02-.63,2.99-.06-.16-.13-.4.33-1.78-.54,1.54-.97,2.06-.96,1.32.3-.85.56-1.71.9-2.54.1-.61-.13-.02-.39.69-.24.73-.52,1.6-.6,1.52.14-.58.31-1.07.46-1.52.16-.39.29-.79.41-1.19-.6,1.37-1.01,2.82-1.23,4.29-.15.52-.23.87-.3,1.1-.03.13-.08.25-.17.35-.09.06-.13-.14-.19-.14-.18,1.88.12.82.42-.25s.7-2.12.44-.43c-.01.44-.05.87-.11,1.3-.08.52-.14,1.12-.21,1.75-.03.32-.08.64-.1.97l-.06.99c-.04.63-.05,1.25-.03,1.88.15-1,.25-.93.32-.34.04.3.06.73.11,1.24s.13,1.08.2,1.67c-.11-.66-.1-1.34.02-2,.04-.2.06-.41.06-.62.02-.34-.04-.87,0-1.76l.23-.06c-.08.75-.08,1.58-.11,2.41-.02.41.02.83.04,1.23.01.39.04.79.1,1.18-.11-.31-.11.05-.21-.44.05.38.13.75.19,1.13.06.38.13.75.23,1.12.17.74.39,1.47.65,2.18l-.29-.4c.11.34.22.68.33,1.04.11.36.23.71.38,1.06.28.71.63,1.39,1.03,2.03.38.61.83,1.16,1.35,1.65.42.39.89.71,1.4.96-.52-.26-.99-.63-1.36-1.08-.17-.26-.09-.24.5.21.48.3.99.55,1.53.75.63.24,1.29.4,1.96.49.36.13.73.21,1.11.22.52.03,1.05.03,1.57-.02.28-.05.57-.07.86-.06.04.02-.21.15-1,.34.72-.12,1.42-.31,2.11-.56.46-.16.74-.3,1.02-.42.54-.27,1.09-.5,2.71-1.43-.73.41-1.48.79-2.25,1.13-.19-.04.17-.33.29-.52s0-.25-1.12.1c.43-.17.84-.38,1.22-.64.17-.12.34-.26.48-.41.69-.57,1.45-1.07,2.24-1.48.68-.31.63-.17.2.19-.68.55-1.4,1.02-2.17,1.43.95-.4,1.85-.9,2.69-1.49.78-.24-1.56,1.24-1.44,1.25,1.67-.94-.09-.08,1.45-1.02.69-.51,1.43-.94,2.22-1.27.78-.29,1.5-.71,2.13-1.24-.52.4-1.57.96-.95.46.43-.27.76-.52,1.04-.72s.49-.37.67-.51c.24-.18.47-.38.69-.6.31-.3.5-.52,1.61-1.47.44-.23.91-.42,1.39-.54.68-.28,1.3-.69,1.84-1.2l-1.13.96c.93-.59,1.82-1.26,2.65-1.99,3.97-3.93,6.78-7.56,10.47-11.91l-1.32,1.55c-.54.44,1.06-1.34.95-1.39l.96-.85c.07-.4-2.09,1.97-1.74,1.26.21-.18.4-.38.57-.6l-.85.82c1.86-1.9,2.97-3.74,4.58-4.99-3.45,3.88-.04,1.03-3.39,4.86,1.76-2.04.5-.19.76-.33.99-1.01.34-.63,1.47-1.76.1.14-2.11,2.77-.99,1.72-.07-.29.92-1.31,1.26-1.94.84-.83.1.13.5-.2.43-.49.61-.85,1.02-1.26l-.19.43c2.36-2.3.5-.9,3.04-3.63-.08-.21-.81.67-1.82,1.85-.86.29,2.86-3.9,2.3-3.99,2.33-2.66-.49.82,1.63-1.32,1.34-1.02-1.26,1.85-1.61,2.56l2.24-2.17c-.42,1.03-1.82,2.37-1.92,3.02,1.57-1.7,1.31-1.56,2.8-3.38-2.79,2.59.94-1.38-.81-.04.94-.83,1.84-1.7,2.7-2.62-1.06,1.23.18.27-1.28,1.83,1.16-1.27,1.58-1.75,2-2.22s.82-.96,2.03-2.18c.57-.96-2.73,2.21.08-.86.64-.63.59-.44.21-.07,2.19-2.01-.67.19.56-1.23.9-.94,1.32-1.18.98-.76,1.32-1.44.4-.84,1.31-1.77l-.46.38c.35-.44-1.04.32,1.02-1.62,1.52-1.39,1.16-.83,1.25-.8.93-.93,1.93-1.77,3.01-2.52-.12.03-.06-.09.31-.4,2.03-1.81,1.35-.82,2.15-1.44,3.1-2.31-.71-.1,2.68-2.8-1.33,1.02-2.68,2.01-3.97,3.08.07-.24.03-.46-.8.24-.68.99-1.52,1.86-2.48,2.59-.26.07.54-.72,1.12-1.33.6-.59.96-.99-.2-.17.8-.63,1.84-1.57,2.82-2.36-.4.51.36-.15,1.08-.68s1.33-1.01.57-.23c1.07-.86,1.9-1.54,2.65-2.09l1.98-1.45.92-.68c.32-.23.64-.46,1-.71.71-.51,1.5-1.11,2.51-1.86-.54.57-1.12,1.1-1.72,1.6-.46.38-.97.8-1.51,1.21s-1.08.84-1.62,1.21l-.25.02c-2.52,2.09,2.14-1.4,1.8-.85,3.05-2.68,7.44-4.96,11.6-7.6-.81.33,0-.23.1-.45-.86.59-1.76,1.1-2.69,1.54.52-.48,1.07-.91,1.66-1.3.17-.21-.15-.03-.6.25-.43.3-.87.57-1.34.81.79-.54,1.55-1.11,2.27-1.73.55-.21,1.11-.38,1.68-.51,1.01-.6,1.75-1.01,2.32-1.36s.98-.62,1.37-.88c1-.68,2.06-1.28,3.16-1.79-1.88.93.96-.27-1.09.72l1.13-.56c-2.79,1.69-7.61,4.5-6.89,4.62,1.12-.71,2.09-1.32,3.11-1.96.52-.33,1.05-.66,1.63-1.01s1.22-.69,1.94-1.06l-.08.14c2.09-1.06-.08-.08.37-.41.47-.29.97-.54,1.47-.76.44-.18.82-.31,1.17-.43.74-.22,1.44-.55,2.06-1l-2.44,1.1c1.74-1.05-.55.23-.25-.26,4.41-2.32,8.95-4.39,13.58-6.22-1.24.31-2.45.72-3.62,1.22.65-.73,1.41-.94.39-.93l-2.19.89-.18-.35c.6-.25,1.19-.48,1.74-.67.21-.36,3.38-1.23,3.44-1.51l-1.87.75c-1,.17,1.23-.67,2.53-1.24-2.31.74-4.55,1.65-6.72,2.72.25.05-2.28,1.42.3.37.02.08-.35.3-.85.55s-1.11.56-1.61.79c.49-.31-2.13.5.17-.67-2.18,1.19-1.01.44-3.47,1.69.3-.27-4.32,2.1-4.18,1.69-.71.53.26.42-2.56,1.9.8-.15,3.96-1.75,1.96-.44l1.3-.85c2.03-.9-.44.47,2.2-.71-.39.18-.95.48-1.47.75-.37.23-.77.41-1.19.52.44.05-.48.6-1.51,1.18-.78.35-1.5.83-2.11,1.43-.96.34-1.88.81-2.72,1.38.12-.23-.7.11.31-.6.91-.46,1.53-.86,2.57-1.31-.87.16-1.7.51-2.42,1.03-1.1.65-2.39,1.48-3.55,2.1.34-.15.45-.17-.14.26-1.4.79-4.46,2.6-3.72,1.87l-3.37,2.28-3.31,2.36c-.1-.07.92-.71,1.3-1.02-.62.44-1.25.86-1.85,1.31l-1.82,1.35c-.94.51,1.15-1.05,1.42-1.44l-2.62,1.98.28-.4c-.3.27-1.18,1.01-2.09,1.73-.72.59-1.49,1.13-2.29,1.61-.94.82-1.83,1.69-2.67,2.61-1.07,1.13-2.22,2.19-3.45,3.16-.05-.32,2-1.9,2.73-2.77-.77.57-2.83,2.61-3.33,2.79-.76.71-1.43,1.5-1.99,2.38-.26.54-.56,1.05-.91,1.53-2.01,2.01-.37.07-.5.1-.61.58-1.27,1.86-2.03,2.19-.82,1.11-1.2,1.81.27.41-.52.54-1.14,1.21-1.64,1.8-.35.4-.67.82-.97,1.26.56-1.14-1.28,1.15-1.61,1.07-2.22,2.21-4.26,4.58-6.11,7.11l.12-.73-1.72,1.97c-1.49,1.29,1.36-1.88,2.22-2.88-2.4,2.62-3.99,4.37-6.14,6.73.7-.61.38-.16.77-.4-.63.91-1.75,1.92-2.49,2.77-.26.12-.22-.02.37-.69-.48.55-.99,1.06-1.48,1.59-.06-.3-.79.46.59-1.19l-1.35,1.48c-1.59,1.53-.07-.21.25-.66-.41.41-.82.82-1.24,1.22l-1.26,1.19c-.8.96.67-.32-1.02,1.37-2.47,2.04-5.5,4.72-8.45,6.73.72-.44,1.46-.83,2.17-1.31-.22.16-.4.31-.55.43s-.28.22-.38.31c-.15.13-.28.27-.38.44-.13.23-.1.38-.32.65-.42.28-.86.61-1.32.92s-.96.61-1.44.91-.94.62-1.41.85-.89.47-1.26.66c1.57-1.12.73-.97-.89-.24-.22.12-.42.24-.6.34l-.48.26-.74.4c-.29.16-.58.34-.85.53-.45.38-.98.67-1.54.85.66-.43.06-.29-.63-.17s-1.44.16-1.3.02c-.41,0-.82-.03-1.22-.11-.35-.08-.68-.21-.99-.39-.71-.46-1.29-1.1-1.68-1.86-.27-.47-.5-.97-.69-1.49l-.3-.82-.15-.41-.11-.43c-.16-.57-.29-1.15-.38-1.74l-.14-.89-.06-.91c-.06.1-.04,1.51-.17.65-.05-.45-.08-.84-.1-1.18,0-.29.02-.58.05-.87.02-.3.08-.59.17-.87.03-.59.05-1.12.06-1.59.04-.48.07-.9.09-1.27s.04-.7.06-.98.03-.53.03-.73c-.16,1.05-.24,1.13-.33.92.11-.6.2-1.01.28-1.32s.18-.51.25-.71c.22-.64.38-1.3.48-1.96.21-.26.06.38-.1,1.06-.14.69-.28,1.41-.13,1.33.5-2.09.86-3.43,1.26-4.99.27-.29-.44,1.41.08.31.53-1.63,1.17-3.41,1.86-5.09s1.39-3.24,1.98-4.44l.52-.54c.76-1.53,1.26-2.54,1.55-3.28.52-.77.22-.11-.17.68,1.09-2.01,2.33-4.53,2.95-5.67.01.25-.62,1.14-.72,1.52,1.44-2.47,2.96-5.79,4.2-7.24-.11.24-.23.47-.37.69,2.26-3.6,4.17-6.78,6.83-10.56,1.35-1.63,1.48-1.96,1.59-2.3.31-.87.81-1.67,1.45-2.34.47.33,3.48-4.49,4.72-5.75l-.42.38c1.21-1.74,2.61-3.34,4.18-4.76,2.06-2.33,5.22-5.75,7.21-8.15l-.34.53c1.67-1.96,2.98-2.97,4.68-5.02-.02.09-.64.86.09.13,2.33-2.34,4.38-4.96,6.09-7.79.88-1.5,1.59-3.09,2.12-4.74.52-1.69.82-3.44.88-5.21.07-1.78-.13-3.56-.57-5.29-.46-1.78-1.26-3.45-2.34-4.93-1.12-1.5-2.57-2.73-4.24-3.6-1.63-.83-3.41-1.34-5.23-1.49-3.35-.19-6.71.32-9.86,1.48-1.57.53-3.1,1.16-4.61,1.84-1.47.69-2.95,1.39-4.44,2.09-6.03,2.94-11.89,6.2-17.57,9.77-5.66,3.55-11.12,7.41-16.36,11.56-4.92,3.89-9.62,8.04-14.09,12.43,0,0-.1.15-.28.4s-.43.62-.71,1.07c-.56.9-1.29,2.08-1.95,3.25-1.3,2.36-2.3,4.66-1.36,4.4l-.05.03Z" fill="#ea6428" stroke="#da6c3a"/>
  <path id="Path_5466" data-name="Path 5466" d="m84.02,80.04c-.08.07-.15.14-.25.23.1-.08.17-.15.25-.23Z" fill="#ea6428" stroke="#da6c3a"/>
  <path id="Path_5467" data-name="Path 5467" d="m42.8,117.57c.24-.1.48-.22.71-.34-.23.11-.47.22-.71.34Z" fill="#ea6428" stroke="#da6c3a"/>
  <path id="Path_5468" data-name="Path 5468" d="m35.72,82.28l-.44.9c.2-.38.34-.67.44-.9Z" fill="#ea6428" stroke="#da6c3a"/>
  <path id="Path_5469" data-name="Path 5469" d="m78.22,23.74c-.31.22.3-1.51-.58-.23-.71,1.17-1.14,1.88-1.43,2.37-.2.35-.38.71-.53,1.08-.16.39-.36.76-.6,1.1-.58.82-1.21,1.59-1.91,2.32.73-.71,1.45-1.42,2.13-2.15-.34-.07.9-1.77,2.07-3.65l.54-.46c-.15.38-.32.75-.52,1.11.16-.21.29-.44.38-.69.12-.28.27-.55.45-.8h0Z" fill="#ea6428" stroke="#da6c3a"/>
  <path id="Path_5470" data-name="Path 5470" d="m77.27,25.4l.09-.11s.02-.04.04-.06c-.04.06-.07.1-.12.17h0Z" fill="#ea6428" stroke="#da6c3a"/>
</svg>