<?xml version="1.0" encoding="UTF-8"?>
<svg id="creative" xmlns="http://www.w3.org/2000/svg" viewBox="0 0 221.01 111.74">
  <path id="Path_5521" data-name="Path 5521" d="m154.51,76.48c-.2.11-.26.12-.29.11-.15.11-.29.21-.45.32l.74-.43Z" fill="#b133d0" stroke="#a33dc9" stroke-miterlimit="4" stroke-width="1"/>
  <path id="Path_5522" data-name="Path 5522" d="m196.19,45.57s.04-.03.07-.05c-.1.04-.21.08-.26.07-.03.07.03.06.18-.01h0Z" fill="#b133d0" stroke="#a33dc9" stroke-miterlimit="4" stroke-width="1"/>
  <path id="Path_5523" data-name="Path 5523" d="m185.75,53.43c-.2.11-.41.21-.59.29.21-.07.41-.16.59-.29Z" fill="#b133d0" stroke="#a33dc9" stroke-miterlimit="4" stroke-width="1"/>
  <path id="Path_5524" data-name="Path 5524" d="m160.59,72.75c-.51.28-1.03.56-1.56.85.56-.2,1.09-.48,1.56-.85Z" fill="#b133d0" stroke="#a33dc9" stroke-miterlimit="4" stroke-width="1"/>
  <path id="Path_5525" data-name="Path 5525" d="m187.28,52.55c-.41.22-1.04.61-1.53.89.48-.25.99-.55,1.53-.89Z" fill="#b133d0" stroke="#a33dc9" stroke-miterlimit="4" stroke-width="1"/>
  <path id="Path_5526" data-name="Path 5526" d="m216.48,31.64c-.31.17-.65.36-1.01.59,0,.04-.06.08-.04.1l1.05-.69Z" fill="#b133d0" stroke="#a33dc9" stroke-miterlimit="4" stroke-width="1"/>
  <path id="Path_5527" data-name="Path 5527" d="m54.38,2.26c-.99.67-1.1.86-.92.83.28-.31.58-.59.92-.83Z" fill="#b133d0" stroke="#a33dc9" stroke-miterlimit="4" stroke-width="1"/>
  <path id="Path_5528" data-name="Path 5528" d="m32.07,21.11c.14-.17.26-.35.37-.5-.28.35-.47.59-.37.5Z" fill="#b133d0" stroke="#a33dc9" stroke-miterlimit="4" stroke-width="1"/>
  <path id="Path_5529" data-name="Path 5529" d="m45.17,10.67c.08,0,.16-.02.23-.06.06-.09,0-.09-.23.06Z" fill="#b133d0" stroke="#a33dc9" stroke-miterlimit="4" stroke-width="1"/>
  <path id="Path_5530" data-name="Path 5530" d="m95.65,74.15l-.56.36c.2-.1.39-.22.56-.36Z" fill="#b133d0" stroke="#a33dc9" stroke-miterlimit="4" stroke-width="1"/>
  <path id="Path_5531" data-name="Path 5531" d="m108.08,47.7s-.06-.03-.09-.04c.03.01.06.03.09.04Z" fill="#b133d0" stroke="#a33dc9" stroke-miterlimit="4" stroke-width="1"/>
  <path id="Path_5532" data-name="Path 5532" d="m107.75,47.6c.08.01.16.03.24.05-.08-.03-.16-.05-.24-.05Z" fill="#b133d0" stroke="#a33dc9" stroke-miterlimit="4" stroke-width="1"/>
  <path id="Path_5533" data-name="Path 5533" d="m217.76,31.39c.66-.65,2.5-1.97,2.42-2.17l-3.7,2.42c1.38-.77,2.17-1.04,1.28-.26Z" fill="#b133d0" stroke="#a33dc9" stroke-miterlimit="4" stroke-width="1"/>
  <path id="Path_5534" data-name="Path 5534" d="m20.65,109.44c.8.18,1.4.28,1.85.34.32.05.64.09.96.11-.96-.13-1.96-.29-2.89-.48l.09.03Z" fill="#b133d0" stroke="#a33dc9" stroke-miterlimit="4" stroke-width="1"/>
  <path id="Path_5535" data-name="Path 5535" d="m54.69,103.45s-.08.04-.12.07c.07-.03.11-.05.19-.09l-.07.02Z" fill="#b133d0" stroke="#a33dc9" stroke-miterlimit="4" stroke-width="1"/>
  <path id="Path_5536" data-name="Path 5536" d="m17.74,108.84c-.18-.04-.35-.06-.53-.07.61.2.65.17.53.07Z" fill="#b133d0" stroke="#a33dc9" stroke-miterlimit="4" stroke-width="1"/>
  <path id="Path_5537" data-name="Path 5537" d="m148.74,81.12c-.16.12-.3.22-.51.37.23-.16.38-.27.51-.37Z" fill="#b133d0" stroke="#a33dc9" stroke-miterlimit="4" stroke-width="1"/>
  <path id="Path_5538" data-name="Path 5538" d="m52.49,103.97c.74-.18,1.48-.34,2.19-.53.26-.15.52-.3.87-.51.29-.36-2.05.59-3.06,1.04Z" fill="#b133d0" stroke="#a33dc9" stroke-miterlimit="4" stroke-width="1"/>
  <path id="Path_5539" data-name="Path 5539" d="m17.74,108.84c.33.07.74.15,1.22.24s1.02.23,1.6.33c-.43-.15-.85-.31-1.28-.49-.8-.21-1.31-.37-1.63-.45s-.44-.09-.45-.05c-.03.07.39.29.53.42Z" fill="#b133d0" stroke="#a33dc9" stroke-miterlimit="4" stroke-width="1"/>
  <path id="Path_5540" data-name="Path 5540" d="m57.01,1.64c-1.26.59,2.71-2.17.22-.71l-2.24,1.81c.31-.39-1.18.28-1.52.35-.38.47.45.06,1.07-.15s1.01-.26-.27.84c-1.17.99-2.41,1.89-3.72,2.69,2.38-1.59.11.28-.72,1.08-.74.47-1.67,1.12-2.5,1.73-.6.5-1.24.94-1.92,1.33-.6.61-1.24,1.17-1.92,1.69l-.14-.03c-1.51,1.46.6-.38.28.06-1.1,1.04-3.08,2.38-4.84,4.12,1.75-1.74,3.23-3.18,4.47-4.45-1.76,1.42-1.71,1.18-1.14.47.29-.35.7-.83,1.08-1.27s.75-.81.9-1.04c-.34.3-.66.58-.95.85-.28.27-.55.53-.8.78-.48.49-.91.93-1.33,1.35s-.81.83-1.22,1.28-.85.93-1.34,1.48c-2.79,2.32-.38-.8.27-1.46-2.34,2.38-4.48,5.14-5.61,6.51,1.38-2.09.99-1.87,2.3-3.72-1.2.93-2.2,2.08-2.96,3.38.44-.57.95-1.09,1.51-1.54-.71.59-1.26,1.35-1.6,2.2-.12.55-.32,1.07-.61,1.56-.42.4-.94.89-1.46,1.42l-1.52,1.57c-.96.97-1.72,1.68-1.78,1.44l.35.25c-1.62,2.19-1.06.96-1.43,1.21-.2.49-.02.55-.14.95-.5,1.07-1.13,2.07-1.87,2.98-.14-.99-2.51,3.22-2.92,2.77-1.2,1.77-1.5,2.75-2.79,4.57-.83.92-.55.1.06-1.08.57-1.13,1.25-2.21,2.01-3.22,1.78-2.54,0,.5.71-.51.51-.85,1.07-1.67,1.61-2.5-1.13,1.22-3.12,3.8-3.12,3.3-1.64,2.54,1.66-1.81-.13.99-.43.52-.86,1.02-1.27,1.55-1.7,2.83.79-.3-1.54,3.32.68-1.27,0-.32-.8.93-.82,1.25-1.82,2.77-1.95,2.54.19.22-.77,1.88-1.81,3.61-.85,1.27-1.54,2.64-2.08,4.07l1.24-1.91-.47.31c.6-1.08,1.13-2.08,1.7-3.07s1.13-2,1.86-3.05c-.87,1.82.76-.34-.29,1.76-1.96,3.93-.87.84-1.18,1.37l-.76,1.57-.73,1.59c.47-.64.91-1.29,1.39-1.92-.64,1.19-1.39,2.6-2.24,4.11-.84,1.52-1.72,3.19-2.56,4.87-1.36,2.44-1.33,2.28-1.26,1.9.08-.37.25-.92-.72.85-.36,1.26-.78,2.51-1.27,3.73.64-1.24.84-2.32,1.23-3.2.41-.5,0,.57-.44,1.76s-.88,2.51-.67,2.45c-.49.94-.56.71-.42-.13-.67,2.05-1.26,4.1-1.75,5.83-.33,1.34-.75,2.65-1.24,3.94.05.65.1,1.3.18,1.95-.13.94-.19,1.56-.24,1.95s-.08.53-.11.52c-.06-.48-.08-.97-.06-1.45.03-.73.04-1.5,0-1.69s-.18.19-.4,1.8c-.28,2.17-.21,4.37.19,6.52-.09-.78-.11-1.57-.14-2.34.11.62.25,1.23.43,1.83.14.53.28,1.19.6,2.59.1.51.15,1.02.17,1.54.02.19.06.38.11.57.12.41.27.82.45,1.21.42,1.5.73,2.36.85,2.81s.05.51-.13.35c-.27-.28-.52-.59-.73-.92-.22-.35-.46-.69-.72-1.01.37,1.13.47,1.58.42,1.65s-.3-.2-.52-.55c-.44-.7-.9-1.61-.22-.1l-.23-.86c.75,1.5,1.64,2.93,2.66,4.26-.95-2.12-1.15-2.52-1.32-2.56-.14-.05-.16.21-.3-.73l-.48-1.29-.4-1.31c.23.45.42.91.58,1.38.14.34.29.7.45,1.1s.36.78.55,1.18c.5,1.15,1.18,2.22,2.02,3.16-.04.06-.25.02-.61-.38-.24-.27-.47-.55-.69-.85-.33-.49-.62-1-.89-1.53.09.6.21,1.19.33,1.8.36.63.78,1.22,1.26,1.77.36.39.66.83.91,1.3.66,1.1-.03.47-.41.17-.19-.15-.31-.21-.13.08.5.76,1.06,1.48,1.69,2.13.58.63,1.13,1.13,1.62,1.56.51.41.95.76,1.36,1.05.66.45,1.35.85,2.06,1.19.3.14.58.28.86.41s.59.25.91.4c.63.3,1.39.63,2.41,1.09-.32-.21-.65-.39-.99-.56-.23-.11-.48-.24-.76-.37-.27-.15-.56-.31-.87-.48,1.37.52-.81-.8,1.41.19,1.08.77,2.28,1.37,3.54,1.77,1.74.6,3.53,1.04,5.34,1.31-.46.02-.15.18.13.31s.56.25.02.23c1.36.21,2.74.25,4.12.13-.57-.04-1.14-.11-1.7-.22-.3-.06-.35-.09-.24-.1.23-.03,1.12.02,2.05.02,1.86,0,3.88-.12,1.24-.33,2.65.05,4.22.03,5.54.03s2.4,0,4.02-.13c-.82.21-1.64.38-2.48.5-.9.16-1.19.27,1.16.07.72-.11,1.43-.3,2.11-.57.21-.11.05-.16-.16-.19-.41-.08-.95-.14,1.04-.71-1.1.15-2.2.28-3.31.37-.24-.22,1.19-.41,2.75-.66,1.24-.17,2.47-.41,3.68-.71,1-.18.32.03-.36.23s-1.38.44-.37.39c3.01-.56,4.4-1.28,6.3-1.67-.84.47-1.71.89-2.6,1.25,1.73-.47,2.57-.72,2.95-.8s.31,0,.17.1c-.26.19-.7.52,1.95-.25,1.63-.64.5-.51,3.15-1.43-.64.07-1.27.18-1.9.32-.7.17-1.72.52-3.88,1.17,1.18-.6,2.42-1.07,3.7-1.4,1.62-.48,3.19-1.1,4.71-1.84-2.31.88-.74.19-3.22,1.24-.5-.26-1.43.03.7-1.21-1.3.58-2.25,1.06-3.34,1.56-1.41.64-2.88,1.15-4.39,1.51-.61-.06.6-.46,1.93-.98s2.77-1.14,2.7-1.41c1.87-.93,6.49-2.54,8.63-3.26,3.49-1.86,7.86-3.96,10.31-5.79,2.01-.97,3.97-2.05,5.87-3.23,2.41-1.43,5.03-3.09,7.34-4.46.84-.2,5.62-3.43,3-1.41.36-.3,4.02-2.84,2.93-2.37-.5.4-1.03.76-1.58,1.09l.54-.73c2.21-1.34,4.36-3.31,6.43-4.69.4-.15-.51.59-1.33,1.27-.83.66-1.57,1.25-.81.88.85-.87,3.18-2.82,5.51-4.92s4.6-4.38,5.7-5.48c.48-.51.99-.98,1.55-1.41.34-.21.65-.46.92-.75.71-.96,1.43-1.9,2.06-2.93.35-.22.68-.46.99-.73.48-.76.85-1.42,1.15-2.01.27-.62.48-1.17.69-1.69.3-.52.5-.96.66-1.31s.3-.6.4-.77c.21-.35.29-.38.29-.19-.03.37-.1.74-.2,1.1-.06.26-.14.54-.21.83-.1.28-.21.58-.31.88l-.65,1.22c-.22.4-.49.78-.72,1.17-.21.48-.45.95-.72,1.4-.26.44-.52.87-.71,1.19-.37.65-.48.94.12.34.35-.51.62-1.07.79-1.67l.98-1.3c.37-.73.97-2.16,1.43-3.35.4-1.22.67-2.19.46-2.01.32-.77.55-1.6.81-2.43.21-.85.35-1.73.52-2.58.09-.87.18-1.73.26-2.56.06-.85.07-1.71.02-2.57.02,2.26-.33-.57-.49.12.06.63.07,1.26.04,1.88-.02.63-.12,1.18-.18,1.77.16-1.48.1-2.98-.19-4.44-.09-.42-.2-.83-.35-1.24-.03-.1-.08-.21-.12-.31s-.09-.23-.14-.34c-.46-1.02-1.16-1.91-2.04-2.6-.32-.23-.65-.44-1-.62.22,0,.38.02.29-.09-.38-.3-.82-.53-1.28-.66,1.19.48-.42-.04-1.67.11-.32.04-.59.09-.8.13s-.32.1-.34.13.08.04.33.03c.44,0,.88,0,1.32.05,1.11,0,2.2.33,3.11.96.76.54,1.38,1.26,1.8,2.09.24,1.29-.49-.72-2.09-1.68-.23-.13-.47-.25-.7-.36-.24-.08-.46-.16-.68-.22-.71-.2-1.44-.27-2.18-.21-.84.08-1.67.3-2.45.63-1.47.65-2.83,1.51-4.06,2.55-1.42.96-2.09.93-4.25,2.93,1.59-1.01.97-.36-.09.67-1,.9-1.93,1.87-2.8,2.9-2.26,1.69-3.28,3.2-5.14,4.49.75-.89,4.03-3.71,4.71-4.63-.04-.3-1.19.07,2.06-2.75-4.1,3.2-2.21,2.13-3.96,3.74l1.33-1.17c-.55.6.74-.23-.45.79-2.34,1.92-3.71,3.05-4.93,3.99s-2.26,1.72-3.85,3.03c.79-.5-.44.93-1.1,1.62-2.95,2.62-.36-.44-2.34,1.02-.8,1.14-2.69,3.06-1.93,2.53-.43.46-.9.88-1.41,1.25-.77,1.24-1.66,2.4-2.66,3.47.04-.23.12-.57,1.55-2.08-1.63,1.67-2.48,2.07-1.98,1.16.88-.91,1.76-1.84,2.67-2.73.49-.73-.14-.09-.89.69s-1.63,1.73-1.68,1.59c1.07-1.3,2.05-2.13,2.74-2.96-.94.59-2.97,3.23-4.2,4.72-2.02,2.29-1.5,1.27-1.65,1.21-1.51,2.14-.44,1.06.65-.04s2.23-2.22.81-.26c-.79,1.21-1.64,2.38-2.55,3.5-1.1,1.43-2.3,3.03-3.2,4.42.96-1.07,1.02-.92.61-.17s-1.26,2.15-2.04,3.66c.42-.87.98-1.66,1.65-2.35.72-.88,1.38-1.82,1.97-2.8l.3.09c-1.44,1.82-2.75,3.75-3.92,5.76.15-.44-.16-.03.16-.68-1.06,1.93-1.91,3.97-2.53,6.09,0-.24.02-.47.03-.7-.35,1.01-.65,2.04-.88,3.09-.1.55-.23,1.09-.28,1.63-.03.27-.07.54-.1.81-.01.27-.04.53-.05.8-.12,1.76.05,3.54.5,5.25-.2-.77-.3-1.56-.28-2.35.02-.22.06-.3.1-.21.09.29.16.58.21.88.15.59.38,1.4.67,2.28.15.44.31.89.49,1.35l.27.68c.1.22.2.43.3.64.03.21.09.41.17.61.11.26.25.57.41.9.36.67.77,1.31,1.23,1.91.19.29.4.5.53.68.09.1.17.2.22.32,0,.04-.08,0-.28-.15-.33-.25-.63-.53-.9-.85.42.48.87.93,1.35,1.36.41.33.76.59,1.06.81.46.3.94.57,1.44.81.48.23.97.43,1.47.6.94.33,1.91.58,2.89.75-1.23-.22-2.43-.6-3.57-1.11-.15-.22.52-.09.82-.15.32-.07.22-.19-1.23-1.07.58.32,1.21.55,1.86.69.3.06.6.09.9.08.38.01.75.05,1.12.1.55.07,1.35.2,2.65.3,1.04.16.89.28.08.35-1.25.06-2.5-.07-3.7-.39,1.4.5,2.88.74,4.36.69.57.13-.15.22-1,.22s-1.82-.11-1.75-.05c1.38.24,1.38.16,1.35.12-.03-.06-.07-.09,1.24-.04,1.15-.01,1.9-.04,2.45-.02.43,0,.85.04,1.27.1,1.19.15,2.41.09,3.58-.18-.95.13-2.66.24-1.52-.02,5.84-.7,3.22-.66,7.39-1.49.71-.02,1.43.02,2.13.13,1.07.03,2.14-.1,3.17-.39-.69.2-1.41.32-2.11.49,1.6-.15,3.19-.46,4.73-.92.97-.29,1.9-.65,2.81-.99.91-.35,1.82-.66,2.68-1.04,1.74-.75,3.45-1.46,5.12-2.29,3.36-1.57,6.66-3.35,10.3-5.31-.86.49-1.74.92-2.62,1.38-.96.31,2.16-1.2,2.04-1.33l1.73-.68c.16-.24-.8.17-1.69.55s-1.72.68-1.29.33c.38-.13.74-.3,1.09-.51-.51.24-1.05.44-1.57.66.88-.39,1.69-.81,2.46-1.23s1.49-.83,2.19-1.22c1.3-.79,2.66-1.46,4.08-2-6.6,3.58-.59,1.32-7.1,4.8,3.44-1.87.76-.04,1.17-.12,1.87-.88.81-.65,2.91-1.62.05.22-4.32,2.63-2.28,1.76.08-.4,1.96-1.26,2.74-1.93,1.55-.73.06.2.77-.07.83-.47,1.26-.85,2.03-1.21l-.48.48c1.01-.37,1.95-.9,2.79-1.58.96-.78,2.01-1.45,3.12-1.98,0-.31-1.4.6-3.35,1.74-.64.02.81-.94,2.32-2.01,1.51-1.07,3.08-2.16,2.73-2.33,4.34-2.72-1.04.9,2.78-1.2,2.26-.91-2.54,2.03-3.36,2.81,1.35-.68,2.68-1.41,4.02-2.11-1.04,1.21-3.54,2.52-4.02,3.31,1.85-1.07,3.64-2.24,5.36-3.52-4.94,2.54,1.9-1.51-1.06-.29,1.64-.81,3.23-1.7,4.78-2.67-1.95,1.34.14.4-2.52,2.04,4.27-2.67,3.05-2.05,7.29-4.76,1.13-1.14-4.54,2.32.44-1.12,1.1-.7.96-.45.31-.04,3.72-2.19-.98.1,1.21-1.5,1.57-1.04,2.21-1.3,1.6-.81,2.28-1.69.83-1.05,2.37-2.12l-.75.42c.62-.52-1.51.24,1.91-1.96,2.5-1.61,1.82-.94,1.94-.87,1.53-1.1,3.14-2.1,4.81-2.98-.17.03-.06-.12.53-.51,3.22-2.23,2.05-.98,3.3-1.73,4.77-2.91-.94-.16,4.25-3.59l-6.11,3.86c.16-.31.15-.61-1.16.25.01.3-2.01,1.89-4.06,3.16-.75.13,5.25-3.8,1.67-1.87,1.25-.75,2.89-1.92,4.41-2.88-1.34,1.26,4.86-3.11,2.45-1.1,6.55-4.39,7.63-4.85,13.52-9.06-2.22,2.05-4.64,3.88-7.21,5.47l-.35.02c-3.82,2.78,3.18-1.86,2.63-1.13,4.58-3.63,10.86-6.96,16.68-11.1-1.13.56-.01-.31.14-.61-1.17.92-2.43,1.73-3.76,2.42.74-.69,1.52-1.34,2.33-1.94.48-.63-1.79,1.2-2.71,1.66,1.11-.79,2.17-1.66,3.17-2.59.76-.36,1.54-.67,2.34-.93,5.6-3.74,4.72-3.68,9.26-6.67-2.52,1.65,1.31-.58-1.44,1.19l1.52-1c-3.65,2.94-10.32,7.43-9.32,7.48,3.13-2.19,5.24-4.02,9.08-6.65l-.1.21c2.79-1.88-.12-.09.48-.63,3-2.28,4.35-2.27,6.27-4.1l-3.24,2.1c2.27-1.85-.73.45-.37-.27,4.11-3.16,11.6-8.05,17.49-12.45-1.61.87-3.16,1.84-4.65,2.91.73-1.15,1.69-1.71.32-1.33l-2.79,1.88-.32-.38c.75-.53,1.52-1.02,2.22-1.44.21-.52,4.27-2.81,4.29-3.19l-2.34,1.65c-1.31.59,1.49-1.3,3.1-2.51-1.76.82-5.13,3.54-8.47,5.86.35-.02-2.8,2.59.49.37.08.19-1.81,1.62-3.1,2.51.61-.54-2.83,1.28.11-.92-2.77,2.18-1.28.88-4.45,3.19.38-.43-5.64,3.86-5.51,3.24-.93.85.41.49-3.33,3.06,1.08-.37,5.28-3.19,2.66-1.01l1.71-1.41c2.69-1.67-.54.74,2.94-1.48-1.12.86-2.29,1.64-3.52,2.33,1.23-.08-4.89,3.71-4.8,4.2-1.32.65-2.56,1.43-3.71,2.33.16-.31-.97.25.42-.83,1.23-.78,2.07-1.42,3.48-2.21-1.09-.02-4.96,3.13-8.16,5.13.47-.25.62-.29-.19.37-1.96,1.21-6.23,3.95-5.19,2.89l-9.59,6.5c-.12-.09,1.34-.97,1.91-1.4l-5.4,3.56c-1.37.66,1.73-1.38,2.16-1.9l-3.88,2.58.44-.52c-2.08,1.58-4.29,2.99-6.61,4.19-4.23,2.87-3.8,3.36-9.77,6.87.04-.4,3.23-2.22,4.46-3.26-1.2.64-4.53,3.06-5.28,3.18-4.08,2.82-3.32,3.01-5.18,4.56-3.42,2.19-.52.01-.7.02-1.02.63-2.37,2.16-3.52,2.38-1.53,1.23-2.33,2.05.2.6-1.64,1.01-3.22,2.1-4.74,3.28,1.24-1.31-2.19,1.14-2.59.92-1.42.8-3.67,2.1-5.89,3.41-1.1.67-2.21,1.3-3.18,1.91s-1.82,1.17-2.42,1.64l.55-.87-3.29,1.82c-1.32.49-.61.06.61-.64s2.99-1.64,3.8-2.13c-4.5,2.4-7.51,3.98-11.64,5.92,1.25-.47.58-.04,1.22-.17-1.57.86-3.18,1.63-4.84,2.3-.41.04-.27-.13.88-.69-.94.46-1.91.86-2.86,1.27.11-.39-1.29.18,1.48-1.16l-2.63,1.17c-1.49.56-1.48.46-1.01.22.47-.26,1.39-.7,1.73-.91-.78.3-1.55.62-2.34.89l-2.35.83c-.81.39-.55.37-.48.4s-.06.16-1.69.71c-2.23.59-4.75,1.26-7.35,1.86-2.6.61-5.22,1.08-7.87,1.4,1.21-.02,2.42-.18,3.64-.28-.86.06-1.7.28-2.47.65-.33.19-.39.37-.86.54-1.44.14-3.15.39-4.74.46-1.39.09-2.78.04-4.16-.15,1.26-.02,1.65-.19,1.41-.34-.69-.26-1.41-.45-2.14-.59-.84-.13-1.67-.31-2.49-.54-.53-.16-.87-.24-1.17-.3-.28-.05-.56-.12-.83-.22-.15-.06-.31-.12-.51-.21s-.4-.25-.65-.43c.48.18.56.14.45-.02-.09-.11-.19-.22-.3-.31-.13-.14-.27-.31-.44-.47-.64-.68-1.28-1.67-1.02-1.57-1.58-2.65-2.27-5.74-1.96-8.81.16-1.65.55-3.27,1.15-4.82.63-1.67,1.43-3.27,2.37-4.78-.17.07-1.29,1.84-.73.68.47-.92,1.04-1.78,1.7-2.58.28-.36.6-.68.95-.97,2.08-2.94,3.38-4.7,4.03-5.77-1,1.28-1.17,1.34-1.1,1,.66-.85,1.39-1.64,2.17-2.37.73-.72,1.39-1.5,1.98-2.33.44-.24-.19.52-.86,1.35s-1.38,1.71-1.14,1.69c2.17-2.49,3.47-4.1,5-5.97.52-.25-1.48,1.65-.1.44,3.38-3.84,7.69-8.27,10.51-10.89l.96-.47c1.84-1.64,3.06-2.72,3.85-3.54,1.1-.76.34-.05-.62.8,2.54-2.1,5.62-4.74,7.11-5.88-.14.31-1.48,1.15-1.83,1.59.41-.3.83-.61,1.24-.94l.63-.5c.2-.15.38-.3.57-.44.7-.54,1.46-1.01,2.25-1.41.31-.16.64-.28.98-.37.2-.06.4-.09.61-.09.3,0,.58.13.76.36l.03.06s-.04-.01-.06-.02c-.1-.03-.19-.07-.29-.11.09.04.19.09.28.14.18.13.33.31.44.51.02.04.05.09.06.13.04.09.07.17.1.26.06.21.12.42.15.64.09.51.12,1.03.12,1.55,0,.27-.03.59-.05.9l-.07.93c-.29,2.65-1.04,5.22-2.21,7.61-.32.63-.64,1.09-.87,1.48s-.4.68-.52.91c-.18.28-.31.59-.4.91-.14.45-.16.96-1.96,3.22-.31-.22-1.54,1.29-3.07,2.98-1.36,1.53-2.84,2.96-4.41,4.28l.67-.43c-2.16,2.12-4.6,3.93-7.25,5.38-1.85,1.28-4.19,2.83-6.53,4.37s-4.72,3.03-6.6,4.3l.69-.59c-3.12,2.03-5.28,2.93-8.5,4.8.06-.1,1.26-.8-.05-.2-4.02,1.98-8.11,3.85-12.27,5.58-1.04.44-2.09.85-3.14,1.28s-2.07.81-3.12,1.18c-2.09.74-4.21,1.39-6.34,1.94-4.24,1.13-8.59,1.75-12.97,1.87-4.22.14-8.43-.6-12.34-2.2-3.66-1.58-6.75-4.22-8.87-7.59-2.17-3.59-3.25-7.74-3.12-11.93.03-2.22.27-4.43.7-6.6.46-2.24,1.06-4.45,1.8-6.61,1.56-4.43,3.51-8.71,5.83-12.79,2.33-4.19,4.82-8.28,7.42-12.25s5.35-7.78,8.22-11.4c1.41-1.83,2.91-3.56,4.38-5.3.75-.84,1.5-1.68,2.26-2.52.74-.84,1.54-1.62,2.29-2.43,2.98-3.12,6.14-6.07,9.46-8.83,0,0,.16-.2.44-.54s.66-.84,1.16-1.39c.49-.57,1.06-1.22,1.65-1.92.3-.35.6-.72.92-1.08s.64-.71.97-1.07c.64-.72,1.26-1.44,1.81-2.11s1.08-1.25,1.46-1.77c.76-1.02,1.03-1.7.33-1.65l-.04.02Z" fill="#b133d0" stroke="#a33dc9" stroke-miterlimit="4" stroke-width="1"/>
  <path id="Path_5541" data-name="Path 5541" d="m145.93,83.42c-.14.08-.27.15-.42.25.16-.09.29-.17.42-.25Z" fill="#b133d0" stroke="#a33dc9" stroke-miterlimit="4" stroke-width="1"/>
  <path id="Path_5542" data-name="Path 5542" d="m70.85,109.71c.35.14.71.26,1.08.36-.35-.12-.71-.23-1.08-.36Z" fill="#b133d0" stroke="#a33dc9" stroke-miterlimit="4" stroke-width="1"/>
  <path id="Path_5543" data-name="Path 5543" d="m91.33,54.01c-.37.33-.73.65-1.09.98.47-.42.81-.73,1.09-.98Z" fill="#b133d0" stroke="#a33dc9" stroke-miterlimit="4" stroke-width="1"/>
  <path id="Path_5544" data-name="Path 5544" d="m57.58,102.12c.6-.02-1.94,1.46.44.68,4.06-1.68,4.81-2.3,5.61-2.88.51-.39,1.05-.74,1.61-1.05.82-.46,2.04-1.09,4.06-2.08-1.4.6-2.81,1.2-4.22,1.77.38.24-2.42,1.82-5.65,3.21l-1.1.16c.52-.3,1.09-.62,1.68-.94-1.23.49-.91.6-2.42,1.14h0Z" fill="#b133d0" stroke="#a33dc9" stroke-miterlimit="4" stroke-width="1"/>
  <path id="Path_5545" data-name="Path 5545" d="m60.31,100.86c-.06.02-.14.05-.2.07-.03.01-.07.04-.1.05.1-.04.19-.08.3-.12Z" fill="#b133d0" stroke="#a33dc9" stroke-miterlimit="4" stroke-width="1"/>
</svg>