<?xml version="1.0" encoding="UTF-8"?>
<svg id="creative" xmlns="http://www.w3.org/2000/svg" viewBox="0 0 150.88 77.55">
  <path id="Path_5496" data-name="Path 5496" d="m111.21,69.25c.08-.13.12-.15.14-.15.05-.11.11-.22.16-.33-.1.16-.2.32-.3.49Z" fill="#00e1b9" stroke="#66debb" stroke-miterlimit="4" stroke-width="1"/>
  <path id="Path_5497" data-name="Path 5497" d="m133.14,63.74s.03-.02.05-.03c-.06.02-.12.04-.18.04-.02.05.02.04.13,0h0Z" fill="#00e1b9" stroke="#66debb" stroke-miterlimit="4" stroke-width="1"/>
  <path id="Path_5498" data-name="Path 5498" d="m125.63,68.89c-.15.07-.29.13-.42.19.15-.04.29-.1.42-.19Z" fill="#00e1b9" stroke="#66debb" stroke-miterlimit="4" stroke-width="1"/>
  <path id="Path_5499" data-name="Path 5499" d="m109.96,73.57c0-.36.04-.72.11-1.08-.05.12-.09.25-.11.38-.03.23-.03.47,0,.7Z" fill="#00e1b9" stroke="#66debb" stroke-miterlimit="4" stroke-width="1"/>
  <path id="Path_5500" data-name="Path 5500" d="m126.72,68.32c-.29.15-.74.4-1.08.57.34-.16.7-.36,1.08-.57Z" fill="#00e1b9" stroke="#66debb" stroke-miterlimit="4" stroke-width="1"/>
  <path id="Path_5501" data-name="Path 5501" d="m147.7,54.71c-.22.11-.46.23-.72.38,0,.02-.04.05-.03.07l.75-.44Z" fill="#00e1b9" stroke="#66debb" stroke-miterlimit="4" stroke-width="1"/>
  <path id="Path_5502" data-name="Path 5502" d="m2.41,62.88c.47-.65.52-.78.4-.72-.12.25-.25.49-.4.72Z" fill="#00e1b9" stroke="#66debb" stroke-miterlimit="4" stroke-width="1"/>
  <path id="Path_5503" data-name="Path 5503" d="m15.32,48.15c-.1.11-.19.22-.26.33.2-.23.33-.38.26-.33Z" fill="#00e1b9" stroke="#66debb" stroke-miterlimit="4" stroke-width="1"/>
  <path id="Path_5504" data-name="Path 5504" d="m6.99,55.83c-.05,0-.11.03-.15.07-.03.07,0,.06.15-.07Z" fill="#00e1b9" stroke="#66debb" stroke-miterlimit="4" stroke-width="1"/>
  <path id="Path_5505" data-name="Path 5505" d="m78.1,39.98l.28-.39c-.11.12-.2.25-.28.39Z" fill="#00e1b9" stroke="#66debb" stroke-miterlimit="4" stroke-width="1"/>
  <path id="Path_5506" data-name="Path 5506" d="m67.77,63.49c-.03.08-.04.14-.07.22.02-.07.04-.14.07-.22Z" fill="#00e1b9" stroke="#66debb" stroke-miterlimit="4" stroke-width="1"/>
  <path id="Path_5507" data-name="Path 5507" d="m67.61,64.02c.04-.11.07-.21.1-.31-.03.08-.06.17-.07.23-.01.03-.02.05-.02.08h0Z" fill="#00e1b9" stroke="#66debb" stroke-miterlimit="4" stroke-width="1"/>
  <path id="Path_5508" data-name="Path 5508" d="m148.59,54.56c.62-.43,1.21-.9,1.76-1.42l-2.65,1.57c.99-.49,1.54-.66.89-.15Z" fill="#00e1b9" stroke="#66debb" stroke-miterlimit="4" stroke-width="1"/>
  <path id="Path_5509" data-name="Path 5509" d="m71.89,10.19c.9-.39,1.35-.6,1.57-.72-.54.24-1.1.5-1.61.73l.05-.02h0Z" fill="#00e1b9" stroke="#66debb" stroke-miterlimit="4" stroke-width="1"/>
  <path id="Path_5510" data-name="Path 5510" d="m88.01,6.68s0-.05,0-.07v.11s0-.04,0-.04h0Z" fill="#00e1b9" stroke="#66debb" stroke-miterlimit="4" stroke-width="1"/>
  <path id="Path_5511" data-name="Path 5511" d="m70.34,11.02c-.09.06-.17.12-.25.19.34-.16.35-.19.25-.19Z" fill="#00e1b9" stroke="#66debb" stroke-miterlimit="4" stroke-width="1"/>
  <path id="Path_5512" data-name="Path 5512" d="m113.45,64.68l.22-.38c-.1.17-.17.29-.22.38Z" fill="#00e1b9" stroke="#66debb" stroke-miterlimit="4" stroke-width="1"/>
  <path id="Path_5513" data-name="Path 5513" d="m88.17,5.52c-.01.39-.06.78-.15,1.17.02.17.04.35.04.59.06.13.14-.19.18-.6.04-.39.01-.77-.07-1.15h0Z" fill="#00e1b9" stroke="#66debb" stroke-miterlimit="4" stroke-width="1"/>
  <path id="Path_5514" data-name="Path 5514" d="m70.33,11.02c.48-.32.98-.59,1.51-.82-.26.07-.53.14-.79.22-1.8.84-.93.6-.71.6h0Z" fill="#00e1b9" stroke="#66debb" stroke-miterlimit="4" stroke-width="1"/>
  <path id="Path_5515" data-name="Path 5515" d="m.9,63.88c.66-.67-1.2,1.99.04.5l.99-1.66c-.11.32.68-.45.89-.56.3-.75-1.82,1.7-.67-.27.55-.89,1.17-1.72,1.86-2.5-1.23,1.51-.15-.19.31-.82.85-.85,2.05-2.34,2.52-2.67.32-.49.68-.94,1.08-1.37h.1c.9-1.11-.38.31-.19,0,.66-.8,1.89-1.87,3.01-3.13-1.13,1.26-2,2.35-2.74,3.31,1.07-1.1,1.06-.92.73-.41s-.93,1.42-1.08,1.73c.37-.49.69-.9.98-1.27s.54-.69.79-1c.49-.63.94-1.22,1.57-2.01,1.77-1.7.28.52-.11.99.71-.86,1.41-1.77,2.03-2.57.64-.79,1.2-1.47,1.6-1.93-.95,1.4-.69,1.24-1.54,2.5.78-.64,1.45-1.4,1.98-2.26-.31.37-.65.72-1.03,1.03,1.51-1.5.92-1.56,1.56-2.5.6-.51,1.42-1.31,2.13-1.91s1.28-1.01,1.3-.84l-.22-.2c1.29-1.32.8-.55,1.07-.68.36-.62-.46-.23,1.75-2.43-.06.65,2.1-1.82,2.32-1.44,1.07-.98,1.41-1.6,2.58-2.56,1.41-.92-1.34,1.95-2.07,2.49-1.56,1.39.08-.33-.55.23l-1.42,1.42c.9-.67,2.61-2.04,2.54-1.72,1.47-1.41-1.37.93.24-.63l1.08-.81c.8-.78.66-.76.59-.8s-.09-.14,1.02-1.08c-1.38,1.39,2.45-2,2.51-1.65.54-.75,1.21-1.39,1.99-1.88.86-.58,1.65-1.25,2.37-2l-1.29.87.38-.07c-.66.51-1.26,1-1.86,1.49-.59.51-1.19,1.01-1.88,1.53.97-.97-.57.04.58-1.06.33-.33.67-.64,1.03-.93.18-.13.22-.11.19-.05-.05.13-.32.5-.16.37.58-.54,1.17-1.07,1.76-1.61l-1.39.85c.72-.59,1.57-1.27,2.51-1.99.47-.36.96-.73,1.45-1.11.25-.19.5-.38.76-.57l.78-.55c3.22-1.99-.25.44,2.08-.94.64-.6,1.33-1.15,2.06-1.64-.65.41-1.27.86-1.86,1.35-.82.28,2.45-1.86,2.18-1.96.64-.31.58-.15.18.23,1.8-1.37,3.74-2.53,5.8-3.47l.91-.89c4.29-2.46-2.75,1.97.91,0,1.21-.67,2.38-1.41,3.5-2.22l-1.28.75c.7-.67,1.46-1.26,2.29-1.77,1.15-.6.64-.09,1.92-.99,3.53-1.76,1.27-.18.86.37,2.58-1.25-.99,1.2.64.15l-.48.19,1.2-.89c.4-.3.8-.6,1.22-.87-.43.14-.85.33-1.25.56-.21.13-.27.2-.28.25-.02.1.14.1-.42.22l-1.46.78c.66-.47,1.35-.89,2.07-1.27l.68-.39c.22-.12.43-.24.61-.34.25-.12.47-.27.68-.45.03.04,0,.15-.26.36-.46.34-.95.65-1.46.92.36-.06.72-.12,1.08-.16.62-.4,1.27-.74,1.95-1.03,1.43-.45-1.76,1.31,1.53-.24.88-.42,1.51-.76,2-1.04s.86-.48,1.18-.69c.75-.5,1.54-.92,2.37-1.28-.56.17-1.11.39-1.63.66.73-.47-.69.07.59-.63,1.82-.61,3.61-1.31,5.36-2.12-.46.34.85-.07.27.26.79-.32,1.55-.71,2.27-1.15-4.08,1.49,3.81-1.8.6-.74.39-.16.75-.3,1.08-.41s.62-.21.89-.3c.54-.18.99-.31,1.4-.42.82-.23,1.5-.39,2.5-.69-.1.12-3.59,1.51-.75.56,1.57-.73,1.39-.76,1.13-.76-.13,0-.29,0-.26-.07.05-.07.12-.13.2-.18.2-.12.4-.24.62-.33-.3.08-.67.21-1.01.32l-1.03.34c-.19-.1.69-.45,1.68-.8.69-.22,1.39-.41,2.1-.55.54-.04.17.03-.2.14s-.75.28-.19.25c.57-.12,1.15-.18,1.73-.18.39.01.63.08.75.25-.11-.01-.22,0-.33.02-.02,0-.06.01-.12.02s-.15.02-.34.04c.17.01.34.06.5.13.02.02.05.04.07.05.01.01.02.03.03.05.03.04,0,.06-.05.09-.09.05-.13.1-.07.29.06.06.12.1.19.14.05.07.14.11.13.68.1-.22.15-.45.17-.69,0-.12-.02-.23-.06-.34-.05-.14-.15-.25-.28-.32.05-.02.1-.01.16,0,.04.03.11.05.15.1.12.14.19.31.21.5.06.8.03,1.61-.09,2.41.13-.69.16-.8.18-.92.04-.3.05-.6.02-.89.14-.09.2-.24.28-.25.07,0,.2.12.29.8.04-.55-.1-1.11-.4-1.57-.11-.15-.24-.28-.39-.39-.2-.15-.43-.26-.67-.33-.09-.09,0-.13.14-.13.2,0,.4.06.58.16.2.11.38.25.53.41.14.15.26.29.35.27.15.29.24.62.24.95.02.5-.01,1-.11,1.49-.05.27-.11.55-.18.82l-.24.82c-.16.52-.31.99-.42,1.34-.05.33-.11.66-.16,1.01-.05.35-.12.69-.21,1.04l-.55,2.07c-.32,1.37-.74,2.64-.93,3.66-1.21,3.28-2.58,6.49-4.11,9.63-.4.43-2.13,3.99-1.27,1.89-.08.31-1.48,3.04-.98,2.4.18-.41.37-.8.6-1.18l-.09.62c-.9,1.54-1.6,3.43-2.53,4.87-.41.42,1.43-2.88.71-1.96-1.37,3.23-2.93,6.37-4.68,9.4-.4.63-.83,1.24-1.31,1.81l-1.07,2.17c-.21.17-.42.36-.61.56-.43.82-.8,1.66-1.11,2.53-.75,1.4-.98,1.7-.98,1.45.13-.62.31-1.23.54-1.82l.84-1.59c.46-1.24,1.36-2.88.66-2-.19.36-.32.75-.38,1.15-.2.29-.38.6-.58.89-.36,1.01-1.57,3.69-1.25,3.49-.48.97-.93,2.04-1.37,3.09s-.78,2.1-1.2,2.97c.57-1.2.06.4.32.08l.85-2.14c-.29.87-.66,1.94-1.01,3-.19.52-.33,1.06-.5,1.56s-.32.97-.47,1.37c-.02-.12-.04-.2-.09-.14-.05.06-.09.12-.12.19l-.1.19-.06.12s-.02.04-.03.07-.03.07-.04.1c.02-.06.05-.12.09-.18.02-.03.03-.05.04-.05s.01.06,0,.17c-.05.27-.17.74-.25,1.16-.06.25-.08.5-.07.76.01.01.05-.05.11-.23.03-.09.06-.2.1-.34l.18-.53c.03-.16.08-.31.12-.46l.11-.42c.06-.24.13-.48.2-.73.14-.5.3-1.02.5-1.64.49-.73-.09,1.21-.28,2.33-.05.19-.11.4-.17.62s-.14.51-.21.79l-.33,1.75c-.11.6-.23,1.21-.34,1.81l-.16.85c-.03.05.05.02.07.02h.11c.08-.02.15-.03.22-.03.14-.01.29-.03.43-.04.31,0,.56,0,.8,0s.46.02.72.01.57-.05.95-.11c.49-.1.97-.23,1.45-.4-.74.13-.91.12-.77.03.13-.07.27-.13.41-.19.2-.08.44-.17.7-.29s.54-.24.82-.36c.25-.13.51-.27.75-.39.34-.18.66-.39.96-.63.41-.18.81-.38,1.2-.61.35-.22.68-.43.98-.64.6-.44,1.23-.83,1.89-1.18-.3.26-1.09.81-1.88,1.33-.4.26-.8.51-1.14.73-.27.16-.53.34-.78.53,0,.1.2.13.06.31-.15.16-.33.3-.52.41-.19.12-.39.23-.59.33-.13.06-.26.12-.41.19-.17.08-.34.14-.52.2.14-.04.25-.09.35-.12s.2-.08.28-.11c.18-.07.34-.14.49-.2.29-.12.51-.24.7-.33.23-.1.45-.24.65-.39.29-.27.61-.51.95-.71-.35.22-.73.41-1.09.62.47-.33-.53.05.44-.47.48-.24.89-.48,1.27-.69s.71-.41,1.02-.59l1.57-.94c.92-.55,1.71-1,2.91-1.78-.58.28.38-.6.9-1.01,2.26-1.52.2.32,1.68-.49.65-.71,2.16-1.78,1.58-1.51.34-.26.71-.49,1.1-.67.68-.74,1.44-1.4,2.27-1.96-.06.14-.17.35-1.35,1.17,1.33-.9,1.96-1.03,1.49-.5-.72.48-1.44.98-2.16,1.48-.85.85,2-1.4,2.02-1.19-.91.71-1.66,1.15-2.22,1.62.57-.31,1.1-.68,1.59-1.1.65-.51,1.34-1.07,1.87-1.47,1.71-1.2,1.2-.6,1.28-.54,1.35-1.16.47-.63-.43-.08s-1.83,1.13-.58.04c1.69-1.45,3.45-2.8,5.29-4.05-1.71.9-.03-.42,1.82-1.79-2.47,1.7-.8.19-3.59,2.35l-.17-.12c1.23-.87,2.74-1.81,3.98-2.66-.23.22.08.06-.3.37,1.21-.88,2.43-1.72,3.65-2.59l-.31.36c2.3-1.52,5.22-3.24,6.57-4.18-1.11.73-2.18,1.2-1.04.39.92-.73,1.89-1.41,2.89-2.03.68-.16,4.71-2.67,2.28-.89,1.61-1.07,2.12-1.41,2.6-1.76s.94-.68,2.5-1.69l-2.1,1.33c-.36,0,1.24-1.33-.85-.19,2.33-1.55.64-.9,3.84-2.86,1.37-.67-.21.54-1.99,1.66.92-.48,1.82-1.01,2.68-1.6.76-.28-1.59,1.24-1.46,1.24,1.66-.98-.08-.07,1.46-1.03,2.64-1.78,1.9-.76,4.48-2.39-.57.34-1.63.87-.97.4,3.55-2.03,1.89-1.28,4.44-2.82.47-.18.96-.28,1.46-.31.24-.03.48-.08.71-.14.32-.07.75-.2,1.37-.3-.47.09-.93.22-1.37.39.97-.29,1.98-.36,2.98-.2.57.11,1.08.39,1.48.81.39.43.65.96.73,1.54.09.61.08,1.23-.04,1.83-.11.62-.28,1.23-.49,1.83-.22.6-.49,1.19-.78,1.76-.3.57-.64,1.14-.98,1.72-.67,1.15-1.37,2.34-2.11,3.57l1.07-1.76c.46-.53-.85,1.5-.75,1.53l-.8,1.02c-.03.4,1.74-2.33,1.47-1.58-.17.22-.33.45-.47.7l.7-.96c-1.52,2.22-2.41,4.19-3.77,5.72,2.84-4.41-.03-.98,2.7-5.33-1.43,2.32-.44.29-.66.48-.82,1.18-.26.67-1.19,1.98-.09-.11,1.7-3.08.77-1.84.08.26-.74,1.44-1,2.1-.7.96-.1-.1-.44.3-.35.56-.49.93-.84,1.42l.14-.45c-1.97,2.67-.38.96-2.5,4.08.09.19.69-.81,1.52-2.14.76-.46-2.31,4.3-1.79,4.26-1.9,3.02.38-.88-1.37,1.61-1.14,1.26.99-2.03,1.26-2.78l-1.86,2.55c.29-1.07,1.46-2.64,1.51-3.28-1.3,1.95-1.08,1.76-2.28,3.82,2.32-3.08-.74,1.52.74-.14-1.05,1.44-.8.94-2.21,3.1.84-1.42-.19-.21.99-2.03-1.89,2.94-1.31,2.19-3.2,5.13-.4,1.04,2.19-2.79.04.83-.5.76-.47.56-.18.12-1.72,2.46.59-.35-.35,1.29-.69,1.11-1.03,1.46-.78.97-.97,1.72-.24.9-.91,2.02l.35-.48c-.12.25.09.11.15.19s-.06.41-.79,1.58c-.23.42-.49.82-.79,1.19-.08.06-.06-.08-.11-.09-.56,1.08-.99,2.22-1.28,3.41.06-.09.09.03.06.45,0,.4.03.79.1,1.18.03.15.04.3.04.45-.01.16-.11.16.05.59.12.3.27.59.46.86.07.09.13.16.18.22.04.04.09.08.13.12.14.11.16.03.18-.03s.07-.11.25,0c.09.05.21.15.41.26.25.16.51.28.8.36-1.2-.5-2.05-1.6-2.21-2.9.07.07.16.12.2.04s.03-.27,0-.66c-.08-.07-.13-.16-.14-.27-.02-.08-.03-.17-.05-.28s-.01-.24-.01-.39c.04-.69.2-1.37.49-2,.18-.16-.18.8-.25,1.49-.05.22-.05.45-.02.68.03.05.07-.12.25-.66-.12.43-.16.87-.14,1.32.03.46.14.92.3,1.36-.14-.19-.14-.12-.08.08.09.28.23.54.39.78.14.2.28.38.44.56.07.09,0,.1-.3-.14.27.31.62.55,1,.7.3.11.62.15.93.13.64-.07,1.25-.27,1.81-.59.59-.31,1.22-.71,1.96-1.17s1.57-1.01,2.62-1.7c-.58.53-1.2,1.01-1.84,1.46-.48.35-1.03.73-1.59,1.1-.52.36-1.07.65-1.65.89-.07-.01-.14-.03-.22-.04-.62.26-.8.28-.74.3.26,0,.52-.06.77-.16.79-.24,1.91-.9,1.72-.66,3.26-2.4,7.72-4.58,11.88-7.29-.8.36,0-.21.12-.41-.85.6-1.74,1.13-2.68,1.58.53-.46,1.09-.88,1.68-1.27.36-.42-1.28.79-1.93,1.08.8-.52,1.56-1.09,2.28-1.7.54-.23,1.09-.43,1.65-.59,4-2.43,3.4-2.41,6.64-4.35-1.8,1.07.93-.37-1.04.78l1.08-.65c-2.64,1.92-7.4,4.85-6.72,4.9,2.24-1.43,3.76-2.63,6.52-4.34l-.08.13c2.01-1.22-.08-.06.35-.42,2.16-1.5,3.09-1.46,4.49-2.65l-2.32,1.36c1.64-1.21-.52.29-.25-.19,2.96-2.06,8.33-5.22,12.57-8.07-1.14.56-2.25,1.18-3.32,1.87.55-.76,1.24-1.13.27-.9l-2,1.22-.2-.27c.54-.34,1.09-.66,1.59-.93.17-.35,3.06-1.81,3.09-2.07l-1.68,1.07c-.92.37,1.08-.85,2.24-1.64-1.25.51-3.68,2.29-6.09,3.79.24,0-2.04,1.7.32.26-.68.64-1.43,1.19-2.24,1.64.44-.35-2.01.81.12-.62-2,1.42-.92.57-3.2,2.07.28-.28-4.05,2.51-3.93,2.09-.67.56.26.34-2.42,2.01.76-.23,3.78-2.06,1.87-.63l1.24-.92c1.92-1.08-.4.49,2.09-.95-.8.56-1.65,1.07-2.52,1.5.85-.03-3.52,2.42-3.48,2.76-.93.41-1.82.92-2.66,1.51.12-.21-.68.15.32-.56.89-.5,1.48-.93,2.48-1.44-.75-.03-3.55,2.03-5.83,3.34.33-.16.44-.18-.14.25-1.4.79-4.44,2.58-3.69,1.88l-6.85,4.29c.43-.34.89-.65,1.37-.92l-1.89,1.16c-.48.31-.99.55-1.53.74-.16,0-.18,0-.13-.05.11-.06.22-.12.33-.17.36-.17.69-.38.99-.64-.34.21-.7.39-1.08.54-.23.1-.47.15-.72.17.05-.04.1-.09.14-.14-.09.04-.19.05-.29.05-.14,0-.27-.06-.38-.15-.18-.14-.33-.32-.43-.52-.1-.17-.15-.36-.16-.56-.15-.34-.26-.7-.32-1.07,0-.07-.02-.13-.03-.21s-.01-.17-.01-.25c0-.17,0-.34.02-.52.2-1.27.73-2.46,1.54-3.45-.13.45-.33.89-.59,1.28-.3.52-.52,1.09-.65,1.67.22-.57.47-1.12.75-1.66.26-.54.6-1.03,1.01-1.47.42-.71.74-1.27.95-1.7.17-.33.31-.66.43-1.01.16-.56.36-1.11.61-1.64,1.54-2.38.32-.16.43-.22.47-.69.89-2.05,1.54-2.53.62-1.23.88-1.97-.28-.32.75-1.11,1.43-2.27,2.05-3.47-.4,1.19,1.04-1.37,1.35-1.37,1.83-2.56,3.5-5.24,4.99-8.02l-.06.71,1.42-2.25c1.26-1.55-1.1,2.08-1.81,3.2,2-3,3.3-5.03,5.08-7.75-.58.75-.33.24-.67.57.29-.56.62-1.1.97-1.63.19-.28.37-.56.55-.83.2-.3.39-.61.53-.9.23-.24.23-.05-.29.84.45-.73.84-1.48,1.18-2.26.06.14.21-.09.24-.04.02.02,0,.12-.09.35-.15.41-.32.8-.51,1.19.38-.72.7-1.47.97-2.24.25-.64.36-.99.41-1.09s.04.03,0,.27c-.12.56-.28,1.11-.47,1.66.31-.69.56-1.39.75-2.12.22-.83.32-1.69.31-2.54-.13-1.03-.18-.73-.2-.67-.02.03-.03,0-.11-.29-.04-.15-.08-.35-.18-.66-.14-.42-.32-.82-.54-1.2-.37-.68-.87-1.28-1.48-1.75-.64-.49-1.38-.85-2.17-1.04-.74-.17-1.5-.22-2.26-.13-.66.07-1.31.22-1.94.42-.57.19-1.12.41-1.66.67-.26.12-.51.25-.76.38l-.69.38-2.56,1.4,2.43-1.13c-.83.3-1.53.87-2,1.62-.93.51-2.01,1.12-3.05,1.7s-2.05,1.17-2.85,1.58c1.68-1.17.83-.97-.89-.12-3.71,2.18-2.6,1.96-4.59,3.31.68-.66.03-.31-.77.17s-1.73,1.08-1.61.87c-4.63,2.9-9.13,6.05-13.77,9.25.12-.01,1.49-.88.71-.26-.87.7-1.83,1.29-2.85,1.75-1.4.98-2.73,2.04-3.99,3.2.92-.71,1.04-.72.93-.51-2.15,1.59-1.7.94-3.64,2.59-.67.21,2.21-1.76,1.88-1.79-1.92,1.38-3.05,2.34-4.36,3.46-.4.12,1.25-.98.13-.29-1.43,1.13-3.01,2.43-4.45,3.6s-2.8,2.22-3.87,2.95l-.69.21c-1.39.87-2.31,1.35-2.94,1.73-.41.13-.46.12-.32.03.07-.04.19-.1.33-.17s.32-.17.5-.26c-.24.11-.48.24-.74.34l-.69.3c-.16.07-.34.15-.52.22-.31.12-.64.21-.97.25.2-.14.46-.07.64-.2-.21.02-.45.07-.73.1.02-.22.04-.45.06-.66.02-.24.06-.47.12-.7.02-.06.04-.13.06-.19.05-.14.09-.28.14-.41.1-.26.19-.51.29-.72-.05.25-.11.5-.19.75,1.18-4.02,2.66-7.95,4.44-11.74.51-.79.91-1.66,1.17-2.56.21-.91.56-1.78,1.06-2.57.45.21,2.7-5.09,3.65-6.63l-.34.47c.9-1.97,1.96-3.86,3.17-5.66,1.82-3.28,3.43-6.66,4.84-10.13l-.17.62.7-1.71c.23-.53.43-1.03.65-1.53s.44-.99.64-1.53.39-1.12.6-1.76c.01.08-.28,1.05.12.08l.43-1.13c.14-.38.3-.75.42-1.14.25-.78.49-1.56.74-2.33l.37-1.17.3-1.19.58-2.41c.22-.87.36-1.75.41-2.64.08-1.07-.08-2.15-.47-3.16-.24-.58-.58-1.1-1-1.55-.43-.45-.95-.82-1.51-1.09-.53-.24-1.1-.4-1.68-.48-.52-.07-1.04-.08-1.56-.04-1.75.21-3.47.68-5.08,1.4-1.5.58-3.01,1.15-4.51,1.72-1.49.61-2.96,1.25-4.44,1.86-.74.31-1.48.61-2.21.93s-1.45.66-2.17,1c-5.85,2.62-11.55,5.58-17.06,8.84-5.84,3.42-11.48,7.19-16.87,11.29l-2.04,1.55-1.02.78-.99.81c-1.31,1.08-2.62,2.16-3.93,3.23-2.53,2.24-5.08,4.43-7.43,6.75-2.42,2.25-4.64,4.63-6.84,6.92-1.07,1.17-2.1,2.36-3.13,3.51-.51.58-1.03,1.15-1.52,1.73l-1.43,1.75s-.35.63-.87,1.56-1.18,2.14-1.72,3.38c-1.08,2.42-1.96,4.75-1.1,4.35Z" fill="#00e1b9" stroke="#66debb" stroke-miterlimit="4" stroke-width="1"/>
  <path id="Path_5516" data-name="Path 5516" d="m114.58,62.41c.06-.09.12-.17.2-.28-.08.1-.14.19-.2.28Z" fill="#00e1b9" stroke="#66debb" stroke-miterlimit="4" stroke-width="1"/>
  <path id="Path_5517" data-name="Path 5517" d="m112.76,38.09c.23-.13.46-.28.68-.42-.23.13-.46.27-.68.42Z" fill="#00e1b9" stroke="#66debb" stroke-miterlimit="4" stroke-width="1"/>
  <path id="Path_5518" data-name="Path 5518" d="m73.18,66.06c.29-.18.6-.35.88-.54-.38.24-.66.4-.88.54Z" fill="#00e1b9" stroke="#66debb" stroke-miterlimit="4" stroke-width="1"/>
  <path id="Path_5519" data-name="Path 5519" d="m87.8,8.62c-.12.17-.12-.24-.17-.48-.03-.12-.06-.19-.12-.15-.04.05-.08.11-.1.17-.04.1-.1.24-.16.44-.37,1.34-.62,2.72-.75,4.11-.03.43-.1.85-.2,1.27-.07.31-.16.68-.3,1.16-.07.24-.14.51-.24.8l-.36.96c.43-.94.77-1.9,1.13-2.87-.31.08.26-2,.73-4.29l.35-.65c-.04.4-.1.83-.16,1.27.23-.86.04-.73.35-1.76h0Z" fill="#00e1b9" stroke="#66debb" stroke-miterlimit="4" stroke-width="1"/>
  <path id="Path_5520" data-name="Path 5520" d="m87.39,10.59s.03-.1.05-.14v-.07s-.05.21-.05.21h0Z" fill="#00e1b9" stroke="#66debb" stroke-miterlimit="4" stroke-width="1"/>
</svg>