<?xml version="1.0" encoding="UTF-8"?>
<svg id="creative" xmlns="http://www.w3.org/2000/svg" viewBox="0 0 89.64 92.6">
  <path id="Path_4845" data-name="Path 4845" d="m41.77,7.84c-.11-.2-.03.06,0,.31v-.31Z" fill="#b133d0" stroke="#a33dc9"/>
  <path id="Path_4847" data-name="Path 4847" d="m41.8,10.26c-.03-.45-.09-.9-.17-1.35-.06.46,0,.92.17,1.35Z" fill="#b133d0" stroke="#a33dc9"/>
  <path id="Path_4848" data-name="Path 4848" d="m41.85,9.53l-.08-.06.14.42-.06-.36Z" fill="#b133d0" stroke="#a33dc9"/>
  <path id="Path_4849" data-name="Path 4849" d="m41.88,9.22l-.03.08.11.65-.08-.73Z" fill="#b133d0" stroke="#a33dc9"/>
  <path id="Path_4850" data-name="Path 4850" d="m41.83,11.89l-.03-.48c.06-.45.14.28.17,0-.03-.62-.2-.2-.2-.96-.08.06.06,1.21-.08,1.1,0,.62.08.03.14.34h0Z" fill="#b133d0" stroke="#a33dc9"/>
  <path id="Path_4851" data-name="Path 4851" d="m42.7,41.07s0,.06-.03.06c.03,0,.06-.06.03-.06Z" fill="#b133d0" stroke="#a33dc9"/>
  <path id="Path_4852" data-name="Path 4852" d="m42.44,49.08c-.03.11-.03.23-.06.34.02-.03.03-.07.03-.11l.03-.23Z" fill="#b133d0" stroke="#a33dc9"/>
  <path id="Path_4853" data-name="Path 4853" d="m42.58,36.07c.02-.1.03-.21.03-.31-.02.1-.03.21-.03.31Z" fill="#b133d0" stroke="#a33dc9"/>
  <path id="Path_4854" data-name="Path 4854" d="m40.14,69.59s.03.03.03.06v-.03l-.03-.08v.06Z" fill="#b133d0" stroke="#a33dc9"/>
  <path id="Path_4855" data-name="Path 4855" d="m42.05,58.04c0,.11-.03.25-.03.37.06-.23.06-.34.03-.37Z" fill="#b133d0" stroke="#a33dc9"/>
  <path id="Path_4856" data-name="Path 4856" d="m42.61,33.18v.11s.03-.08,0-.11Z" fill="#b133d0" stroke="#a33dc9"/>
  <path id="Path_4857" data-name="Path 4857" d="m42.75,46.47c-.02.09-.03.19-.03.28.02-.09.03-.19.03-.28Z" fill="#b133d0" stroke="#a33dc9"/>
  <path id="Path_4858" data-name="Path 4858" d="m41.94,19.3c0,.11,0,.23.03.34,0-.11,0-.23-.03-.34Z" fill="#b133d0" stroke="#a33dc9"/>
  <path id="Path_4860" data-name="Path 4860" d="m42.02,23.99v-.03s-.03.03,0,.03Z" fill="#b133d0" stroke="#a33dc9"/>
  <path id="Path_4861" data-name="Path 4861" d="m41.97,19.67c-.06.22-.23.31-.03.62l.03-.06c0,.23.01.45.06.67.02-.02.03-.05.03-.08v-.48c0-.23-.02-.45-.08-.67Z" fill="#b133d0" stroke="#a33dc9"/>
  <path id="Path_4863" data-name="Path 4863" d="m42.61,38.57c0,.09,0,.17-.03.25.02-.08.03-.17.03-.25Z" fill="#b133d0" stroke="#a33dc9"/>
  <path id="Path_4864" data-name="Path 4864" d="m42.78,29.28v.06s.03-.03,0-.06Z" fill="#b133d0" stroke="#a33dc9"/>
  <path id="Path_4867" data-name="Path 4867" d="m40.95,31.44c0,.16-.02.32-.06.48.11.39.03-.82.11-.22,0-.15,0-.3-.03-.45l-.11.25c.03.34.06-.25.08-.06h0Z" fill="#b133d0" stroke="#a33dc9"/>
  <path id="Path_4868" data-name="Path 4868" d="m40.48,67.29l-.03.08c.06-.06.06,0,.11-.31-.06-.25-.2.14-.28-.31,0,.11,0,.23-.03.34.11-.2.17-.03.23.2h0Z" fill="#b133d0" stroke="#a33dc9"/>
  <path id="Path_4869" data-name="Path 4869" d="m40.28,67.06h0s-.03.05-.03.08c0,.06,0,.14-.03.17.04-.08.06-.17.06-.25Z" fill="#b133d0" stroke="#a33dc9"/>
  <path id="Path_4870" data-name="Path 4870" d="m40.81,37.62v.2c.03-.06.03-.14,0-.2Z" fill="#b133d0" stroke="#a33dc9"/>
  <path id="Path_4871" data-name="Path 4871" d="m40.65,57.34c0-.09,0-.17-.03-.25,0,.14,0,.23.03.25Z" fill="#b133d0" stroke="#a33dc9"/>
  <path id="Path_4872" data-name="Path 4872" d="m40.11,71.7c-.02.07-.03.15-.03.23v.14l.03-.37Z" fill="#b133d0" stroke="#a33dc9"/>
  <path id="Path_4873" data-name="Path 4873" d="m39.47,56.97c.14.17,0-.11.06-.42l-.06-.28c-.01.23-.01.47,0,.7h0Z" fill="#b133d0" stroke="#a33dc9"/>
  <path id="Path_4875" data-name="Path 4875" d="m39.35,48.35s0-.1.03-.14c-.03.03-.03.06-.03.14Z" fill="#b133d0" stroke="#a33dc9"/>
  <path id="Path_4876" data-name="Path 4876" d="m40.14,68.8l-.06,1.12.06-.31c-.06-.2.08-.65,0-.82h0Z" fill="#b133d0" stroke="#a33dc9"/>
  <path id="Path_4877" data-name="Path 4877" d="m39.41,59c.12-.33.16-.69.11-1.04-.03-.11-.14.08-.06-.28l.14.36c.05-.51.03-1.02-.06-1.52l.03-.62.06.2c.06-.46.05-.92-.03-1.38.06.17.2.48.2.03l-.06-.39c.03-.06.06.14.03-.51-.08.17-.06-.53.03-.67-.08.06-.14.48-.25.48.06-.65-.23-.51-.14-1.1l.08.08c.01-.39-.03-.77-.11-1.15l.06.06c-.02-.68,0-1.35.08-2.02l-.06-.48c.03.14.06.08.08-.14.03-.36-.11-.93-.17-.73.14-1.18-.08-1.52-.03-2.87.11.06.03-.53.14-.31l-.06-.39c0,.06.03,0,.03-.03.02-.09.01-.19-.03-.28l.03.03.03-.56-.08-.03.08-.39c.11.28.03.9.17,1.01.07-.46.07-.94,0-1.4l.06-1.1c.06-.06.03.03.03-.31,0-.23,0-.47-.03-.7,0,.08.01.15.03.22,0-.3-.04-.61-.11-.9,0,.25.03.45.03.65-.03.06-.03,0-.03.03l.06.56c-.06-.03,0-.08-.03.22,0-.36,0-.45-.03-.84-.08-.2-.11.25-.17,0-.08-3.93.42-5.98.2-9.72.15-.61.22-1.23.2-1.85l-.03.14c-.03-.56.14-.73.06-1.15l-.11-.45c.06-.22.08-.79.14-.67-.03-.37.11-1.07-.06-1.15.08-.81.14-1.26.2-2.05,0,.06.03.06.03.06.08-.17-.06-.39.03-.59.03.11-.03.73.06.22-.02-.54.05-1.09.23-1.6,0-.19,0-.38-.03-.56.06-.28.2-.65.17-.22.03-.84.17-.84.03-1.01,0-.98.31-1.57.28-2.5.14-.7.25-1.43.39-2.08.15-.62.32-1.23.53-1.83l-.04-.08c.08.22.39-.84.39-.39.03-.48.12-.95.28-1.4l.03.2c-.23.65,0,.2-.2,1.01,0-.08.03-.14,0-.14-.06.45-.25,1.29-.31,1.74l-.06-.11c-.09.57-.11,1.14-.06,1.71-.17.51-.06-.11-.23-.03-.11.76.39.62.03,1.26v-.17c-.17.93-.03-.42-.2.25-.2,1.49.31-.45.23.87-.08-.11-.17.17-.25.48.11.22,0,1.24.11,1.69-.03-.06-.11.22-.17.67-.03-.32-.01-.64.06-.96-.03-.06-.11-.25-.17-.06.17.42-.06,1.91.11,2.3-.03-.22-.14.31-.2.28.06.22,0,.65.03.79l.08-.37c-.06.38-.09.77-.08,1.15,0,.39.03.84.03,1.24l-.03-.03c0,.59.08,1.07.03,1.71-.03-.31-.17-.03-.23.08-.14.14-.14-1.15-.28-.42.11.54.16,1.08.14,1.63.08.22.14-.37.17-.56-.04.6-.04,1.2,0,1.8,0-.25.03-.34.06-.31,0,0,.03.2.08.42.06.2.08.41.06.62-.06-.14-.06.03-.11-.2-.04.26-.04.53,0,.79-.17-.03.03-.84-.17-.79-.04.85,0,1.69.14,2.53-.03.48-.03.81-.06,1.29,0-.06,0-.22-.03-.17-.14.96.03.7-.11,1.46.09.69.11,1.39.06,2.08-.03-.08-.08-.11-.08-.2.09,1.18.11,2.36.06,3.54l-.03-.03c0,.76.03,1.43,0,2.28,0-.22-.03-.28-.08-.28-.08,1.1.11,1.97.03,3.15-.06.31-.03,1.01-.17.9,0,.96.17-.39.17.56v-.08c.11,1.21-.03,2.25.08,3.4-.08.4-.12.8-.14,1.21.09.3.14.61.17.93-.03.25-.03.53-.06.93.08-.51.06.31.08.48-.08-.25-.11.08-.17-.45-.08,1.04.25.65.17,1.71l-.11.17c0-.21,0-.41-.03-.62-.06.4-.06.81,0,1.21.06.17.11-.82.14.03-.17-.08.03.62-.14.98.09.26.12.54.08.82-.03.06-.03,0-.06-.06-.03.67.14.22.11.82-.06.11-.14-.36-.17-.06-.08.51.06.31,0,.87.06-.17.17.06.2.39-.08.03-.23.03-.23-.53-.06.28-.14.79-.23.31.11.7.11,1.66.2,2.44-.06.21-.08.43-.08.65.06.39.25.59.2.93.06.17.08-.11.11-.11l.03.56c-.06.34-.14-.45-.2-.22l-.06.53c.06.48.17.08.23-.06-.11.51.06.65,0,.98-.03-.73-.23.36-.2-.59l-.06.39c-.08.03-.08-.53-.14-.62-.06.59.06.76,0,1.32-.11-.17.06-.7-.08-.98-.01.47-.07.94-.17,1.4-.03-.34.14-.84,0-1.01-.2.29-.28.64-.23.98.06.22.11-.17.14-.48l-.06-.03.08-.03c-.06.31,0,.79-.03,1.12-.03.06-.03.14-.06.22.02,0,.03-.01.03-.03,0,.06-.03.08-.03.11.03.4.02.81-.03,1.21v-.65c-.11.03-.14.48-.23.96-.03.42-.08,1.35.03,1.21v-.34c.17.17-.17.79.06.73.02-.11.03-.22.03-.34.03.28.14.25.23-.22l-.11-.36c.14-.39,0-.7.11-1.21.03.03.06-.06.08.06-.06.45-.07.9-.03,1.35.03-.56.11.03.14-.25-.06.84.17.36.08,1.26l-.11-.36c-.06.39,0,.79.14,1.15-.12.38-.2.78-.23,1.18-.14.65.06.53.06,1.07-.11-.08-.11-.62-.11-.93,0,.04,0,.08-.03.11,0-.03,0-.06-.03-.08-.11.42.06,1.43-.14,1.01.05-.82.04-1.65-.03-2.47.06-.31.06-.62.11-.82-.08-.11-.2-.14-.31.14.09.36.13.73.14,1.1-.05.5-.06,1.01-.06,1.52l.11-.08c-.05.55-.05,1.11,0,1.66-.06-.08-.11.17-.11.42l-.06-.34c-.08.14-.2.98-.25.7,0,.53-.05,1.07-.11,1.6-.03.29,0,.59.08.87l-1.1-.14c-.05-.37-.04-.75.03-1.12.14-.17,0,.79.17.34.11-.57.11-1.15,0-1.71-.08.31-.11.03-.17.03l.08-.45c.08.11-.06.22.03.48.09-.26.14-.54.17-.82l.06.2c.06-.31.03-.7.14-.73l-.08-.62c.09-.38.1-.77.06-1.15l-.08.39.08-.51c-.03-.36-.14.31-.11-.28.08.42.14-.56.31-.51-.03.28-.11.79,0,.67.06-.28.14-.55.25-.82-.03.06.06-.42,0-.45l-.39.34c-.06-.25.39-.62.39-.96-.03.56.06-.11.11.03-.03-.71-.02-1.42.03-2.14l.06.2c-.03-.48.11-.34.06-.93-.03-.22-.06.48-.08.08.25-2.39.51-4.89.67-7.14.14.06.17-.93.25-1.29-.03-.22-.11-.03-.08.22-.03-.38-.02-.77.03-1.15.12-.29.16-.61.11-.93.03.14.14-.06.03.59.06-.17.11.84.2-.06-.11-.96-.14-1.93-.08-2.89,0-.38.04-.75.11-1.12l.03.17c.04-.15.02-.31-.06-.45.03-.48.17-.22.2-.06.03-1.15-.11-1.43-.03-2.64.06-.25.17-.03.2-.56.06-1.74.03-3.15.2-5l.11-.45-.14-.45c.23-1.74.25-3.26.39-5.11.03.2,0,.42.03.51,0-.62-.17-1.24-.14-1.77-.06,0,.11,0,.14.03-.03-.7-.17-1.1-.23-1.85.03-.11.06.34.11.08v-.45c.06.34.11-.25.11-.11,0,.08-.03.17-.03.28.06,0,.08-.42.14-.67,0-.2-.06-.37-.08-.17.06-.34.06-.06.11-.06.06-.45,0-.51-.08-.56-.06.03-.08.14-.14.34.08-.48.11-1.07.2-1.35l-.06-.28.03-.06s-.06-.03-.06-.06v.06c-.2-1.35-.03-3.34-.17-4.94l.06-1.26c.11.62.06,1.66.14,1.94l-.03-.28c.03-.08,0,.48.08.53l.06-.39c.06-.62-.23-.34-.06-.9.03.81.08-.31.17.22.03-.27-.01-.54-.11-.79v.56c-.06-.14,0-.84-.14-.96,0-.08.01-.15.03-.22,0-.12.03-.23.08-.34v-.2c-.08.03-.17-.37-.14-.73,0-.08.06.22.11.22.09-.75.14-1.5.14-2.25,0,.19-.07.37-.17.53,0-.08-.03-.17-.03-.28-.04-.11-.06-.22-.06-.34l.06.2c0-.2,0-.39-.03-.59-.06-.08-.08-.17,0-.45,0,.09.01.18.06.25v-.62c.1-.15.16-.32.17-.51l-.17.11c.05-.32.07-.65.06-.98.2-.48-.14-1.8.03-1.91v.7c.11-.25.28.62.34.34l-.11-.87c-.11.79-.2-.81-.37-.65.04-.35.04-.69,0-1.04.03-.31.11.22.14-.14-.03-.25-.11-.17-.11-.53.03.03.06.14.08.08.03-.39-.08-.28-.11-.73v.08c-.11-.2.03-.53.06-.65l-.17-1.15c.06.14.17.7.2.37.17.39-.08,1.63.2,1.57.06-.34-.11-.81-.03-1.12-.11-.08-.14-.59-.2-.93l.03-.08c-.03-.7-.23,0-.2-.76.03-.08.11.14.11-.31-.03-.08-.06-.28-.11-.31l-.03.11c-.08.14-.06-.56-.06-.9.06.17.11.22.14-.06,0,.56.23.48.23.96-.06-.17-.14-.7-.2-.39,0,.43.04.85.14,1.26v-.34c.17-.08.17.87.34,1.01,0-.14-.03-.28,0-.28-.03.03.03.51.03.76l-.08-.22c-.11.73.08.56.06,1.32-.06-.06-.17-1.15-.2-.53.08,0,.03.48.11.53l-.11.48c.06.42.14.93.17,1.21-.06-.22-.08-.37-.14-.59.06.56-.17.84-.03,1.26l.03-.34c0,.29.01.58.06.87.08.17.14-.22.14-.51,0,.25-.06.73.03.73-.05.2-.03.41.06.59-.03.42-.06.17-.11.2.06.37,0,1.15.14,1.04.03-.17-.03-.65.06-.42-.11.17.06.25.03.53-.11-.53-.11.67-.2.28,0,.35.02.7.08,1.04h-.08l.03.62c-.11.11-.23-.2-.25.37.11.45.31.31.37,1.01l-.11-.14c-.03.22.03.9.08.84.08-.21.11-.43.11-.65v.08c.06.39.17-.65.14.14-.17-.2-.25,1.1-.34,1.52.06.28.11.81.17.96.03-.03.08-.42.17-.25-.14.96.11,1.43-.06,2.3t-.03.22l-.06.11c.03.15.03.3,0,.45l-.03.7s.03.14.06.25c0-.06.03-.11.03-.2l-.03.2c.02.08.03.17.03.25.11.11-.06.51-.11.79v-.17c-.06.48.14.73.03,1.18l-.03.06v.03q-.03.2,0,.11c0,.37.06.31.06.87l.06-.31v.28c.04.59.04,1.18,0,1.77.13.37.19.76.2,1.15l-.11-.08-.06.79c-.06-.11-.11.28-.11.76v-.03c-.09.36-.1.74-.03,1.1.03.16.04.32.03.48.07.3.09.62.06.93h0c0,.06,0,.11-.03.17,0-.03.03-.03.03-.06-.06.34.08.48-.03.9-.08.62-.17-.22-.25.51l.06.36c-.03.08-.03.03-.03-.03,0,.34-.11.56,0,.73.11-.56.14-.67.23-1.29,0,.73.11.82.11,1.43.03.03.03-.08.06-.2,0,.34-.08.62-.11.45-.03.31.08.39.06.79l.17.03c0,.54-.05,1.07-.14,1.6.03-.51-.06-.93-.06-1.29-.31.17-.03-1.43-.11-1.69-.06.34-.08-.42-.17.22.05.32.04.64-.03.96-.08.22-.11-.34-.14.42.06-.31.14.39.14-.2.06.98,0,1.18.03,2.16.03-.82.11.34.2-.14-.14.06-.03-1.29-.14-.25v-.73c.06-.06.06.73.17.11,0,.47,0,.93.06,1.4-.08-.11-.14.53-.23.59.04.26.04.53,0,.79l-.03-.42c-.03.42-.14.45-.17.82,0,.25.06.28.11.17-.06.62-.03,1.21-.11,1.85.06-.76-.11-.14-.08-.76l-.08.48c.02.84.12,1.68.31,2.5.03,1.1-.28.79-.14,2.08,0-.2-.11.11-.17.03-.03.27-.05.54-.06.82l.11-.51c0,.72-.06,1.45-.17,2.16-.03-.14-.08.08-.11-.34-.06,0-.11.48-.11.67.03.51.17.17.17.73-.53,6.07-1.04,12.02-1.91,18.09h-.06c-.03.36-.06.7-.11,1.1l-1.6-.22c.08-.87.17-1.74.28-2.67.06-.45.11-.9.17-1.38.03-.45.08-.93.11-1.38l.25-2.78.17-2.78-.03.03c.31-1.21-.23-.79.08-2.11-.23-.87.06-2.14-.08-3.26l.08-.11c.13-.85.21-1.7.23-2.56h0Z" fill="#b133d0" stroke="#a33dc9"/>
  <path id="Path_4878" data-name="Path 4878" d="m42.7,29.59l.03-.08c-.06-.23-.06-.11-.03.08Z" fill="#b133d0" stroke="#a33dc9"/>
  <path id="Path_4879" data-name="Path 4879" d="m42.61,36.13c.08-.16.12-.33.11-.51-.04.04-.07.09-.08.14.06-.53.03-.9.06-1.52-.03.06-.11-.14-.06.48.08-.28-.17,1.12-.03,1.4Z" fill="#b133d0" stroke="#a33dc9"/>
  <path id="Path_4880" data-name="Path 4880" d="m41.99,23.07h0s-.03-.06-.03-.08l.03.08Z" fill="#b133d0" stroke="#a33dc9"/>
  <path id="Path_4881" data-name="Path 4881" d="m42.08,26.33c0-.08.02-.16.06-.22,0,.08-.02.16-.06.22Z" fill="#b133d0" stroke="#a33dc9"/>
  <path id="Path_4882" data-name="Path 4882" d="m41.91,32.98c-.02-.23-.01-.47.03-.7.01.23,0,.47-.03.7Z" fill="#b133d0" stroke="#a33dc9"/>
  <path id="Path_4883" data-name="Path 4883" d="m39.49,71.47v-.03c-.06-.14.06-.42.03-.59.08-.31.08.03.08.23.03.06-.03.2-.11.39h0Z" fill="#b133d0" stroke="#a33dc9"/>
  <path id="Path_4884" data-name="Path 4884" d="m40.17,66.69c0,.14,0,.28-.03.42,0-.03-.03,0-.06.06v-.06c-.06.08-.11-.06-.17-.08.06-.7.08-.39.25-.34Z" fill="#b133d0" stroke="#a33dc9"/>
  <path id="Path_4886" data-name="Path 4886" d="m40.17,66.72s-.03.17-.06.37c.04-.12.05-.24.06-.37Z" fill="#b133d0" stroke="#a33dc9"/>
  <path id="Path_4887" data-name="Path 4887" d="m42.31,12.9l.03.17.03-.37c0-.28-.1-.56-.26-.79.08.52.13,1.05.14,1.57l.06-.59h0Z" fill="#b133d0" stroke="#a33dc9"/>
  <path id="Path_4888" data-name="Path 4888" d="m41.71,13.23c-.04.1-.07.2-.08.31l.06.08s.03-.39.03-.39Z" fill="#b133d0" stroke="#a33dc9"/>
  <path id="Path_4889" data-name="Path 4889" d="m41.69,20.4l.03-.59c-.06-.17-.11.51-.03.59Z" fill="#b133d0" stroke="#a33dc9"/>
  <path id="Path_4890" data-name="Path 4890" d="m42.56,17.84l-.06-.31c-.04.23-.03.47.03.7-.03-.37.06-.11.03-.39h0Z" fill="#b133d0" stroke="#a33dc9"/>
  <path id="Path_4891" data-name="Path 4891" d="m41.69,21.94c.11.17-.03.59.06.7-.03-.17.06-.67-.06-.7Z" fill="#b133d0" stroke="#a33dc9"/>
  <path id="Path_4892" data-name="Path 4892" d="m42.72,21.52c.11-.2,0-.48.03-.84,0,.31-.11.73-.03.84Z" fill="#b133d0" stroke="#a33dc9"/>
  <path id="Path_4893" data-name="Path 4893" d="m42.05,25.01c-.08-.03-.08-.28-.06-.53.04.09.06.19.08.28-.06-.45-.06-.48-.08-.84-.06.36-.08.9-.17.84.03.25.14.59.23.25Z" fill="#b133d0" stroke="#a33dc9"/>
  <path id="Path_4894" data-name="Path 4894" d="m42.75,22.39c.04-.28.07-.56.08-.84-.06.06-.14.2-.11.62l-.08-.14c-.09.37.11-.17.11.37Z" fill="#b133d0" stroke="#a33dc9"/>
  <path id="Path_4895" data-name="Path 4895" d="m41.85,26.69l.03-.2c-.02-.4-.07-.81-.17-1.2.02.47.07.94.14,1.4Z" fill="#b133d0" stroke="#a33dc9"/>
  <path id="Path_4896" data-name="Path 4896" d="m42.61,23.88l.11.06c0-.42-.03.03-.08-.11.03-.13.03-.26,0-.39.03.48-.09.03-.03.45Z" fill="#b133d0" stroke="#a33dc9"/>
  <path id="Path_4897" data-name="Path 4897" d="m42.75,25.29l.06.53.14-.42c-.06-.65-.08-.03-.2-.11Z" fill="#b133d0" stroke="#a33dc9"/>
  <path id="Path_4898" data-name="Path 4898" d="m42.67,25.93l-.03.06.2.82c-.03-.29-.09-.59-.17-.87h0Z" fill="#b133d0" stroke="#a33dc9"/>
  <path id="Path_4899" data-name="Path 4899" d="m41.8,35.79c.06.08.14-.39.06-.17-.06-.11-.14.53-.06.17Z" fill="#b133d0" stroke="#a33dc9"/>
  <path id="Path_4900" data-name="Path 4900" d="m42.84,33.88c0,.44.01.88.06,1.32.02-.44,0-.88-.06-1.32Z" fill="#b133d0" stroke="#a33dc9"/>
  <path id="Path_4903" data-name="Path 4903" d="m42.64,49c.04-.25.03-.51-.03-.76,0,.37.01.74.06,1.1,0-.17.06-.34-.03-.34Z" fill="#b133d0" stroke="#a33dc9"/>
  <path id="Path_4904" data-name="Path 4904" d="m42.44,52.23c-.03-.17,0-.39-.06-.34-.03.08,0,.42.06.34Z" fill="#b133d0" stroke="#a33dc9"/>
  <path id="Path_4905" data-name="Path 4905" d="m38.9,73.61c-.06.31-.06.48.03.42.03-.34-.03-.17-.03-.42Z" fill="#b133d0" stroke="#a33dc9"/>
  <path id="Path_4906" data-name="Path 4906" d="m38.9,74.42l-.06.03-.08.2.14-.23Z" fill="#b133d0" stroke="#a33dc9"/>
  <path id="Path_4907" data-name="Path 4907" d="m38.51,76.5s-.02-.09-.03-.14c0,.14,0,.23.03.14Z" fill="#b133d0" stroke="#a33dc9"/>
  <path id="Path_4909" data-name="Path 4909" d="m38.54,76.19l-.03-.03v.17c0-.08,0-.14.03-.14h0Z" fill="#b133d0" stroke="#a33dc9"/>
  <path id="Path_4910" data-name="Path 4910" d="m38.43,77.15l.17-.4c0-.42-.11.48-.2.03l.03.37Z" fill="#b133d0" stroke="#a33dc9"/>
  <path id="Path_4911" data-name="Path 4911" d="m39.97,77.79c.08-.39-.06-.95.11-1.18.06-1.1-.25.23-.17-1.04-.2,1.18.2.62,0,1.69.17-.48.06.36.06.53h0Z" fill="#b133d0" stroke="#a33dc9"/>
  <path id="Path_4912" data-name="Path 4912" d="m39.72,77.96c.06.08.11-.42.08-.59,0,.17-.14.39-.08.59Z" fill="#b133d0" stroke="#a33dc9"/>
  <path id="Path_4913" data-name="Path 4913" d="m40.17,75.66l.08-.34-.06-.08-.03.42Z" fill="#b133d0" stroke="#a33dc9"/>
  <path id="Path_4914" data-name="Path 4914" d="m40.34,74.37l.06.34c-.03-.11.03-.59-.06-.34Z" fill="#b133d0" stroke="#a33dc9"/>
  <path id="Path_4915" data-name="Path 4915" d="m40.56,72.6c.06-.31-.11-.59-.11.06l.03-.14c0,.06.11-.31.08.08Z" fill="#b133d0" stroke="#a33dc9"/>
  <path id="Path_4916" data-name="Path 4916" d="m40.53,68.47c-.03.23,0,.45.03.42v-.59l-.03.17Z" fill="#b133d0" stroke="#a33dc9"/>
  <path id="Path_4917" data-name="Path 4917" d="m40.08,68.52c-.11.2-.03.53-.08.93.05-.31.08-.62.08-.93Z" fill="#b133d0" stroke="#a33dc9"/>
  <path id="Path_4918" data-name="Path 4918" d="m40.73,67.82c.02.18.01.36-.03.53.08-.06.08-.45.03-.53Z" fill="#b133d0" stroke="#a33dc9"/>
  <path id="Path_4919" data-name="Path 4919" d="m40.76,66.89c.06-.2.06.06.11-.11.06-.35.07-.71.03-1.07-.06.11-.2.25-.25.08,0,.65.2.98.03,1.29l.17.56c.06-.51-.11-.39-.08-.76h0Z" fill="#b133d0" stroke="#a33dc9"/>
  <path id="Path_4920" data-name="Path 4920" d="m40.31,68.18l.08-.34c-.06.06-.06-.2-.08-.39-.17.08,0,.53,0,.73h0Z" fill="#b133d0" stroke="#a33dc9"/>
  <path id="Path_4921" data-name="Path 4921" d="m40.79,63.27l-.03-.73-.03.23.06.5Z" fill="#b133d0" stroke="#a33dc9"/>
  <path id="Path_4922" data-name="Path 4922" d="m40.84,62.79h.03l-.06-.59.03.59Z" fill="#b133d0" stroke="#a33dc9"/>
  <path id="Path_4923" data-name="Path 4923" d="m40.9,62.03v.08l.03.42-.03-.51Z" fill="#b133d0" stroke="#a33dc9"/>
  <path id="Path_4924" data-name="Path 4924" d="m40.95,60.49l-.06.14c.03.2-.06.56.03.53-.03-.22-.02-.45.03-.67Z" fill="#b133d0" stroke="#a33dc9"/>
  <path id="Path_4925" data-name="Path 4925" d="m39.38,55.37c.03.14.08.06.11-.03l-.11-.23c0,.08.03.2,0,.25Z" fill="#b133d0" stroke="#a33dc9"/>
  <path id="Path_4926" data-name="Path 4926" d="m39.55,54.48l-.11-.53c0,.42.04.85.11,1.26.03-.23-.06-.56-.03-.84l.03.11h0Z" fill="#b133d0" stroke="#a33dc9"/>
  <path id="Path_4927" data-name="Path 4927" d="m39.52,43.52c.08.06.06-.08.11.34-.06-.56-.03-1.04-.06-1.69-.06.11-.14-.37-.11-.11l.06.7-.06-.11c-.06.51.08.34.06.87h0Z" fill="#b133d0" stroke="#a33dc9"/>
  <path id="Path_4928" data-name="Path 4928" d="m41.83,14.98c.03.06.08,0,.11-.08.06-.42-.11.17-.11.08Z" fill="#b133d0" stroke="#a33dc9"/>
  <path id="Path_4929" data-name="Path 4929" d="m11.57,47.9c-.17.11.06.03.28,0h-.28Z" fill="#b133d0" stroke="#a33dc9"/>
  <path id="Path_4931" data-name="Path 4931" d="m13.73,47.93c-.4.02-.81.05-1.21.11.4.09.83.05,1.21-.11Z" fill="#b133d0" stroke="#a33dc9"/>
  <path id="Path_4932" data-name="Path 4932" d="m13.09,47.87l-.06.08.37-.14-.31.06Z" fill="#b133d0" stroke="#a33dc9"/>
  <path id="Path_4933" data-name="Path 4933" d="m12.81,47.82l.06.03.59-.08-.65.06Z" fill="#b133d0" stroke="#a33dc9"/>
  <path id="Path_4934" data-name="Path 4934" d="m15.17,47.93l-.42.03c-.39-.08.25-.14,0-.17-.53.03-.17.2-.84.17.06.08,1.07-.03.98.11.53.03,0-.08.28-.14Z" fill="#b133d0" stroke="#a33dc9"/>
  <path id="Path_4936" data-name="Path 4936" d="m48.01,45.26h.28s-.06-.03-.11-.03l-.17.03Z" fill="#b133d0" stroke="#a33dc9"/>
  <path id="Path_4937" data-name="Path 4937" d="m36.54,46.44c-.09,0-.19,0-.28-.03.09.03.19.04.28.03Z" fill="#b133d0" stroke="#a33dc9"/>
  <path id="Path_4938" data-name="Path 4938" d="m65.65,44.36s.03-.01.03-.03h-.03l-.08.06.08-.03Z" fill="#b133d0" stroke="#a33dc9"/>
  <path id="Path_4939" data-name="Path 4939" d="m55.87,44.39c.11,0,.23-.03.31-.03-.1-.01-.21,0-.31.03Z" fill="#b133d0" stroke="#a33dc9"/>
  <path id="Path_4940" data-name="Path 4940" d="m33.99,46.61h.11s-.08-.03-.11,0Z" fill="#b133d0" stroke="#a33dc9"/>
  <path id="Path_4942" data-name="Path 4942" d="m21.74,47.85c.1,0,.21,0,.31-.03-.1-.03-.21-.02-.31.03Z" fill="#b133d0" stroke="#a33dc9"/>
  <path id="Path_4943" data-name="Path 4943" d="m24.27,47.7h0s.03.03,0,0Z" fill="#b133d0" stroke="#a33dc9"/>
  <path id="Path_4945" data-name="Path 4945" d="m22.05,47.82c.22.06.28.23.53.03l-.06-.03c.2,0,.39-.02.59-.06-.01-.02-.03-.03-.06-.03h-.42c-.2-.03-.41,0-.59.08Z" fill="#b133d0" stroke="#a33dc9"/>
  <path id="Path_4949" data-name="Path 4949" d="m39.19,46.19h-.2c.06.03.14.03.2,0Z" fill="#b133d0" stroke="#a33dc9"/>
  <path id="Path_4951" data-name="Path 4951" d="m31.91,44.87c.14,0,.29,0,.42.06.34-.11-.73,0-.22-.11-.17,0-.28.03-.39.03l.22.11c.31-.03-.2-.03-.03-.08Z" fill="#b133d0" stroke="#a33dc9"/>
  <path id="Path_4952" data-name="Path 4952" d="m63.6,44.33h.06c-.06-.06,0-.06-.28-.06-.23.11.14.2-.25.31.1-.02.21-.03.31-.03-.17-.06,0-.14.17-.23Z" fill="#b133d0" stroke="#a33dc9"/>
  <path id="Path_4953" data-name="Path 4953" d="m63.43,44.56h0s.05.03.08.03h.17c-.06,0-.14-.03-.25-.03Z" fill="#b133d0" stroke="#a33dc9"/>
  <path id="Path_4954" data-name="Path 4954" d="m37.39,44.98h.2c-.06-.03-.14-.03-.2,0Z" fill="#b133d0" stroke="#a33dc9"/>
  <path id="Path_4955" data-name="Path 4955" d="m55.51,45.88c-.08.03-.17.03-.23.06.08,0,.16-.01.23-.06Z" fill="#b133d0" stroke="#a33dc9"/>
  <path id="Path_4956" data-name="Path 4956" d="m67.47,44h.2s.08-.03.11-.03l-.31.03h0Z" fill="#b133d0" stroke="#a33dc9"/>
  <path id="Path_4957" data-name="Path 4957" d="m54.58,46.24c.14-.14-.11.03-.39-.06l-.25.08c.23,0,.45-.03.65-.03Z" fill="#b133d0" stroke="#a33dc9"/>
  <path id="Path_4959" data-name="Path 4959" d="m46.91,46.5c-.06,0-.08,0-.11-.03,0,.03.06.03.11.03Z" fill="#b133d0" stroke="#a33dc9"/>
  <path id="Path_4960" data-name="Path 4960" d="m64.97,44.45l.98-.11h-.28c-.17.08-.59.03-.7.11Z" fill="#b133d0" stroke="#a33dc9"/>
  <path id="Path_4961" data-name="Path 4961" d="m56.41,46.19c-.3-.1-.62-.12-.93-.06-.08.03.08.14-.25.08l.31-.14c-.45-.04-.91,0-1.35.11h-.56l.17-.06c-.4-.04-.81-.02-1.21.06.14-.06.42-.2,0-.2l-.34.08c-.06-.03.11-.08-.45,0,.14.06-.48.08-.62-.03.06.08.42.14.42.25-.59-.03-.45.23-.98.17l.08-.11c-.34,0-.68.04-1.01.11l.03-.06c-.6.05-1.21.02-1.8-.08l-.42.06c.11-.03.06-.06-.11-.08-.31-.03-.82.11-.65.17-1.04-.14-1.35.08-2.53.03.06-.11-.48-.03-.25-.14l-.36.06c.06,0,0-.03-.03-.03-.08-.03-.18-.02-.25.03l.03-.03-.51-.03-.03.08-.36-.08c.25-.11.79-.03.9-.14-.42-.09-.85-.09-1.26,0l-.98-.06c-.03-.06.03-.03-.28-.06-.21,0-.41,0-.62.03.07,0,.13-.01.2-.03-.42-.06-.51.08-.82.11.22,0,.39-.03.56-.03.06.03,0,.03.03.03l.51-.06c-.03.06-.08,0,.2.03-.25,0-.51,0-.76.03-.17.08.22.11,0,.17-3.48.08-5.28-.48-8.6-.17-.55-.11-1.1-.17-1.66-.17l.11.03c-.48.06-.65-.14-1.01-.03l-.39.11c-.2-.03-.7-.06-.62-.11-.31.06-.96-.06-1.01.11-.7-.03-1.12-.08-1.8-.08.06,0,.06-.03.06-.03-.14-.06-.34.08-.51,0,.08-.03.65-.03.2-.08-.47.06-.94.03-1.4-.08-.17.01-.34.04-.51.08-.25-.03-.59-.14-.2-.17-.73.03-.76-.11-.9.06-.87.08-1.43-.11-2.22.03-1.19-.04-2.37-.16-3.54-.37l-.08.06c.2-.11-.79-.25-.42-.31-.42.05-.85.04-1.26-.06l.22-.03c.59.11.17-.03.9.03-.08,0-.14,0-.11.03.39,0,1.18.03,1.57.03l-.08.06c.51-.03,1.02-.09,1.52-.2.48.11-.08.06,0,.23.67.03.51-.45,1.1-.17l-.17.03c.84.06-.37.06.25.17,1.32.03-.42-.25.76-.31-.08.11.17.14.45.23.2-.11,1.1-.17,1.49-.28-.06.06.22.11.62.11-.29.06-.58.07-.87.03-.06.06-.22.11-.03.17.37-.2,1.71-.08,2.02-.31-.2.06.28.11.25.17.23-.05.46-.08.7-.08l-.34-.06c.71.01,1.43-.02,2.13-.08l-.03.03c.5-.07,1.01-.1,1.52-.11-.28.06-.03.17.08.23.11.14-1.01.2-.37.31.46-.15.95-.22,1.43-.2.2-.08-.34-.14-.51-.14.53.04,1.07.03,1.6-.03-.22,0-.28-.03-.28-.06.3-.09.61-.15.93-.17-.11.06.03.03-.17.11.23.03.47.03.7-.03-.03.17-.76,0-.7.2.75.01,1.51-.06,2.25-.2.42.03.73,0,1.15.06-.06,0-.2,0-.14.03.84.14.62-.03,1.29.11.61-.11,1.24-.12,1.85-.06-.06.03-.08.08-.17.08,1.05-.09,2.1-.1,3.15-.03l-.03.03c.67,0,1.26-.03,2,.03-.2,0-.25.03-.25.06.96.11,1.74-.08,2.78-.03.28.08.9.03.79.17.87,0-.34-.17.51-.17h-.08c1.07-.11,2,.03,3.01-.08.35.08.71.12,1.07.11.27-.08.54-.14.82-.17.27.03.54.03.82.03-.45-.08.28-.06.42-.11-.22.08.08.11-.39.17.93.06.56-.25,1.52-.23l.17.11c-.18,0-.36.01-.53.06.36.05.72.04,1.07-.03.14-.06-.73-.08.03-.14-.06.17.53-.06.87.11.22-.1.46-.15.7-.14.06.03,0,.03-.03.06.59,0,.17-.14.73-.17.11.06-.31.17-.03.17.45.06.28-.08.79-.06-.14-.03.03-.17.34-.23.03.08.06.23-.45.25.25.06.7.08.28.2.62-.14,1.46-.2,2.14-.39.2.03.39.04.59.03.34-.08.51-.31.79-.28.14-.06-.08-.06-.11-.11l.48-.08c.31.03-.36.17-.17.23h.48c.42-.08.06-.17-.08-.23.45.06.53-.14.84-.11-.65.08.34.17-.48.25h.34c.03.08-.48.14-.53.2.53-.03.65-.11,1.15-.14-.11.14-.62.03-.84.2.41-.03.82-.04,1.24-.03-.31.08-.76-.03-.9.11.26.16.58.2.87.11.2-.08-.17-.11-.45-.08l-.03.06-.03-.08c.28,0,.7-.08.98-.11.06.03.13.04.2.03,0-.02-.01-.03-.03-.03.03,0,.08,0,.08.03.35-.08.71-.14,1.07-.17l-.56.11c.03.08.42.06.87.08.36-.03,1.18-.11,1.04-.23l-.28.06c.11-.2.73,0,.62-.17-.08,0-.2.03-.31.03.25-.08.2-.2-.22-.17l-.28.17c-.36-.08-.62.11-1.07.08.03-.06-.06-.06.03-.08.4,0,.8-.06,1.18-.17-.51.06,0-.11-.25-.11.73-.08.28-.23,1.07-.31l-.29.16c.35,0,.69-.14.96-.37.35.04.69.04,1.04,0,.59,0,.42-.17.9-.25-.06.11-.51.23-.79.31h.08s-.04.01-.06.03c.39.03,1.21-.37.9-.08-.36.04-.72.12-1.07.23-.35.12-.71.23-1.07.31-.28,0-.53.06-.73.06-.08.11-.08.23.17.25.29-.16.6-.28.93-.34.45-.05.89-.14,1.32-.25l-.11-.08c.48-.07.95-.19,1.4-.37-.06.06.17.06.36,0l-.28.11c.14.06.87-.06.67.06.45-.13.91-.24,1.38-.31.39-.06.59-.28,1.01-.45l.2,1.26c-.22.07-.44.11-.67.11-.2-.08.67-.17.25-.25-.51,0-1.01.14-1.46.39.28,0,.03.08.06.17h-.39c.08-.11.22,0,.39-.11-.24-.03-.49-.02-.73.03l.17-.08c-.28,0-.59.14-.67.03l-.51.23c-.35,0-.69.06-1.01.2h.36l-.45.03c-.31.08.31.08-.22.17.34-.17-.51-.03-.51-.2.25-.03.7-.06.59-.14-.26,0-.51-.02-.76-.08.06.03-.36.03-.39.08l.36.34c-.22.11-.62-.25-.9-.2.51-.11-.11-.03,0-.11-.61.17-1.23.31-1.85.39l.17-.08c-.42.11-.31-.03-.82.11-.2.06.45-.03.08.06-2.14.23-4.35.42-6.35.65.03-.14-.84-.03-1.18-.03-.2.06,0,.11.2.06-.33.09-.67.14-1.01.17-.17-.11-.53-.03-.82.03.11-.06-.06-.14.51-.14-.17-.03.73-.25-.08-.2-.81.28-1.65.45-2.5.51-.33.05-.67.07-1.01.06l.14-.06c-.14-.02-.28.02-.39.11-.42.03-.22-.11-.08-.2-1.01.11-1.24.34-2.3.39-.22-.03-.06-.17-.53-.11-1.54.17-2.78.37-4.41.39l-.42-.08-.39.2c-1.54-.03-2.89.06-4.55.11.15,0,.3-.03.45-.08-.51.13-1.02.22-1.54.28,0,.06,0-.11.03-.14-.62.08-.96.25-1.63.37-.11-.03.31-.08.06-.14l-.39.06c.31-.08-.22-.08-.11-.11.08.01.17.01.25,0,0-.06-.39-.06-.62-.08-.17.03-.31.08-.14.11-.31-.03-.06-.06-.06-.11-.39,0-.45.03-.51.14.03.06.11.08.31.11-.41,0-.81-.04-1.21-.11l-.22.08-.06-.03s-.03.06-.06.06h.06c-1.18.28-2.98.25-4.38.45h-1.13c.56-.14,1.46-.14,1.71-.23l-.25.03c-.08-.03.42,0,.48-.11l-.34-.06c-.53-.03-.28.25-.79.11.73-.08-.28-.08.2-.2-.24-.02-.47.04-.67.17.17-.02.34-.03.51-.03-.14.06-.76.03-.84.17-.11,0-.17,0-.2-.03-.11,0-.22-.02-.31-.08-.06,0-.12,0-.17.03.03.06-.31.17-.65.17-.08,0,.2-.08.2-.11-.65-.11-1.24-.03-1.99-.08.17.01.33.06.48.14-.07.02-.15.03-.22.03,0,.03-.17.06-.28.08l.17-.06c-.18-.01-.36,0-.53.06-.08.06-.14.08-.39,0,.08-.01.15-.03.22-.06-.18,0-.36,0-.53.03-.03-.03-.11-.11-.45-.14l.11.17c-.29-.03-.58-.04-.87-.03-.42-.2-1.6.17-1.71-.03l.62-.03c-.22-.11.53-.28.31-.34l-.76.14c.7.11-.73.23-.56.37-.34.03-.53-.11-.9.03-.28-.03.22-.11-.11-.14-.22.03-.17.11-.48.11.03-.03.14-.06.08-.08-.34-.03-.22.08-.65.11h.08c-.17.11-.48-.03-.56-.06l-1.01.14c.14-.06.65-.17.31-.2.34-.17,1.46.08,1.38-.17-.31-.06-.7.11-.98,0-.08.11-.53.14-.81.2l-.08-.03c-.62.03,0,.23-.65.2-.08-.03.14-.11-.28-.11-.08.03-.22.06-.25.11l.11.03c.11.08-.51.06-.79.06.17-.06.2-.11-.06-.14.51,0,.42-.23.84-.23-.17.06-.62.14-.34.2.38,0,.76-.04,1.12-.14h-.28c-.08-.2.79-.17.9-.34-.14,0-.25.03-.25,0,.03.03.45-.03.67-.03l-.22.08c.65.11.51-.08,1.18-.06-.06.06-1.01.14-.48.2,0-.08.42-.03.48-.11l.45.11c.37-.06.81-.14,1.07-.2-.17.06-.35.11-.53.14.51-.06.76.17,1.12,0l-.31-.03c.27.01.53-.01.79-.08.17-.08-.2-.14-.45-.14.22,0,.65.06.65-.03.18.05.37.03.53-.06.37.03.14.06.17.11.31-.06,1.01,0,.9-.14-.14-.03-.56.03-.37-.06.14.11.22-.06.48-.06-.48.14.59.08.25.2.3,0,.61-.04.9-.11v.08l.53-.06c.11.11-.17.23.34.25.39-.14.25-.31.9-.39l-.11.11c.2.03.79-.03.76-.11-.18-.07-.37-.11-.56-.11h.08c.34-.06-.56-.14.11-.17-.17.17.98.2,1.35.28.22-.06.73-.14.84-.2-.03-.03-.37-.06-.22-.14.84.11,1.26-.17,2.05-.06t.2.03l.11.03c.13-.04.26-.05.39-.03l.62-.03s.11-.03.22-.06h0c.07-.03.15-.05.22-.06.08-.11.45.03.7.06-.05,0-.09.02-.14.03.42.03.65-.2,1.04-.08l.06.03c-.08,0-.14,0-.17.03h.31c.34-.03.25-.08.76-.11l-.28-.03c.08-.02.17-.03.25-.03.52-.1,1.05-.14,1.57-.14.32-.15.66-.24,1.01-.28l-.06.11h.7c-.08.06.25.08.7.06h-.03c.32.06.65.04.96-.06.11-.03.39-.11.42-.06.26-.1.54-.14.82-.14h.14s-.03-.03-.06-.03c.28.03.42-.11.82-.06.53.03-.2.2.48.2l.31-.08c.08.03.03.03-.03.06.28-.03.51.06.65-.08-.51-.03-.62-.08-1.15-.08.65-.08.7-.2,1.24-.25.03-.03-.08-.03-.17-.03.28-.03.53.03.42.08.25,0,.34-.11.7-.17v-.17c.47-.08.96-.09,1.43-.03-.45.03-.82.17-1.12.2.17.28-1.24.17-1.46.28.31.03-.36.14.22.14.27-.07.54-.1.82-.08.22.06-.28.17.39.11-.28-.03.34-.17-.2-.11.87-.17,1.04-.14,1.88-.25-.7.08.28-.17-.14-.2.08.14-1.12.17-.22.17l-.65.08c-.06-.06.65-.14.06-.17.53-.11.73-.06,1.24-.2-.08.08.48.06.56.14.23-.07.46-.1.7-.08l-.36.08c.25,0,.51.02.76.06.22-.03.22-.11.11-.14.53-.03,1.07-.14,1.63-.14-.67.06-.11.14-.67.17l.42.03c.74-.12,1.46-.35,2.14-.67.96-.17.73.17,1.83-.14-.17.03.11.11.06.17.25,0,.49-.03.73-.08l-.45-.06c.53-.14,1.32-.11,1.91-.2-.11.03.08.08-.28.14,0,.06.42.03.62,0,.42-.11.11-.2.62-.31,5.34-.45,10.59-1.12,15.99-1.66v.06c.22-.02.43-.06.65-.11l.25,1.6c-3.33.68-6.7,1.14-10.08,1.38l.03.03c-1.12-.14-.65.34-1.88.17-.95.19-1.9.32-2.86.39l-.08-.08c-.7.25-1.57-.06-2.39.14l-.22.03Z" fill="#b133d0" stroke="#a33dc9"/>
  <path id="Path_4962" data-name="Path 4962" d="m30.84,46.75l-.08-.03c-.2.08-.08.06.08.03Z" fill="#b133d0" stroke="#a33dc9"/>
  <path id="Path_4963" data-name="Path 4963" d="m36.6,46.41c-.14-.07-.3-.1-.45-.08.03.03.07.06.11.08-.48-.03-.79.06-1.35.06.06.03-.11.11.42.03-.22-.06,1.04.08,1.26-.08h0Z" fill="#b133d0" stroke="#a33dc9"/>
  <path id="Path_4964" data-name="Path 4964" d="m25.08,47.68h0s-.04.01-.06.03c0,.03.06-.03.06-.03Z" fill="#b133d0" stroke="#a33dc9"/>
  <path id="Path_4965" data-name="Path 4965" d="m27.95,47.51c-.07,0-.14-.02-.2-.06.07,0,.14.02.2.06Z" fill="#b133d0" stroke="#a33dc9"/>
  <path id="Path_4966" data-name="Path 4966" d="m33.88,47.31c-.2.04-.41.04-.62,0h.62Z" fill="#b133d0" stroke="#a33dc9"/>
  <path id="Path_4967" data-name="Path 4967" d="m68.01,44.45h-.03c-.11.08-.39.03-.51.08-.28,0,.03-.11.17-.14.06,0,.2.03.37.06h0Z" fill="#b133d0" stroke="#a33dc9"/>
  <path id="Path_4968" data-name="Path 4968" d="m63.12,44.73c.12-.03.24-.04.37-.03-.03.03,0,.03.06.03h-.06c.08.03-.03.11-.06.17-.62.08-.34.03-.31-.17Z" fill="#b133d0" stroke="#a33dc9"/>
  <path id="Path_4969" data-name="Path 4969" d="m68.71,43.52s-.09.02-.14.03c.04-.03.09-.04.14-.03Z" fill="#b133d0" stroke="#a33dc9"/>
  <path id="Path_4970" data-name="Path 4970" d="m63.15,44.73c.11.02.22.03.34.03-.03-.03-.14-.03-.34-.03Z" fill="#b133d0" stroke="#a33dc9"/>
  <path id="Path_4971" data-name="Path 4971" d="m16.06,47.48l.17-.03-.34-.03c-.25.01-.5.1-.7.25.46-.07.92-.11,1.38-.11l-.51-.08h0Z" fill="#b133d0" stroke="#a33dc9"/>
  <path id="Path_4972" data-name="Path 4972" d="m16.35,48.07c.09.04.18.07.28.08l.08-.06-.36-.03Z" fill="#b133d0" stroke="#a33dc9"/>
  <path id="Path_4973" data-name="Path 4973" d="m22.72,48.1l-.51-.03c-.17.03.42.11.51.03Z" fill="#b133d0" stroke="#a33dc9"/>
  <path id="Path_4974" data-name="Path 4974" d="m20.42,47.23l-.25.08c.25.03.56.03.62-.06-.34.03-.08-.06-.36-.03Z" fill="#b133d0" stroke="#a33dc9"/>
  <path id="Path_4975" data-name="Path 4975" d="m24.1,48.04c.17-.11.51.03.62-.08-.14.03-.62-.03-.62.08Z" fill="#b133d0" stroke="#a33dc9"/>
  <path id="Path_4976" data-name="Path 4976" d="m23.68,47.03c-.17-.08-.42,0-.76,0,.25.01.51.01.76,0Z" fill="#b133d0" stroke="#a33dc9"/>
  <path id="Path_4977" data-name="Path 4977" d="m26.8,47.59c-.03.08-.22.08-.48.08.08-.03.14-.06.22-.08-.39.08-.42.06-.76.11.34.03.82.06.76.14.28-.08.56-.2.25-.25h0Z" fill="#b133d0" stroke="#a33dc9"/>
  <path id="Path_4978" data-name="Path 4978" d="m24.46,46.97c-.25-.05-.5-.07-.76-.06.06.06.17.11.53.08l-.14.08c.36.06-.11-.11.37-.11Z" fill="#b133d0" stroke="#a33dc9"/>
  <path id="Path_4979" data-name="Path 4979" d="m28.28,47.73l-.17-.03c-.36.04-.72.11-1.07.2.42-.02.83-.08,1.24-.17h0Z" fill="#b133d0" stroke="#a33dc9"/>
  <path id="Path_4980" data-name="Path 4980" d="m25.78,47.09l.06-.14c-.36,0,.03.03-.11.08-.11-.03-.23-.03-.34,0,.42-.03.03.11.39.06Z" fill="#b133d0" stroke="#a33dc9"/>
  <path id="Path_4981" data-name="Path 4981" d="m26.99,46.89l.48-.08-.39-.11c-.53.05,0,.05-.08.2Z" fill="#b133d0" stroke="#a33dc9"/>
  <path id="Path_4982" data-name="Path 4982" d="m27.61,46.92l.06.03.7-.23c-.26.05-.51.12-.76.2h0Z" fill="#b133d0" stroke="#a33dc9"/>
  <path id="Path_4983" data-name="Path 4983" d="m36.38,47.26c.08-.06-.34-.11-.17-.06-.08.06.5.08.17.06Z" fill="#b133d0" stroke="#a33dc9"/>
  <path id="Path_4984" data-name="Path 4984" d="m34.61,46.36c.4-.01.79-.06,1.18-.14-.36.03-1.24.06-1.18.14Z" fill="#b133d0" stroke="#a33dc9"/>
  <path id="Path_4985" data-name="Path 4985" d="m35.87,46.19s-.06.03-.11.03c.03-.02.07-.03.11-.03Z" fill="#b133d0" stroke="#a33dc9"/>
  <path id="Path_4986" data-name="Path 4986" d="m48.2,45.01s.06,0,.08-.03c-.02.02-.05.03-.08.03Z" fill="#b133d0" stroke="#a33dc9"/>
  <path id="Path_4987" data-name="Path 4987" d="m47.92,45.06c-.22,0-.44.04-.65.11.31-.06.59-.08.96-.17-.17.03-.34,0-.31.06h0Z" fill="#b133d0" stroke="#a33dc9"/>
  <path id="Path_4988" data-name="Path 4988" d="m50.76,44.87c-.14.06-.34.06-.28.08s.37-.06.28-.08Z" fill="#b133d0" stroke="#a33dc9"/>
  <path id="Path_4989" data-name="Path 4989" d="m69.97,44.56c.28,0,.42-.03.34-.11-.28.06-.11.08-.34.11Z" fill="#b133d0" stroke="#a33dc9"/>
  <path id="Path_4990" data-name="Path 4990" d="m70.68,44.39l.06.03.17.06-.23-.08Z" fill="#b133d0" stroke="#a33dc9"/>
  <path id="Path_4991" data-name="Path 4991" d="m72.56,44.31s-.06.03-.11.06c.11-.06.2-.06.11-.06Z" fill="#b133d0" stroke="#a33dc9"/>
  <path id="Path_4992" data-name="Path 4992" d="m72.42,44.36h.06s-.04-.02-.06,0c0,0,0,0,0,0Z" fill="#b133d0" stroke="#a33dc9"/>
  <path id="Path_4993" data-name="Path 4993" d="m72.28,44.33l-.03.06s.09-.02.14-.03c-.04,0-.08,0-.11-.03Z" fill="#b133d0" stroke="#a33dc9"/>
  <path id="Path_4994" data-name="Path 4994" d="m73.12,44.25l-.36-.08c-.36.11.42.03.08.17l.28-.09Z" fill="#b133d0" stroke="#a33dc9"/>
  <path id="Path_4995" data-name="Path 4995" d="m72.67,42.68c-.34.03-.79.31-1.01.2-.93.25.25.2-.82.45,1.04-.11.48-.37,1.4-.45-.45,0,.28-.11.42-.2h0Z" fill="#b133d0" stroke="#a33dc9"/>
  <path id="Path_4996" data-name="Path 4996" d="m72.9,42.9c.03-.08-.39,0-.51.06.17.03.35.02.51-.06Z" fill="#b133d0" stroke="#a33dc9"/>
  <path id="Path_4997" data-name="Path 4997" d="m70.85,43.1l-.31-.03-.08.06.39-.03Z" fill="#b133d0" stroke="#a33dc9"/>
  <path id="Path_4998" data-name="Path 4998" d="m69.73,43.24l.28-.11c-.12.03-.54.08-.28.11Z" fill="#b133d0" stroke="#a33dc9"/>
  <path id="Path_4999" data-name="Path 4999" d="m68.18,43.35c-.28,0-.48.23.08.11h-.14s-.31-.06.06-.11Z" fill="#b133d0" stroke="#a33dc9"/>
  <path id="Path_5000" data-name="Path 5000" d="m64.61,44.11c.2-.03.39-.06.37-.11l-.51.08.14.03Z" fill="#b133d0" stroke="#a33dc9"/>
  <path id="Path_5001" data-name="Path 5001" d="m64.75,44.56c.2.08.48-.06.82-.06-.39.03-.34,0-.82.06Z" fill="#b133d0" stroke="#a33dc9"/>
  <path id="Path_5002" data-name="Path 5002" d="m64.02,44c.15-.05.32-.07.48-.06-.16-.04-.33-.02-.48.06Z" fill="#b133d0" stroke="#a33dc9"/>
  <path id="Path_5003" data-name="Path 5003" d="m63.2,44.14c-.17-.03.03-.06-.11-.08-.31-.03-.63,0-.93.11.11.03.25.17.11.23.56-.08.84-.34,1.12-.2l.45-.25c-.45,0-.31.17-.65.2Z" fill="#b133d0" stroke="#a33dc9"/>
  <path id="Path_5004" data-name="Path 5004" d="m64.41,44.39l-.31-.03c.06.06-.17.08-.31.14.06.14.45-.08.62-.11Z" fill="#b133d0" stroke="#a33dc9"/>
  <path id="Path_5005" data-name="Path 5005" d="m60.06,44.5l-.65.08h.2l.45-.08Z" fill="#b133d0" stroke="#a33dc9"/>
  <path id="Path_5006" data-name="Path 5006" d="m59.64,44.5l-.03-.06-.48.11.51-.06Z" fill="#b133d0" stroke="#a33dc9"/>
  <path id="Path_5007" data-name="Path 5007" d="m58.93,44.5h.08l.39-.08-.48.08Z" fill="#b133d0" stroke="#a33dc9"/>
  <path id="Path_5008" data-name="Path 5008" d="m57.59,44.56l.11.06c.17-.03.51.03.45-.06-.18.04-.38.04-.56,0h0Z" fill="#b133d0" stroke="#a33dc9"/>
  <path id="Path_5009" data-name="Path 5009" d="m53.18,46.38c.11-.06.06-.08-.03-.11l-.2.11c.06,0,.17-.03.23,0h0Z" fill="#b133d0" stroke="#a33dc9"/>
  <path id="Path_5010" data-name="Path 5010" d="m52.36,46.24l-.48.14c.38-.03.75-.07,1.12-.14-.2-.03-.51.06-.76.03l.11-.03h0Z" fill="#b133d0" stroke="#a33dc9"/>
  <path id="Path_5011" data-name="Path 5011" d="m42.61,46.33c.06-.08-.06-.06.31-.11-.51.06-.93.03-1.49.06.08.06-.34.14-.11.11l.62-.06-.08.06c.45.03.28-.11.76-.06h0Z" fill="#b133d0" stroke="#a33dc9"/>
  <path id="Path_5012" data-name="Path 5012" d="m17.22,45.29c.06-.03-.03-.08-.08-.11-.37.03.17.11.08.11Z" fill="#b133d0" stroke="#a33dc9"/>
  <path id="Path_5013" data-name="Path 5013" d="m72.33,3.43c-.48.17.17,0,.76-.08l-.76.08Z" fill="#b133d0" stroke="#a33dc9"/>
  <path id="Path_5014" data-name="Path 5014" d="m73.09,3.35l.53-.06c-.18,0-.36.03-.53.06Z" fill="#b133d0" stroke="#a33dc9"/>
  <path id="Path_5015" data-name="Path 5015" d="m78.06,2.78c-1.12.23-2.5.28-3.2.51,1.08-.06,2.15-.23,3.2-.51Z" fill="#b133d0" stroke="#a33dc9"/>
  <path id="Path_5016" data-name="Path 5016" d="m76.35,2.92l-.14.08.98-.23-.84.14Z" fill="#b133d0" stroke="#a33dc9"/>
  <path id="Path_5017" data-name="Path 5017" d="m75.62,2.95h.14l1.55-.25-1.69.25Z" fill="#b133d0" stroke="#a33dc9"/>
  <path id="Path_5018" data-name="Path 5018" d="m81.91,2.34l-1.12.17c-1.07.06.7-.22-.03-.17-1.43.2-.48.25-2.25.45.14.06,2.84-.37,2.58-.2,1.49-.16.03-.11.81-.25Z" fill="#b133d0" stroke="#a33dc9"/>
  <path id="Path_5019" data-name="Path 5019" d="m88.68,66.64v.17c0-.06.03-.11,0-.17Z" fill="#b133d0" stroke="#a33dc9"/>
  <path id="Path_5020" data-name="Path 5020" d="m84.56,83.89c-.26.03-.51.08-.76.14.1,0,.21,0,.31-.03l.45-.11Z" fill="#b133d0" stroke="#a33dc9"/>
  <path id="Path_5021" data-name="Path 5021" d="m88.26,54.79c0-.25,0-.51.03-.76-.03.25-.04.51-.03.76Z" fill="#b133d0" stroke="#a33dc9"/>
  <path id="Path_5022" data-name="Path 5022" d="m1.65,82.06c0,.06.03.08.03.11v-.03l-.03-.22v.14Z" fill="#b133d0" stroke="#a33dc9"/>
  <path id="Path_5023" data-name="Path 5023" d="m63.65,87.88c-.31.06-.59.08-.84.14.28-.03.57-.08.84-.14Z" fill="#b133d0" stroke="#a33dc9"/>
  <path id="Path_5025" data-name="Path 5025" d="m89.13,79.45c-.03.28-.06.53-.08.76.06-.25.08-.5.08-.76Z" fill="#b133d0" stroke="#a33dc9"/>
  <path id="Path_5026" data-name="Path 5026" d="m87.06,15.03c0,.28,0,.56.03.84,0-.22,0-.51-.03-.84Z" fill="#b133d0" stroke="#a33dc9"/>
  <path id="Path_5027" data-name="Path 5027" d="m87.17,21.8v-.03s0,.06,0,.03Z" fill="#b133d0" stroke="#a33dc9"/>
  <path id="Path_5028" data-name="Path 5028" d="m87.22,26.13v-.08c-.03.06-.03.08,0,.08Z" fill="#b133d0" stroke="#a33dc9"/>
  <path id="Path_5029" data-name="Path 5029" d="m87.08,15.85c-.14.48-.14.98,0,1.46l.03-.14c-.03.42.06,1.07.06,1.57.03-.06.04-.13.03-.2v-1.09c0-.53-.05-1.07-.11-1.6h0Z" fill="#b133d0" stroke="#a33dc9"/>
  <path id="Path_5035" data-name="Path 5035" d="m19.27,6.86c-.45.08-.7.06-1.12.11-.9.25,1.91-.25.59.03.42-.06.73-.11,1.04-.17l-.62-.03c-.81.14.53-.06.11.06h0Z" fill="#b133d0" stroke="#a33dc9"/>
  <path id="Path_5036" data-name="Path 5036" d="m1.96,76.56v.2c.06-.14.06,0,.11-.73-.08-.62-.2.34-.28-.73,0,.2,0,.53-.03.82.06-.45.14-.03.2.45h0Z" fill="#b133d0" stroke="#a33dc9"/>
  <path id="Path_5037" data-name="Path 5037" d="m1.76,76.08v.03c0,.06-.03.11-.03.17,0,.14,0,.28-.03.42.03-.11.03-.34.06-.62Z" fill="#b133d0" stroke="#a33dc9"/>
  <path id="Path_5038" data-name="Path 5038" d="m4.71,8.96c-.16.03-.32.05-.48.06.16,0,.32-.01.48-.06Z" fill="#b133d0" stroke="#a33dc9"/>
  <path id="Path_5039" data-name="Path 5039" d="m64.78,86.22c.23-.06.42-.08.59-.11-.34.06-.48.08-.59.11Z" fill="#b133d0" stroke="#a33dc9"/>
  <path id="Path_5040" data-name="Path 5040" d="m1.93,86.95c.03.17.06.31.08.48.03.1.06.19.11.28-.06-.25-.14-.51-.2-.76Z" fill="#b133d0" stroke="#a33dc9"/>
  <path id="Path_5041" data-name="Path 5041" d="m.98,52.14c.11.37,0-.28.08-1.04l-.06-.7c-.03.65-.03,1.21-.03,1.74h0Z" fill="#b133d0" stroke="#a33dc9"/>
  <path id="Path_5043" data-name="Path 5043" d="m1.17,31.64c0-.11,0-.23.03-.34-.03.11-.04.22-.03.34Z" fill="#b133d0" stroke="#a33dc9"/>
  <path id="Path_5044" data-name="Path 5044" d="m1.65,80.18l-.03,2.64.03-.76c-.06-.36.08-1.52,0-1.88h0Z" fill="#b133d0" stroke="#a33dc9"/>
  <path id="Path_5045" data-name="Path 5045" d="m.87,56.98c.13-.81.17-1.63.14-2.44-.03-.22-.14.2-.06-.7l.14.87c.06-1.26.06-2.64,0-3.62l.03-1.52.06.45c.06-1.09.07-2.17.03-3.26.06.39.17,1.12.2.06l-.06-.9c.03-.14.06.34.03-1.18-.08.39-.06-1.26.06-1.63-.08.14-.17,1.12-.25,1.12.08-1.54-.2-1.21-.11-2.61l.08.2c.03-.91,0-1.82-.06-2.72l.06.11c.08-2.05-.03-3.43.17-4.8l-.06-1.13c.03.31.06.2.08-.31.03-.84-.08-2.19-.14-1.74.17-2.75,0-3.62.08-6.77.08.23.03-1.18.11-.62l-.03-.98c0,.14.03.03.06-.03.02-.22.01-.45-.03-.67l.03.08.03-1.35-.08-.06.08-.95c.11.65,0,2.11.11,2.39.1-1.11.12-2.23.06-3.34l.08-2.64c.06-.11.03.08.06-.76.03-.7-.03-.73,0-1.66-.01.18,0,.36.03.53.03-.72-.01-1.45-.11-2.16-.03.56.03,1.1.03,1.55-.03.14-.03-.03-.06.06l.03,1.29c-.06-.08,0-.23-.06.53,0-.87.03-1.07,0-2.02-.06-.48-.11.56-.17-.03,0-.9,0-1.77.03-2.61.03-1.04.03-1.99.06-2.92.59-.08,1.15-.17,1.71-.25.39-.06.76-.11,1.12-.17.73-.11,1.46-.2,2.16-.31,1.43-.2,2.81-.36,4.19-.56,2.81-.36,5.68-.79,9.19-1.4.96-.03,3.46-.26,4.41-.43h-.31c1.29-.22,1.71-.08,2.7-.31l1.01-.25c.54-.07,1.08-.11,1.63-.11.91-.08,1.81-.23,2.7-.45,1.91-.2,3.01-.25,4.83-.48-.05.01-.09.02-.14.03.39.03.87-.2,1.38-.17-.25.06-1.74.22-.53.14,1.26-.2,2.52-.3,3.79-.31.48-.06.93-.11,1.32-.2.67-.03,1.57,0,.53.11,1.97-.22,2.05-.08,2.39-.28,2.28-.31,3.79-.22,5.93-.53,3.4-.2,6.83-.39,9.52-.34l.2-.06c-.51.17,2.13.11,1.12.25,1.13-.12,2.26-.18,3.4-.17l-.45.08c-1.63,0-.45.06-2.44.11.2-.03.37-.03.31-.06-1.07.06-3.15.17-4.21.25l.25-.03c-1.66.06-2.39.34-4.05.51-1.26-.03.25-.08,0-.22-1.83.11-1.29.56-2.92.39l.42-.06c-2.22.14.96-.14-.67-.11-3.54.28,1.15.17-1.97.48.25-.11-.45-.11-1.21-.11-.51.17-2.92.42-3.93.65-.54-.07-1.09-.05-1.63.06.75-.13,1.5-.2,2.26-.22.17-.06.56-.17.03-.2-.96.28-4.52.53-5.37.82.51-.11-.76-.03-.7-.11-.53.14-1.52.22-1.83.28l.87-.06c-1.63.08-3.68.48-5.62.7l.03-.03c-1.38.2-2.5.42-4.05.59.73-.14,0-.17-.28-.17-.34-.11,2.64-.53.93-.42-1.25.3-2.52.53-3.79.67-.53.17.9.03,1.38-.03-1.4.23-3.57.39-4.24.59.56-.08.79-.08.76-.03h-.09c-.08.01-.15.03-.23.06-.17.03-.42.11-.67.17-.53.11-1.12.25-1.43.28.31-.11-.06-.03.42-.17-.62.05-1.24.14-1.85.28.06-.17,2-.28,1.8-.45-2.89.34-3.48.59-5.96,1.04-1.12.14-1.91.28-3.03.39.14-.03.51-.08.36-.08-2.28.2-1.66.28-3.43.42-1.01.28-3.37.62-4.86.84.15-.07.31-.13.48-.17-.51.08-.98.17-1.46.25-.22.03-.45.08-.65.11l-.14.08.03.17v1.99c0,.9-.03,1.83-.08,2.78l-.03-.08c-.03,1.77,0,3.37-.08,5.37.03-.23,0-.47-.06-.7-.11,2.58.03,4.66-.06,7.47-.08.76-.06,2.44-.2,2.14-.03,2.3.2-.9.14,1.32v-.22c.06,2.87-.11,5.37-.06,8.06-.06.62-.14,1.57-.17,2.87.06.48.08,1.38.14,2.19-.03.65-.06,1.26-.08,2.19.11-1.15.06.76.08,1.15-.08-.62-.11.22-.17-1.04-.11,2.44.23,1.52.11,4.04l-.11.42c.03-.48,0-.96,0-1.46-.03.48-.11,2.02-.06,2.87.06.39.11-1.94.14.11-.17-.17,0,1.46-.17,2.36.09.64.12,1.29.08,1.94-.03.11-.03-.03-.06-.11-.06,1.57.14.51.11,1.94-.06.25-.11-.87-.17-.11-.11,1.18.06.76-.03,2.08.06-.39.17.11.2.93-.08.08-.23.08-.23-1.24-.06.67-.14,1.85-.23.73.11,1.66.08,3.96.17,5.76-.06.51-.09,1.03-.09,1.54.12.72.18,1.44.2,2.16.06.39.08-.22.11-.28l.03,1.32c-.06.82-.14-1.01-.2-.51l-.06,1.26c.06,1.12.17.2.23-.14-.11,1.18.06,1.49,0,2.3-.03-1.74-.23.87-.2-1.35l-.06.9c-.07-.48-.12-.97-.14-1.46-.06,1.4.06,1.77,0,3.12-.11-.36.03-1.63-.11-2.3-.11,1.66,0,2.84-.14,3.32.05-.8.04-1.59-.03-2.39-.21.76-.28,1.55-.2,2.33.06.53.11-.42.14-1.15l.03-.11.08-.08c-.03.73,0,1.88,0,2.67-.03.14-.03.31-.06.51.02-.02.02-.03.03-.06,0,.11-.03.2-.03.25-.03.9.08,2.05,0,2.84l-.03-1.54c-.13.75-.2,1.51-.2,2.28-.03,1.01-.06,3.18.08,2.84v-.79c.17.39-.11,1.91.08,1.71.01-.27.01-.54,0-.82.06.67.14.56.23-.53l-.11-.84c.14-.98-.03-1.69.06-2.87.06.06.06-.17.08.11-.06,1.06-.06,2.12,0,3.18.03-1.32.11.06.14-.65-.03,1.97.17.87.14,2.98-.05-.27-.09-.54-.11-.82-.03.57,0,1.15.08,1.71.08.31.17.51.25.84.04.36.09.72.17,1.07.11.41.34.78.66,1.06.23.28.55.47.9.53.22.03.39.06.95.11-.25.05-.51.04-.76-.03-.34-.09-.66-.23-.95-.42.06.06.11.08.17.14-.04-.03-.09-.04-.14-.06.19.17.41.29.65.36.28.08.56.14.84.17.53.06.87.06.45.14-.85-.03-1.67-.34-2.33-.87-.62-.63-1.02-1.45-1.12-2.33-.07-.62-.09-1.25-.06-1.88-.08-.22-.2-.31-.28.39.03.38.1.76.2,1.12.06.25.11.56.31,1.32.14.55.42,1.06.82,1.46.38.38.86.64,1.38.76-.05-.05-.11-.1-.17-.14.35.1.71.18,1.07.22.39.03.84.06,1.24.06.47.04.94.02,1.4-.06-.17.06.39.11.98.08l-.79.06c.37.08,2.33.14,1.71.2,1.94.06,1.85-.06,3.76,0,1.52.03,2.08-.31,4.66-.28.48.11-1.85.11-.73.22,1.34.04,2.69-.04,4.02-.25-.76-.03-.08-.08-.08-.17h1.07c-.23.11-.56-.03-1.12.11.62.03.98.06,1.97.03l-.45.08c.59-.06,1.18-.06,1.77,0l1.4-.17c.92.02,1.84-.03,2.75-.17l-.95-.03h1.24c.84-.08-.76-.08.65-.17-.95.17,1.35.03,1.26.2-.65.03-1.85.06-1.63.14.68,0,1.35.02,2.02.08-.11-.03,1.01-.06,1.04-.08l-.9-.31c.62-.11,1.57.22,2.36.17-1.35.11.25.03,0,.11.81-.08,1.66-.17,2.5-.25.84-.11,1.71-.2,2.53-.25l-.45.11c1.12-.14.84,0,2.22-.17.53-.08-1.15.08-.2-.06,5.7-.42,11.63-1.01,16.94-1.71,1.05,0,2.09-.1,3.12-.28.51-.11.03-.11-.53,0,1.1-.22,1.6-.31,2.7-.45.74,0,1.47-.1,2.19-.28-.31.11.17.11-1.38.28.42-.03-1.94.48.22.17,1.97-.45,4.27-.96,6.69-1.35,1.38-.22,2-.39,2.67-.45l-.36.11c.37-.04.73-.13,1.07-.28,1.15-.2.53.06.2.17,1.32-.25,2.14-.48,2.98-.67s1.69-.42,3.09-.67c.46.03.93-.02,1.38-.14,1.01-.22,1.97-.45,2.92-.65.87-.13,1.72-.41,2.5-.82.3-.21.55-.5.7-.84.17-.39.27-.81.28-1.24.05-.49.07-.97.06-1.46v-1.6l.08-1.1-.17-1.07c.08-4.16.03-7.75.03-12.19.03.45.03.98.06,1.18-.03-1.43-.28-2.89-.25-4.16-.06-.03.11,0,.14.08-.06-1.66-.25-2.58-.31-4.41.03-.25.08.81.14.17l-.03-1.1c.06.84.08-.59.11-.31-.01.23-.01.47,0,.7.06-.03.06-1.01.11-1.63-.03-.48-.06-.84-.11-.42.03-.79.06-.14.11-.14.03-1.07-.03-1.18-.11-1.32-.09.26-.13.54-.11.81.06-1.15.06-2.5.14-3.23l-.08-.65.03-.14c-.03-.06-.06-.08-.06-.11v.14c-.25-3.23-.2-7.98-.36-11.77v-3c.14,1.49.11,3.93.2,4.58l-.03-.65c0,.43.05.86.11,1.29l.06-.93c.03-1.43-.25-.79-.08-2.16.06,1.94.08-.73.17.56.02-.62-.03-1.24-.14-1.85,0,.48.03.96,0,1.35-.01-.77-.07-1.54-.17-2.3-.01-.18,0-.36.03-.53-.02-.27.01-.53.08-.79v-.48c-.15-.56-.2-1.14-.17-1.71,0-.23.08.51.11.56.11-1.71.06-3.32.08-5.31,0,.43-.05.87-.14,1.29,0-.2-.03-.42-.03-.65-.05-.26-.07-.52-.08-.79l.06.48c.01-.48,0-.96-.06-1.43-.08-.35-.08-.72,0-1.07,0,.21.01.41.06.62,0-.48,0-.93-.03-1.43.11-.38.16-.78.14-1.18l-.17.28c.05-.78.06-1.55.03-2.33.2-1.1-.17-4.27.03-4.55l.03,1.66c.11-.56.28,1.49.34.84l-.14-2.08c-.11,1.88-.22-1.94-.36-1.57.05-.81.04-1.63-.03-2.44.03-.73.11.56.14-.28-.07-.43-.1-.86-.11-1.29.03.06.06.36.08.23-.01-.57-.06-1.15-.14-1.71v.23c-.07-.5-.05-1.02.06-1.52l-.08-1.35c-.02-.43-.09-.85-.2-1.26.11.26.18.54.22.82.06.25.08.39.08-.03.2.93-.08,3.88.2,3.71.06-.79-.13-1.94-.02-2.64-.14-.2-.06-1.46-.42-2.14-.03-.06-.03-.14-.06-.2-.08-.13-.18-.25-.28-.36-.06-.06-.13-.11-.2-.14-.08-.06-.11-.03-.14,0s-.06.03-.14-.03c-.22-.09-.44-.17-.67-.22-.08-.03,0-.06-.03-.08,0-.03-.11-.08-.65-.08-.24.01-.47.05-.7.11h.28c.14.03-.17.06-.65.11s-1.07.11-1.46.17c.42-.11.56-.2-.17-.11.41-.04.82-.12,1.21-.25.33-.12.68-.19,1.04-.2-.42.06-1.63.31-.9.28.48-.03.9-.08,1.38-.11.53-.06,1.06.05,1.52.31-.21-.14-.45-.25-.7-.31.03-.17.14-.2.34-.17.27.05.52.17.73.34.25.19.45.44.59.73.08.19.18.38.28.56-.08-.39-.22-.67-.2-.7,0,.06.14.37.22.76.07.37.11.75.11,1.12-.02-.2-.06-.4-.11-.59,0,.45-.03.73-.03.98,0,.22.03.42.03.59.06.53.08,1.07.06,1.6-.06-.14-.14-2.72-.2-1.29.08,0,.03,1.15.11,1.29l-.11,1.15c.06,1.01.14,2.22.2,2.87-.08-.51-.08-.87-.14-1.43-.06,1-.06,2,0,3.01l.03-.79c-.02.69.01,1.39.08,2.08.08.42.14-.51.14-1.15-.04.57-.03,1.14.03,1.71-.05.48-.03.96.06,1.43-.03,1.01-.06.36-.14.45.06.87,0,2.73.14,2.44.03-.36-.03-1.49.06-1.01-.11.36.06.56.03,1.29-.14-1.29-.08,1.57-.2.65-.01.82.02,1.63.11,2.44h-.08l.06,1.43c-.11.28-.22-.51-.25.87.21.79.34,1.6.39,2.42l-.14-.34c-.04.67,0,1.34.11,2,.08-.5.11-1.01.11-1.52v.23c.06.93.14-1.52.14.34-.17-.51-.22,2.58-.31,3.6.06.65.14,1.94.2,2.3.03-.08.06-1.01.14-.59-.11,2.28.17,3.4.03,5.51,0-.06-.03-.06-.03.53l-.03.28c.03.34.03.76.03,1.1v1.65c0,.21.02.41.06.62h0c.04.19.05.39.03.59.03.62.01,1.24-.06,1.85,0-.14,0-.28-.03-.42-.03,1.15.17,1.71.06,2.81l-.03.17v.34c0,.9.06.73.08,2.08l.03-.73v.67c.06.81.14,2.98.08,4.21.15.9.24,1.81.25,2.72l-.11-.2v1.88c-.12.6-.15,1.22-.08,1.83v-.06c-.08.85-.07,1.71.03,2.56.04.37.06.75.06,1.12.1.74.15,1.48.14,2.22v.36s.02-.09.03-.14c-.06.79.11,1.15.03,2.16-.03,1.46-.17-.53-.2,1.24l.06.84c-.03.22-.03.06-.03-.06-.03.57-.01,1.15.06,1.71.06-1.32.11-1.63.11-3.06.06,1.71.17,1.94.2,3.37.03.08.03-.22.03-.45.03.79-.03,1.46-.08,1.1,0,.7.11.9.14,1.88l.17.06c.03.65.06,1.32.03,2,0,.34-.03.65-.03.96s-.03.62-.03.9c.01-.56,0-1.13-.06-1.69-.03-.51-.06-.96-.08-1.38-.28.42-.14-3.37-.25-3.96-.03.79-.14-1.01-.14.56.06.74.08,1.48.06,2.22-.08.56-.14-.79-.11,1.01.03-.76.17.93.11-.48.08,1.15.08,1.88.11,2.56,0,.34.03.7,0,1.12,0,.52-.05,1.04-.17,1.54.14-.51.14-.73.17-.76s.03.11.03.28c0,.34-.08.79.11.14-.03.06-.03-.14,0-.42.03-.25.03-.59.03-.84v-.39c0,.06,0,.31-.06.96.04-.59.04-1.18,0-1.77.03-.08.06.34.08.62s.06.36.08-.39c.05.6.04,1.2-.03,1.8-.02.28-.07.55-.14.82-.09.36-.21.7-.36,1.04.06-.17-.14.17-.51.51-.17.16-.36.3-.56.42-.12.08-.25.14-.39.17-.6.33-1.26.55-1.94.65.31-.08.67-.2,1.01-.31-.35.1-.71.16-1.07.2-.25.03-.51.06-.93.14-.56.14-.62.22-.34.2-1.43.25-2.78.65-4.3.9,1.8-.34.28-.2,1.74-.48l-1.1.17c-2.05.53-5.17,1.32-5.65,1.57-2.53.53-1.91.11-4.89.84.42-.08-.31-.06-.11-.14-.51.08-1.38.2-1.94.31l1.21-.11c-1.4.31-3.48.56-5.11.82.34-.08-.22-.06.73-.22-.55.02-1.09.08-1.63.17-1.15.22-.31.22-1.66.48-14.26,2-28.64,3-43.03,2.99l.03-.06c-.56,0-1.12.03-1.71.03h-1.74c-1.15,0-2.33,0-3.54-.03l-3.59-.08c-.62-.03-1.21-.03-1.85-.06-.69-.04-1.36-.17-2.02-.36-.73-.26-1.37-.71-1.85-1.32-.44-.58-.75-1.25-.9-1.97-.24-1.28-.31-2.58-.22-3.88.06-2.44.08-4.92.11-7.3l-.03.11c.28-2.92-.25-1.83.06-5.03-.23-2.08.05-5.12-.08-7.73l.08-.22c-.08-1.88.28-4.1.14-6.38h0Z" fill="#b133d0" stroke="#a33dc9"/>
  <path id="Path_5046" data-name="Path 5046" d="m88.07,39.45l.03-.2c-.08-.53-.06-.25-.03.2Z" fill="#b133d0" stroke="#a33dc9"/>
  <path id="Path_5047" data-name="Path 5047" d="m88.29,54.93c.07-.4.1-.8.08-1.21-.05.1-.08.2-.08.31.03-1.29-.03-2.11-.03-3.57-.03.11-.11-.37-.03,1.12.06-.65-.11,2.73.06,3.34h0Z" fill="#b133d0" stroke="#a33dc9"/>
  <path id="Path_5048" data-name="Path 5048" d="m87.2,24h0c0-.08-.03-.14-.03-.2l.03.2Z" fill="#b133d0" stroke="#a33dc9"/>
  <path id="Path_5049" data-name="Path 5049" d="m87.34,31.66c0-.17.02-.34.06-.51,0,.17-.01.34-.06.51Z" fill="#b133d0" stroke="#a33dc9"/>
  <path id="Path_5050" data-name="Path 5050" d="m87.45,47.48c-.04-.55-.04-1.11,0-1.66v1.66Z" fill="#b133d0" stroke="#a33dc9"/>
  <path id="Path_5051" data-name="Path 5051" d="m31.37,89.7h.08c.31-.08,1.01-.03,1.38-.11.76,0-.06.11-.51.14-.32.02-.64,0-.96-.03Z" fill="#b133d0" stroke="#a33dc9"/>
  <path id="Path_5052" data-name="Path 5052" d="m1.62,75.21c0,.25,0,.62-.03.98,0-.08-.03,0-.06.11v-.11c-.06.23-.11-.11-.14-.2.03-1.66.06-.9.22-.79h0Z" fill="#b133d0" stroke="#a33dc9"/>
  <path id="Path_5053" data-name="Path 5053" d="m3.79,89.2c-.1-.04-.2-.1-.28-.17.08.07.18.13.28.17Z" fill="#b133d0" stroke="#a33dc9"/>
  <path id="Path_5054" data-name="Path 5054" d="m1.62,75.3s-.03.39-.06.9c.05-.3.07-.6.06-.9Z" fill="#b133d0" stroke="#a33dc9"/>
  <path id="Path_5055" data-name="Path 5055" d="m84.27,1.63c.14,0,.28-.03.45-.03-.3-.03-.6-.03-.9,0-.63.06-1.24.21-1.83.45.65-.11,1.15-.2,1.71-.28.28-.03.59-.06.9-.06.38-.01.76.02,1.12.11-.47-.15-.97-.22-1.46-.2h0Z" fill="#b133d0" stroke="#a33dc9"/>
  <path id="Path_5056" data-name="Path 5056" d="m85,2.22c.2.05.4.12.59.2h.17c-.24-.12-.5-.18-.76-.2Z" fill="#b133d0" stroke="#a33dc9"/>
  <path id="Path_5057" data-name="Path 5057" d="m86.8,17.62l.03-1.38c-.06-.42-.11,1.15-.03,1.38Z" fill="#b133d0" stroke="#a33dc9"/>
  <path id="Path_5058" data-name="Path 5058" d="m87.67,11.55l-.06-.7c-.05.55-.03,1.11.06,1.66-.08-.9,0-.22,0-.96Z" fill="#b133d0" stroke="#a33dc9"/>
  <path id="Path_5059" data-name="Path 5059" d="m86.86,21.27c.11.42-.03,1.38.08,1.63,0-.54-.02-1.09-.08-1.63Z" fill="#b133d0" stroke="#a33dc9"/>
  <path id="Path_5060" data-name="Path 5060" d="m87.87,20.31c.04-.67.04-1.35,0-2.02.03.7-.08,1.71,0,2.02Z" fill="#b133d0" stroke="#a33dc9"/>
  <path id="Path_5061" data-name="Path 5061" d="m87.28,28.57c-.1-.42-.12-.86-.08-1.29.03.22.06.36.08.65-.08-1.07-.06-1.15-.11-2.02-.03.87-.06,2.16-.17,2.02.08.67.2,1.46.28.65h0Z" fill="#b133d0" stroke="#a33dc9"/>
  <path id="Path_5062" data-name="Path 5062" d="m87.9,22.37c.03-.73.08-1.15.06-2.02-.13.47-.17.95-.11,1.43l-.08-.36c-.03.98.14-.31.14.96Z" fill="#b133d0" stroke="#a33dc9"/>
  <path id="Path_5063" data-name="Path 5063" d="m87.11,32.54l.03-.42c-.08-1.01-.06-2.3-.2-2.87.06,1.21.11,2.72.17,3.29h0Z" fill="#b133d0" stroke="#a33dc9"/>
  <path id="Path_5064" data-name="Path 5064" d="m87.79,25.91l.14.14c0-1.01-.03.08-.08-.28,0-.28.03-.73,0-.93.03,1.12-.11.06-.06,1.07Z" fill="#b133d0" stroke="#a33dc9"/>
  <path id="Path_5065" data-name="Path 5065" d="m87.98,29.19l.08,1.29.11-1.01c-.06-1.49-.08-.06-.2-.28Z" fill="#b133d0" stroke="#a33dc9"/>
  <path id="Path_5066" data-name="Path 5066" d="m87.93,30.79l-.03.14.23,1.94c-.11-1.15-.08-1.24-.2-2.08h0Z" fill="#b133d0" stroke="#a33dc9"/>
  <path id="Path_5067" data-name="Path 5067" d="m87.45,54.19c.06.23.11-.93.06-.42-.06-.22-.08,1.29-.06.42Z" fill="#b133d0" stroke="#a33dc9"/>
  <path id="Path_5068" data-name="Path 5068" d="m88.4,49.56c-.03.56.06,2.36.11,3.15-.03-.93-.06-3.26-.11-3.15Z" fill="#b133d0" stroke="#a33dc9"/>
  <path id="Path_5069" data-name="Path 5069" d="m88.54,53.04c0-.1,0-.21-.03-.31,0,.1,0,.21.03.31Z" fill="#b133d0" stroke="#a33dc9"/>
  <path id="Path_5070" data-name="Path 5070" d="m84.02,84.23c-.08.03-.17.03-.23.06.08,0,.15-.03.23-.06Z" fill="#b133d0" stroke="#a33dc9"/>
  <path id="Path_5071" data-name="Path 5071" d="m84.78,84.03c.25-.06.65-.14,1.01-.25.27-.08.54-.18.79-.31-.42.15-.85.28-1.29.39-.42.11-.82.23-1.29.34.39-.06.84-.11.79-.17h0Z" fill="#b133d0" stroke="#a33dc9"/>
  <path id="Path_5072" data-name="Path 5072" d="m77.28,85.55c.39-.11.93-.2.79-.23-.22,0-1.04.23-.79.23Z" fill="#b133d0" stroke="#a33dc9"/>
  <path id="Path_5073" data-name="Path 5073" d="m26.15,89.56c-.73,0-1.15.03-.96.08.32,0,.64-.03.96-.08Z" fill="#b133d0" stroke="#a33dc9"/>
  <path id="Path_5074" data-name="Path 5074" d="m24.27,89.7l-.11-.06-.48-.03.59.08Z" fill="#b133d0" stroke="#a33dc9"/>
  <path id="Path_5075" data-name="Path 5075" d="m19.21,89.65c.1-.01.21-.02.31-.03-.28,0-.53.03-.31.03Z" fill="#b133d0" stroke="#a33dc9"/>
  <path id="Path_5077" data-name="Path 5077" d="m20,89.62l.06-.03c-.13,0-.26,0-.39.03h.34Z" fill="#b133d0" stroke="#a33dc9"/>
  <path id="Path_5078" data-name="Path 5078" d="m17.69,89.65l.96.11c1.01-.06-1.12-.06-.17-.2.03,0-.79.09-.79.09Z" fill="#b133d0" stroke="#a33dc9"/>
  <path id="Path_5079" data-name="Path 5079" d="m14.35,89.68c-.92.05-1.84.04-2.75-.03-2.61,0,.59.25-2.39.23,2.81.14,1.43-.23,3.93-.11-1.21-.11.81-.06,1.21-.08h0Z" fill="#b133d0" stroke="#a33dc9"/>
  <path id="Path_5080" data-name="Path 5080" d="m14.8,89.9c-.45-.08-.92-.09-1.38-.06.45.08.92.1,1.38.06Z" fill="#b133d0" stroke="#a33dc9"/>
  <path id="Path_5081" data-name="Path 5081" d="m9.26,89.65l-.78-.08-.2.03.98.06Z" fill="#b133d0" stroke="#a33dc9"/>
  <path id="Path_5082" data-name="Path 5082" d="m6.26,89.54l.79-.06h-.73c-.23,0-.36,0-.06.06h0Z" fill="#b133d0" stroke="#a33dc9"/>
  <path id="Path_5083" data-name="Path 5083" d="m3.11,88.36c-.07-.11-.14-.21-.22-.31-.04-.06-.09-.12-.14-.17-.03,0-.03.03,0,.14.08.19.19.36.34.51l-.17-.23s-.03-.11-.03-.17,0-.03.23.23h0Z" fill="#b133d0" stroke="#a33dc9"/>
  <path id="Path_5084" data-name="Path 5084" d="m2.05,79.37c0,.51,0,1.1.06.98l-.03-1.38s-.03.39-.03.39Z" fill="#b133d0" stroke="#a33dc9"/>
  <path id="Path_5085" data-name="Path 5085" d="m1.6,79.56c-.11.45,0,1.29-.06,2.22.03-1.04.03-.93.06-2.22Z" fill="#b133d0" stroke="#a33dc9"/>
  <path id="Path_5086" data-name="Path 5086" d="m2.24,77.79c.03.43.03.86,0,1.29.06-.43.06-.86,0-1.29Z" fill="#b133d0" stroke="#a33dc9"/>
  <path id="Path_5087" data-name="Path 5087" d="m2.21,75.6c.06-.45.06.11.08-.25.06-.84.06-1.69,0-2.53-.06.25-.2.59-.25.2.11,1.03.13,2.06.06,3.09l.2,1.29c0-.6-.02-1.2-.08-1.8h0Z" fill="#b133d0" stroke="#a33dc9"/>
  <path id="Path_5088" data-name="Path 5088" d="m1.79,78.72l.08-.82c-.06.17-.08-.45-.08-.9-.17.2,0,1.24,0,1.71Z" fill="#b133d0" stroke="#a33dc9"/>
  <path id="Path_5089" data-name="Path 5089" d="m2.21,67.06l-.03-1.74v.56l.03,1.18Z" fill="#b133d0" stroke="#a33dc9"/>
  <path id="Path_5090" data-name="Path 5090" d="m2.27,65.94l.06-.06-.08-1.32.03,1.38Z" fill="#b133d0" stroke="#a33dc9"/>
  <path id="Path_5091" data-name="Path 5091" d="m2.33,64.11v.2l.03,1.04-.03-1.24Z" fill="#b133d0" stroke="#a33dc9"/>
  <path id="Path_5092" data-name="Path 5092" d="m2.41,60.46l-.06.31c0,.45-.06,1.32.03,1.24-.05-.51-.04-1.03.03-1.54Z" fill="#b133d0" stroke="#a33dc9"/>
  <path id="Path_5093" data-name="Path 5093" d="m.95,48.35c.03.31.08.14.11-.06l-.11-.51c.01.19.01.37,0,.56Z" fill="#b133d0" stroke="#a33dc9"/>
  <path id="Path_5094" data-name="Path 5094" d="m1.15,46.22l-.12-1.29c-.03,1.49.06,1.71.06,3.01.06-.56-.03-1.32,0-2.02l.06.31h0Z" fill="#b133d0" stroke="#a33dc9"/>
  <path id="Path_5095" data-name="Path 5095" d="m1.51,20.2c.08.11.06-.17.11.79-.03-1.32,0-2.47,0-3.99-.06.25-.14-.87-.11-.28l.03,1.69-.06-.25c-.08,1.18.08.79.03,2.05h0Z" fill="#b133d0" stroke="#a33dc9"/>
  <path id="Path_5096" data-name="Path 5096" d="m58.23,2.31c-.17.06.06.06.25.08,1.01-.08-.45-.06-.25-.08Z" fill="#b133d0" stroke="#a33dc9"/>
  <path id="Path_5097" data-name="Path 5097" d="m42.44,75.43c0,.06-.03.17-.03.25-.03-.25-.03-.37.03-.25Z" fill="#b133d0" stroke="#a33dc9"/>
  <path id="Path_5098" data-name="Path 5098" d="m42.3,78.78c-.02-1.03.02-2.06.11-3.09.03.76.2,2.84-.11,3.09Z" fill="#b133d0" stroke="#a33dc9"/>
  <path id="Path_5099" data-name="Path 5099" d="m42.92,75.26l-.08,1.07c-.08-.62.06-.51.08-1.07Z" fill="#b133d0" stroke="#a33dc9"/>
  <path id="Path_5100" data-name="Path 5100" d="m42.64,75.66l-.11-.06.11-.56v.62Z" fill="#b133d0" stroke="#a33dc9"/>
  <path id="Path_5101" data-name="Path 5101" d="m42.27,20.57c-.06.11-.11.17-.17.11l.17-.11Z" fill="#b133d0" stroke="#a33dc9"/>
  <path id="Path_5102" data-name="Path 5102" d="m42.86,18.1c.03-.22.03-.37.06-.51,0,.14-.03.25-.06.51Z" fill="#b133d0" stroke="#a33dc9"/>
  <path id="Path_5104" data-name="Path 5104" d="m42.13,50.54c-.08.42-.17.82-.23,1.1-.07-.38.01-.78.23-1.1Z" fill="#b133d0" stroke="#a33dc9"/>
  <path id="Path_5105" data-name="Path 5105" d="m41.74,16.72l.08.11c-.06.14-.11.17-.08-.11Z" fill="#b133d0" stroke="#a33dc9"/>
  <path id="Path_5106" data-name="Path 5106" d="m44.38,17.54c-.06,0-.08,0-.11-.06,0-.06.03-.08.03-.14l.08.2Z" fill="#b133d0" stroke="#a33dc9"/>
  <path id="Path_5107" data-name="Path 5107" d="m42.41,24.61h0l-.06.39c-.03-.22,0-.34.06-.39Z" fill="#b133d0" stroke="#a33dc9"/>
  <path id="Path_5108" data-name="Path 5108" d="m41.29,20.2c-.06.15-.13.29-.23.42.06-.34.17-.48.23-.42Z" fill="#b133d0" stroke="#a33dc9"/>
  <path id="Path_5110" data-name="Path 5110" d="m44.18,21.13c.03-.2.03-.36.06-.56,0,.19-.02.38-.06.56Z" fill="#b133d0" stroke="#a33dc9"/>
  <path id="Path_5111" data-name="Path 5111" d="m42.13,50.54l.08-.34c0,.12-.02.24-.08.34Z" fill="#b133d0" stroke="#a33dc9"/>
  <path id="Path_5112" data-name="Path 5112" d="m42.22,72.54c-.02-.18.02-.36.11-.51,0,.17-.04.35-.11.51Z" fill="#b133d0" stroke="#a33dc9"/>
  <path id="Path_5114" data-name="Path 5114" d="m40.06,63.49l.08-.17c.03.11-.03.17-.08.17Z" fill="#b133d0" stroke="#a33dc9"/>
  <path id="Path_5115" data-name="Path 5115" d="m38.4,51.69l.45-2.28c-.11-.06-.06-1.07-.25-.39l.25-.87-.14.06c.03-3.6,1.21-6.6.93-10.2l-.06.06.45-2.08c0-.39-.23-.51-.25-1.15.23.31.11-1.21.37-1.57-.06-.51-.17,0-.25.11-.06-2.02.48-3.6.48-5.79.08,1.24.1,2.49.06,3.74.28-1.74.08-2.08.31-3.96l-.2.87c-.25-1.01.45-2.89.08-3.2.31-1.13.55-2.29.7-3.45l-.39.56.11-1.26h.25c.06-.39.03-.62-.03-.67.34-.84.31-2.05.62-3.23l-.11-.14c.03-.08.06-.16.11-.22-.2-.25-.03-1.18-.2-1.26-.08.37-.28,1.24-.14,1.18-.31.93-.03-1.18.03-1.83.06.7.17-.2.25-.56-.03-.06-.06.06-.11.11-.03-1.18.62-1.54.28-2.39l.25-.2v-.05l2.39.14.11.9c-.45.06-.08,1.32-.51,1.46-.06,1.07.25-.14.2.25.06,1.01-.39,2.75-.2,3.09-.17.87-.11,1.8-.23,2.53l.2.06c-.09.4-.14.8-.14,1.21.03,0,.06-.06.08-.11-.14,1.43-.2,2.58-.23,3.79.14-.06.2-.06.28-.76.14,1.12-.31,2.98-.28,4.66l.11-.11-.17.96c.06-.2.14-.06.2-.06.09,1.51-.06,3.03-.45,4.49.11-.45.23.76.39-.2-.22,1.86-.35,3.73-.36,5.6l-.03-.03-.11.76.03.06.08-.53c-.03.67-.12,1.34-.25,2,.15.22.24.47.28.73-.25,0,.17,2.14-.11,3.03.06.11.06-.39.14-.08-.08,2.28-.39,5.65-.25,8.34-.45.2-.37,2.47-.59,3.93.25.36.14-.82.37-1.21-.06.82.34.17.11,1.63.06-.06.08,0,.08-.31.03.82-.34-.17-.25,1.1l.2.06-.25.79c.11,2.58-.06,4.8.14,7.05-.03.14-.14.08-.2-.22-.14,1.13-.18,2.27-.11,3.4l.08-.31c.17,1.88-.23,1.91-.31,4.1-.03-.51.11-1.66-.11-1.77-.13.56-.13,1.15,0,1.71l-.25-.17c.13-.58.21-1.17.23-1.77-.02.1-.05.2-.11.28.08-.56.08-1.32.14-2.11l.03,1.14c.25-.45,0-1.91.08-2.33-.25,0-.2.7-.39.03-.08-1.88.25-1.1.48-2.87l.08.31c.14-.6.18-1.22.11-1.83-.17,0-.17.65-.25.96-.08-.17.28-1.04.14-1.66-.24.94-.34,1.9-.31,2.87-.06-.11-.14-.11-.25.03.28-2.87.42-5.75.39-8.62-.31,1.46,0-.62-.31-.31.23-.2.03-1.07.11-1.85-.23-.31-.2,1.52-.37.9.25-1.77.4-3.55.45-5.34-.08.14-.11.56-.17.65.08-1.26.65-2.86.31-3.74-.14.59-.31,1.29-.45,1.94,0-.24-.04-.47-.08-.7l-.17.45c-.03-1.52.39-1.15.62-2l-.23-.93c-.12-1.47,0-2.96.39-4.38,0-.31.03-1.57-.23-1.07-.41.92-.6,1.92-.56,2.92.2.25.25-1.26.25-.76.04.84,0,1.69-.11,2.53l.06-1.83c-.31.03-.03.76-.2,1.1-.25-.51.06-1.52-.08-2.28l-.03.11c.08-1.46.03-1.26.17-2.72.28-.08.17.51.28,1.18.06-2.33.65-5.53.2-7.89l-.28,1.4c-.03-.87.25-2.42-.11-2.33.08,1.01-.11.56-.2,1.07l.03.06c-.03.11-.08.51-.11.25.2-.94.35-1.88.45-2.84-.08.37-.2-.42-.25-.53.08-.81.17,0,.28.06.03-.45.25-1.15.06-1.52-.14-.62-.2.76-.34.96l.31-2.47-.06.06c.07-.27.1-.54.08-.81-.11-.25-.17.34-.14.7-.17-1.32.48-2.28.11-3.4l.14-.73c-.03-.06-.08-.2-.11-.06l.14-.7c.17-1.32-.25-.37-.31-.81v.06c-.03-.39-.14-.73-.17-.45l.2-1.4h0c.25-.53.37-2.58.79-2.56-.03-.37-.08-.67-.17-.51.06-1.04-.34.22-.23-1.43-.08,0-.06.2-.11.45-.03-.24,0-.48.08-.7-.06,0-.08-.03-.17-.14.17,0,.14-.7.11-1.07l-.28.59c.14-.42.2-.87.17-1.32l-.2.45c.08-1.12.37-.08.25-1.46l.11,1.26c.11-1.46.42-.96.59-1.6.05-.25.09-.5.11-.76h.06c-.17,1.35-.06,2.84-.59,3.76.17.2.25,0,.34.45.06-.66.25-1.3.56-1.88.42-1.74-.53-.62-.08-2.3l-.53-.03c-.03.06-.03.14-.06.22-.07-.05-.12-.13-.14-.22l.9.06c.04.37,0,.75-.14,1.1.2.06.37-.62.51-1.07-.23,1.15-.14,2.87-.23,3.57-.2.53-.31,1.09-.34,1.66-.14-.06-.42,1.74-.67,1.15-.2,1.26.34.81-.11,2.02.28-.45.11.81.37.34-.2-.45.31-1.74.51-2.39l-.03,1.83c-.03-.45-.25.17-.28.42l.2.25c-.53.22.08,3.23-.59,4.07.08-.56-.06-1.07.25-1.32-.06-1.07-.39.2-.53-.34-.34,1.63-.25,4.16-.76,5.9.2-.31.23-1.12.45-1.18-.17,1.5-.48,2.97-.93,4.41l.28-.25c-.34,1.26.06.51-.14,1.88-.03-.06-.11-.25-.14.06-.08,1.12.23.14.23.87-.53,1.38.23.7-.14,2.47l.11-.11c-.15,1.57-.19,3.15-.11,4.72-.06-.11.08-1.24-.17-1.12l-.23,1.88c.06.11,0,.96.2.45.04-.23.05-.47.03-.7l.11.25c-.28,1.74-.37-.14-.62-.14-.05.64-.15,1.26-.31,1.88.23.31.37-1.21.56-.36,0,1.03-.18,2.04-.53,3.01.48.96-.17,3.65.25,3.71-.03-.06-.23.25-.17.7l.14-.25c.11,1.32-.48,1.26-.45,2.08.08,0,.14-.25.23-.39-.03,1.77-.73,2.7-.59,4.47.09-.08.13-.19.11-.31.06-.06.03.25-.11.82l-.11-.65c-.56.87.06,2.47-.2,3.9.11-.14.2-1.21.28-.62-.06.96-.59.82-.42,1.94.08-.51.34-.34.42-.82-.03.73.11,1.24-.11,1.52-.02.12.04.24.14.31-.12.56-.16,1.14-.11,1.71l.11-.11c-.56.87-.11,1.52-.23,2.7l.17-.2c-.18.7-.24,1.42-.17,2.14l.2-.45c-.17.7.03,2.02-.28,2.58.03.25.37-.62.31.51-.18.47-.22.97-.14,1.46.08,0,.17-.14.11-.45,0-.2-.03-.06-.08,0l.14-.39c.08.87-.17.7-.14,1.63.08.2.17-.31.28-.45l-.51,3.48c-.14.06-.17-.36-.34-.06l.03-1.18c-.17-.56-.28.62-.37,1.12l.03-.82s-.06-.03-.06.06l.06-.62c-.39,1.63-.28-1.71-.62.06.05-.42.16-.83.34-1.21.11-.82-.06-.62-.11-.96l-.25,1.21c.2-1.88-.23.17-.31-1.21.25-1.57-.34-2.53-.31-3.34.14-1.63.2.65.39-.36.08-.9-.11-.45-.14-1.01l.31-.39c.11-1.01-.25-.06-.11-.62-.11-.82-.11.25-.37.45.15-.47.2-.97.14-1.46-.08,0-.17,1.07-.14.39.31-2.53.03-3.18.23-5.42l-.17.2c.07-.23.1-.46.08-.7l-.11.14c.03-.31.37-2.58.42-4.1l-.23.76.31-1.32-.25.14c.28-.45.23-2.02.39-3.29h-.17l.14-.76-.14.25c.17-.82.29-1.66.34-2.5.08.65-.17.76-.28.7v-.02Zm3.01-31.27l.03-.34c-.02.11-.03.22-.03.34l-.06.53c.14-.06.06-.26.06-.53Zm1.83,32.36l.03-.87c.03.17-.06.82.03.56.03.11,0,.42-.06.31Zm-.39-31.04l.17-.37-.14-.31-.03.67Zm-.59,7.05l.14-.76-.03-.06-.17.76.06.06h0Zm-2.25,9.66c.31-.45.06-.73.23-1.29.02-.04.03-.09.03-.14-.02.04-.03.09-.03.14-.27.38-.35.85-.23,1.29h0Zm1.54-16.24c-.17,0-.25.87-.39,1.12,0,.37.2-.11.28-.25,0,.19-.03.38-.08.56.36-.11-.03-.67.19-1.43h0Zm2.42-3.85l.14-.7v.2l-.14.5Zm.03,3.51c0,.81-.23,1.52-.39,1.35-.01-.7.08-1.4.28-2.08-.14.37.31-.22.11.73h0Zm-2.95,9.16c.3-.69.44-1.44.42-2.19l-.17.76v-.2l-.17.2c.42-.2-.03.98-.08,1.43h0Zm2.5-2.33c0,.31-.14,1.32-.42,1.29.14.11.31-1.15.48-1.85-.04.18-.06.37-.06.56h0Zm-.25-.37c-.03-.37-.2-.25-.06-.96.14.11.51-.14.39-1.15-.28.59-.46,1.21-.53,1.85l.2.25h0Zm.53-1.69l-.08-1.29c-.31.67,0,.79.08,1.29l.03.42c.02-.14.01-.28-.03-.42h0Zm-.25,9.33l.08-.34c.03.06.08,0,.11-.42l-.11.42c-.08-.11-.17-.59-.08.34h0Zm.2-8.09l-.06,1.21c0-.39-.05-1.15.06-1.21h0Zm-.37,5.81c-.03-.2,0,1.15,0,1.66.13-.54.12-1.11,0-1.65h0Zm-.51,27.78l-.2-.36-.03.76.23-.39Zm-.2-7.87l.03-.45-.08-.2.06.65Zm-.06-9.1c0,.09,0,.18.06.25.13,1.04.16,2.1.11,3.15.11.36.31-.7.37-1.01-.65.48.03-1.21-.17-1.97-.03.28-.08.57-.14.84-.07-.34-.08-.69-.03-1.04.06-.08.09-.18.08-.28-.04.09-.06.19-.08.28-.06.06-.11.08-.14.06,0-.1-.01-.19-.06-.28Zm.2-11.29c.06-.17.11.25.23-.39-.08-.08-.17.11-.23.39-.05.16-.07.34-.06.51,0-.17.02-.34.05-.51h0Zm-.34.56l.31-1.52-.14.51.14-1.01c-.32.62-.43,1.33-.31,2.02h0Zm.25-4.05l-.14,1.71.03-.06v.11l.17-.31-.14.2.08-1.66h0Zm.7-13.96v-.81c-.12.54-.17,1.08-.17,1.63-.42-.87.08-.31-.06-1.77-.06,1.66-.31,1.01-.48.93.28-.34.17-2.47.7-1.83-.14.59.34,1.4,0,1.85h0Zm-.59,2.56l-.14,1.01.11-1.07.03.06h0Zm-2.14,27.96c.25-.31.14-1.71,0-1.63.07.54.07,1.09,0,1.63Zm-.73,10.14c0-.56.34-1.38.08-1.63l-.2,1.18c.06.19-.05.64.12.44h0Zm-.42,7.36l-.31.39.08-.39h.23Zm.39-1.26c0,.2-.11,1.01-.23.76l.23-.76Zm-.7,7.75l.28-.45-.03.51-.25-.06Zm-.14-.51c.02-.11.08-.2.17-.25.11-.37.13-.77.08-1.15-.14.06-.06.36-.11.62-.03-.29-.03-.58,0-.87.2.45.23.14.39.2.06,1.15-.2,1.1-.39,1.21-.03.17-.08.25-.14.25h0Zm.17-4.07c.03.14.06.2.11.22.03.73.06,1.49.31.73v-.7c-.03.31-.06.25-.11.31-.01-.4.05-.8.2-1.18-.11.2-.25.98-.42.84,0-.2-.03-.39-.03-.56.04-.14.04-.28,0-.42l-.06.06c.04.11.06.22.06.34-.05.12-.06.24-.06.36h0Zm-.39,4.66c-.06.06-.11-.06-.17.11l-.06.36c.03.53.17-.06.23-.48h0Zm1.46-21.43c.03-.11.08-1.26.25-1.26l-.23-.31c0,.56-.23,1.12-.25.87.11.45,0,.87.23.7h0Zm2.33-28.91c-.11.31-.06,1.77-.37,1.94.28.53.36-1.18.36-1.94h0Zm-.31-.2c.03-.14.03-.25.06-.37.11-.45.34-.37.28-1.15-.08.2-.03.51-.11.7-.14-.06-.14.06-.17.45-.05.12-.07.24-.06.37h0Zm-1.64,16.29l.06-.81.25-.51-.31,1.32Zm-.87,7.81l.11-.67.03.25c.06,0,.14.14.2-.03.03-.11.03-.22.06-.34,0,.11-.02.23-.06.34-.06.51-.08,1.12-.25,1.18.08-.2.14-1.12.03-1.07l-.11.34Zm-1.26,16.07c.1-.33.11-.68.03-1.01-.08.33-.09.68-.03,1.01Zm1.38-20.03c.14-.06.14-.96.28-.62v.39c0-.56.34-.31.23-1.12l-.03.51c-.03-.62-.31.76-.31-.2.03-.42-.2.59-.17,1.04h0Zm-1.8,21.24c.06-.56.39-.36.28-1.32-.08.71-.39.57-.28,1.32h0Zm.87-15.65l-.03-.06.14-.76.03.06-.14.76Z" fill="#b133d0" stroke="#a33dc9"/>
  <path id="Path_5116" data-name="Path 5116" d="m40.08,61.16c0,.17,0,.34-.03.51,0-.17,0-.34.03-.51Z" fill="#b133d0" stroke="#a33dc9"/>
  <path id="Path_5117" data-name="Path 5117" d="m43.76,17.31c-.04-.07-.06-.15-.06-.22.03,0,.06.06.06.22Z" fill="#b133d0" stroke="#a33dc9"/>
  <path id="Path_5118" data-name="Path 5118" d="m44.04,15.48v-.06s.03-.03.03-.06l-.03.11Z" fill="#b133d0" stroke="#a33dc9"/>
  <path id="Path_5119" data-name="Path 5119" d="m42.02,71.98c-.2.39-.03-.39-.03-.7,0,.34.14.45.03.7Z" fill="#b133d0" stroke="#a33dc9"/>
  <path id="Path_5120" data-name="Path 5120" d="m42.36,69.51c-.08.26-.11.52-.11.79,0-.27.04-.53.11-.79Z" fill="#b133d0" stroke="#a33dc9"/>
  <path id="Path_5121" data-name="Path 5121" d="m42.28,71.53c-.04-.41-.05-.82-.03-1.24.04.41.05.82.03,1.24Z" fill="#b133d0" stroke="#a33dc9"/>
  <path id="Path_5122" data-name="Path 5122" d="m42.33,62.79c-.07.38-.09.77-.06,1.15-.11-1.63-.25.34-.34.45.01-.56.15-1.1.39-1.6h0Z" fill="#b133d0" stroke="#a33dc9"/>
  <path id="Path_5123" data-name="Path 5123" d="m42.41,60.63c0,.15,0,.3.03.45-.02-.15-.03-.3-.03-.45Z" fill="#b133d0" stroke="#a33dc9"/>
  <path id="Path_5124" data-name="Path 5124" d="m42.3,60.01c.01-.35.11-.7.28-1.01.02.55-.03,1.1-.17,1.63,0-.39,0-.79-.11-.62Z" fill="#b133d0" stroke="#a33dc9"/>
  <path id="Path_5125" data-name="Path 5125" d="m41.82,42.56c-.03.14-.03.45-.11.45v-.95c.06-.39.08.31.11.51h0Z" fill="#b133d0" stroke="#a33dc9"/>
  <path id="Path_5126" data-name="Path 5126" d="m42.27,39.05c.03-.76-.2-.37-.14-.76l.28.06-.14.7Z" fill="#b133d0" stroke="#a33dc9"/>
  <path id="Path_5127" data-name="Path 5127" d="m43.62,39.5l-.03.23c0-.09,0-.17.03-.25v.03Z" fill="#b133d0" stroke="#a33dc9"/>
  <path id="Path_5128" data-name="Path 5128" d="m42.08,35.4l-.31.51c.08-.62.31-.62.31-.51Z" fill="#b133d0" stroke="#a33dc9"/>
  <path id="Path_5129" data-name="Path 5129" d="m41.94,32.51l-.11.44.11-1.4v.96Z" fill="#b133d0" stroke="#a33dc9"/>
  <path id="Path_5130" data-name="Path 5130" d="m42.16,29.02l-.08-.11.11-.96-.03,1.07Z" fill="#b133d0" stroke="#a33dc9"/>
  <path id="Path_5131" data-name="Path 5131" d="m42.13,32.31c-.25.11-.03-1.38-.06-1.83.31.34-.2,1.21.06,1.83Z" fill="#b133d0" stroke="#a33dc9"/>
  <path id="Path_5132" data-name="Path 5132" d="m40.06,59.84l.17-1.43c0,1.12-.03.31-.17,1.43Z" fill="#b133d0" stroke="#a33dc9"/>
  <path id="Path_5133" data-name="Path 5133" d="m20.59,49.14h-.2c.2-.03.28-.06.2,0Z" fill="#b133d0" stroke="#a33dc9"/>
  <path id="Path_5134" data-name="Path 5134" d="m17.86,49.36c.7-.08,1.83-.23,2.53-.23-.62.11-2.28.48-2.53.23Z" fill="#b133d0" stroke="#a33dc9"/>
  <path id="Path_5135" data-name="Path 5135" d="m20.78,49.62l-.9.03c.51-.17.42,0,.9-.03Z" fill="#b133d0" stroke="#a33dc9"/>
  <path id="Path_5136" data-name="Path 5136" d="m20.42,49.36l.03-.11.48.03-.51.08Z" fill="#b133d0" stroke="#a33dc9"/>
  <path id="Path_5137" data-name="Path 5137" d="m65.03,43.44c-.08-.03-.17-.08-.11-.17l.11.17Z" fill="#b133d0" stroke="#a33dc9"/>
  <path id="Path_5138" data-name="Path 5138" d="m67.11,43.74h.42c-.14.03-.28.03-.42,0Z" fill="#b133d0" stroke="#a33dc9"/>
  <path id="Path_5139" data-name="Path 5139" d="m63.2,43.63l.37-.06c-.12.03-.24.05-.37.06Z" fill="#b133d0" stroke="#a33dc9"/>
  <path id="Path_5140" data-name="Path 5140" d="m40.73,46.3c-.34-.03-.67-.08-.93-.11.31-.12.66-.08.93.11Z" fill="#b133d0" stroke="#a33dc9"/>
  <path id="Path_5141" data-name="Path 5141" d="m66.55,42.54l-.08.08c-.09-.06-.14-.08.08-.08Z" fill="#b133d0" stroke="#a33dc9"/>
  <path id="Path_5142" data-name="Path 5142" d="m67.73,45.2c-.03-.06,0-.08.03-.11h.11l-.14.11Z" fill="#b133d0" stroke="#a33dc9"/>
  <path id="Path_5143" data-name="Path 5143" d="m61.77,43.94h0l-.31-.03c.1-.03.21-.02.31.03Z" fill="#b133d0" stroke="#a33dc9"/>
  <path id="Path_5144" data-name="Path 5144" d="m63.68,42.45c-.13-.05-.25-.12-.37-.2.28.03.39.11.37.2Z" fill="#b133d0" stroke="#a33dc9"/>
  <path id="Path_5146" data-name="Path 5146" d="m64.78,45.35h.48c-.16.04-.32.04-.48,0Z" fill="#b133d0" stroke="#a33dc9"/>
  <path id="Path_5147" data-name="Path 5147" d="m40.73,46.3c.11,0,.2.03.28.03-.09.02-.19.01-.28-.03Z" fill="#b133d0" stroke="#a33dc9"/>
  <path id="Path_5148" data-name="Path 5148" d="m22.92,48.63c.28-.03.36.03.42.08-.14,0-.29-.04-.42-.08Z" fill="#b133d0" stroke="#a33dc9"/>
  <path id="Path_5149" data-name="Path 5149" d="m18.11,50.35l-.11.03s.07-.03.11-.03Z" fill="#b133d0" stroke="#a33dc9"/>
  <path id="Path_5150" data-name="Path 5150" d="m28.79,48.29c.06,0,.12.02.17.06-.11.03-.17,0-.17-.06Z" fill="#b133d0" stroke="#a33dc9"/>
  <path id="Path_5151" data-name="Path 5151" d="m37.78,44.31l1.91.03c.03-.11.84-.25.25-.31l.76.08-.08-.11c2.89-.59,5.53.03,8.4-.79l-.06-.03,1.74.14c.31-.06.39-.28.9-.39-.22.25.98-.06,1.32.14.39-.11-.03-.17-.14-.25,1.63-.37,2.98-.03,4.78-.31-1.77.42-1.8.34-3.01.56,1.46.06,1.69-.2,3.26-.23l-.73-.06c.79-.42,2.42.08,2.61-.34.96.16,1.92.25,2.89.28l-.51-.34,1.04-.03.03.25c.34,0,.51-.06.53-.11.73.25,1.71.08,2.7.28l.11-.11c.07.02.14.05.2.08.2-.23.98-.14,1.01-.34-.31-.03-1.04-.14-.98-.03-.79-.23.98-.14,1.49-.14-.56.11.17.14.48.2.06-.03-.06-.06-.11-.08.98-.11,1.32.48,1.97.06l.17.23.79-.17c0,.05.02.1.06.14l.08,2.42c-.25-.2-1.01.11-1.15-.23-.87.06.14.25-.17.23-.82.17-2.28-.11-2.53.11-.73-.08-1.46.08-2.08.03l-.03.2c-.33-.05-.66-.06-.98-.03,0,.03.06.06.11.06-1.18,0-2.11.06-3.09.14.06.11.08.2.65.2-.9.25-2.44-.03-3.82.17l.11.08-.79-.08c.17.06.06.11.08.2-1.21.24-2.47.24-3.68,0,.36.06-.59.28.2.37-1.53-.03-3.06.04-4.58.2l.03-.03-.62-.03-.06.03.45.03c-.55.03-1.11.02-1.66-.03-.15.17-.34.3-.56.37-.03-.23-1.71.39-2.47.2-.08.08.31.03.08.11-1.85.17-4.61.17-6.8.59-.22-.45-2.05-.11-3.26-.2-.25.31.67.06,1.04.23-.67.03-.11.34-1.32.25.06.03.03.08.25.06-.65.08.11-.34-.9-.14l-.03.2-.65-.17c-2.08.37-3.9.42-5.7.84-.11-.03-.08-.11.14-.2-.92-.02-1.85.06-2.75.23l.25.06c-1.49.34-1.57-.03-3.37.11.39-.06,1.35-.06,1.4-.28-.47-.06-.94,0-1.38.17l.11-.28c.48.07.97.08,1.46.03-.08,0-.17-.02-.22-.08.45.03,1.07-.06,1.74-.06l-.93.14c.39.2,1.54-.2,1.91-.14-.03-.23-.59-.14-.06-.39,1.52-.28.93.14,2.39.17l-.25.11c.5.08,1,.05,1.49-.08-.03-.17-.53-.08-.82-.14.14-.11.87.17,1.35-.03-.78-.14-1.58-.15-2.36-.03.08-.08.08-.17-.06-.23,2.35-.01,4.7-.18,7.02-.51-1.24-.17.51-.06.2-.34.2.2.87-.08,1.52-.06.22-.25-1.26-.03-.79-.25,1.46.05,2.92.03,4.38-.08-.11-.08-.48-.06-.53-.11,1.04-.03,2.42.37,3.06-.08-.51-.08-1.07-.17-1.63-.25.19-.03.38-.08.56-.14l-.39-.14c1.24-.2.98.28,1.69.42l.73-.31c1.18-.28,2.41-.3,3.6-.06.25-.03,1.29-.14.84-.31-.78-.31-1.62-.39-2.44-.25-.17.23,1.07.11.65.2-.68.13-1.36.17-2.05.14l1.49-.14c-.06-.31-.62.06-.9-.08.36-.31,1.24-.11,1.83-.31h-.13c1.18-.06,1.01-.11,2.22-.11.08.28-.39.23-.93.39,1.91-.2,4.55.08,6.43-.59l-1.15-.14c.7-.11,2,.03,1.88-.34-.82.2-.48-.06-.9-.08l-.06.03c-.11,0-.42-.03-.22-.08.78.1,1.57.16,2.36.17-.31-.06.31-.23.39-.28.67,0,.03.17-.03.28.36-.03.96.11,1.24-.08.48-.2-.65-.11-.82-.23l2.05.06-.06-.03c.22.06.45.06.67,0,.2-.14-.28-.14-.59-.06,1.04-.28,1.88.25,2.75-.23l.59.06c.06-.03.14-.11.03-.11l.59.08c1.1.03.28-.31.62-.39h-.06c.34-.08.56-.23.34-.23l1.15.06h0c.45.2,2.14.11,2.16.53.31-.06.53-.17.39-.2.84-.06-.22-.31,1.15-.37,0-.08-.17-.06-.36-.06.36-.03.51-.03.56.03,0-.07.03-.13.08-.17.03.17.59.08.87.03l-.51-.23c.36.11.74.12,1.1.03l-.39-.14c.93-.03.11.37,1.21.11l-1.01.25c1.04-.03.9.25,1.21.39v.34s-.11-.06-.17-.06c-1.24-.25-2.78.2-3.74-.34-.14.17,0,.25-.34.39.55-.01,1.09.12,1.57.39,1.52.28.39-.65,2.05-.25-.08.23-.62.23-1.07.11-.03.2.53.31.9.42-.98-.03-1.95.01-2.92.11-.44-.14-.91-.2-1.38-.17.06-.14-1.46-.23-.98-.53-1.04-.06-.65.42-1.66.11.39.25-.65.2-.22.39.34-.23,1.46.08,1.97.25-.51.06-.98.11-1.49.17.36-.08-.17-.23-.36-.25l-.2.23c-.25-.51-2.58.42-3.34-.11.45,0,.87-.17,1.1.08.87-.17-.2-.37.2-.56-.8-.05-1.59-.04-2.39.03-.82.07-1.65.05-2.47-.06.28.14.93.08,1.01.28-1.22.02-2.45-.09-3.65-.31l.25.25c-1.07-.17-.39.14-1.54.11.06-.03.2-.14-.06-.11-.93.08-.08.23-.67.34-1.18-.31-.53.31-2,.23l.11.08c-1.28.09-2.55.29-3.79.62.08-.08,1.01-.11.87-.37l-1.54.08c-.08.08-.76.17-.31.25.19,0,.38-.04.56-.08l-.2.14c-1.46.03.03-.39,0-.62-.76.17-1.04-.06-1.57.03-.22.25,1.01.17.39.48-.82.17-1.68.17-2.5,0-.67.65-2.95.51-2.92.93.03-.03-.25-.17-.59-.06l.22.08c-1.04.34-1.1-.25-1.74-.06.03.08.22.08.34.17-1.4.31-2.3-.2-3.65.31.07.06.17.07.25.03.06.03-.2.08-.67.06l.48-.25c-.82-.37-1.94.53-3.15.62.11.06.98-.06.56.14-.76.14-.79-.39-1.63.03.42-.03.34.25.73.23-.59.14-.96.37-1.21.23-.17.06-.22.14-.2.2-.47-.01-.94.07-1.38.25l.11.08c-.82-.34-1.21.23-2.19.39l.2.11c-.59-.03-1.18.08-1.71.34l.39.08c-.59,0-1.57.51-2.08.34-.2.08.59.2-.31.42-.4-.07-.82,0-1.18.2.03.08.14.14.37,0,.14-.06.06-.03-.03-.08l.34.06c-.67.28-.59,0-1.32.25-.11.14.28.08.42.17l-2.84.37c-.08-.11.25-.25-.06-.34l.93-.28c.39-.31-.56-.11-.98-.08l.65-.17s0-.06-.06-.06l.51-.11c-1.38.03,1.24-.7-.22-.56.34-.05.68-.04,1.01.03.67-.08.48-.2.7-.34l-1.01.06c1.52-.28-.2-.17.84-.59,1.29-.14,1.88-.93,2.56-1.1,1.32-.25-.45.34.39.28.73-.14.34-.23.76-.37l.36.23c.82-.11-.03-.28.48-.25.62-.31-.22-.06-.45-.25.4.03.8-.02,1.18-.17-.03-.08-.9.08-.34-.06.76-.1,1.51-.26,2.25-.48.68-.2,1.38-.37,2.08-.51l-.2-.11c.19.03.38,0,.56-.06l-.11-.08c.25-.06,2.14-.17,3.34-.45l-.65-.06,1.12.03-.17-.23c.91.02,1.81-.07,2.7-.25l-.03-.17h.65l-.22-.08c.7.02,1.39-.03,2.08-.14-.25-.11-.39-.34-.36-.45v-.02Zm25.73-1.71h.28c-.09-.01-.19-.01-.28,0h-.45c.05.14.22.03.44,0h0Zm-24.47,5.03l.73-.06c-.14.03-.67.03-.45.11-.11-.03-.36.03-.28-.06h0Zm23.54-3.46l.31.11.25-.17-.56.06h0Zm-5.76.28l.62.06.06-.03-.62-.06-.06.03Zm-8.12-.84c.42.25.59-.06,1.1,0,.03,0,.08.03.11.03-.06,0-.08-.03-.11-.03-.31-.06-.65-.28-1.1,0Zm13.34-.67c-.03-.17-.73-.17-.96-.28-.31.06.11.17.22.25-.16.01-.32.01-.48,0,.17.34.59-.11,1.21.03Zm4.94,1.94l.59.08-.17.03-.42-.11Zm-2.84.39c-.67.08-1.26-.08-1.12-.25.57-.07,1.15-.05,1.71.06-.34-.11.2.28-.59.2h0Zm-9.3-1.71c.59.19,1.22.23,1.83.11l-.62-.06.14-.03-.17-.14c.2.39-.82.11-1.18.11h0Zm3.71,1.94c-.25.03-1.1-.03-1.1-.28-.08.14.96.2,1.54.28-.15-.03-.3-.03-.45,0h0Zm.28-.28c.31-.06.17-.23.76-.17-.08.14.17.48.98.28-.5-.21-1.03-.33-1.57-.37,0,0-.17.25-.17.25Zm1.43.37l1.04-.2c-.59-.25-.65.06-1.04.2l-.34.06c.12,0,.23-.02.34-.06h0Zm-7.58.67l.28.06c-.03.06.03.08.34.06l-.34-.06c.09-.08.45-.22-.28-.05h0Zm6.57-.59l-.98.06c.31-.05.9-.2.98-.05h0Zm-4.75.2c.14-.03-.93.11-1.32.17.25.05,1.24,0,1.32-.17h0Zm-22.59,2.3l.28-.23-.62.06.34.17Zm6.35-.98l.36-.03.14-.11-.51.14h0Zm7.36-.98c-.07.01-.14.04-.2.08-.83.22-1.67.37-2.53.42-.28.14.62.23.87.28-.45-.59.98-.08,1.57-.37-.17-.06-.59.03-.7-.06.27-.1.56-.14.84-.11.08.04.17.06.25.06-.08-.04-.17-.06-.25-.06-.05-.02-.08-.08-.06-.13,0,0,0,0,0-.01.08-.06.17-.08.2-.11h0Zm9.19-.93c.14.06-.2.14.34.17.06-.08-.11-.14-.34-.17-.14-.03-.28-.04-.42-.03.14,0,.28,0,.42.03h0Zm-.51-.31l1.26.14-.42-.11.84.03c-.54-.21-1.13-.23-1.69-.06Zm3.32-.14l-1.4.06.03.03h-.08l.28.14-.2-.14,1.38-.08h0Zm11.41-.7l.67-.08c-.45-.04-.9-.04-1.35,0,.67-.51.25.06,1.43-.23-1.35.11-.84-.2-.82-.39.31.23,2.02-.06,1.54.51-.51-.06-1.1.51-1.49.2h0Zm-3.71-.31c-.28,0-.56-.03-.82-.03h.87l-.06.03Zm-22.81,1.83c.31.2,1.38-.17,1.32-.28-.43.14-.87.23-1.32.28h0Zm-8.2,1.15c.45-.11,1.18.06,1.32-.25l-.98.06c-.14.11-.53.08-.34.2h0Zm-5.93,1.12l-.36-.23h.31l.06.23Zm1.1.11c-.14.06-.82.11-.65-.06l.65.06Zm-6.26,1.07l.42.17-.39.11-.03-.28Zm.36-.28c.09,0,.18.04.22.11.31.02.62-.04.9-.17-.08-.11-.31.03-.53.03.22-.1.46-.17.7-.2-.31.28-.06.23-.06.42-.9.31-.9.06-1.04-.08-.11,0-.2-.06-.2-.11h0Zm3.26-.76c-.11.06-.14.11-.14.14-.59.2-1.15.39-.48.48l.53-.14c-.25.06-.2,0-.28-.03.32-.11.65-.14.98-.08-.2-.06-.84-.03-.76-.23.17-.06.31-.11.45-.17.12.01.24-.02.34-.08l-.06-.03c-.06.03-.14.08-.25.14-.11-.01-.23-.01-.34,0h0Zm-3.76.67c-.06-.03.03-.11-.14-.14l-.31.03c-.4.17.08.2.44.11h0Zm17.28-2.98c.11,0,1.01-.14,1.04.03l.22-.25c-.45.11-.96-.03-.76-.11-.34.17-.71.14-.51.34h0Zm23.57-1.91c-.25-.08-1.43.14-1.6-.17-.4.36.98.25,1.6.17h0Zm.14-.34h.31c.36.06.34.31.96.17-.17-.06-.42.03-.56-.03.03-.14-.06-.11-.39-.11-.1-.02-.21-.03-.31-.03h0Zm-13.4.51l.67-.08.45.2c-.36-.03-.76-.08-1.12-.11h0Zm-6.4.39l.56-.03-.2.06c0,.06-.08.17.06.17h.28c-.09.03-.19.03-.28,0-.42.03-.93.11-.98-.06.17.03.93-.06.87-.17l-.31.03h0Zm-13.09,1.8c.28.03.57-.03.82-.17-.28-.02-.56.04-.82.17h0Zm16.29-2.33c.06.11.79,0,.56.2l-.31.06c.45-.08.31.28.96.06l-.39.06c.51-.11-.67-.2.11-.34.28-.08-.56-.14-.93-.03h0Zm-17.33,2.16c.48-.06.39.31,1.12,0-.6.05-.57-.28-1.13,0h0Zm12.67-2.13l.06-.03.62.03-.06.03-.62-.03Z" fill="#b133d0" stroke="#a33dc9"/>
  <path id="Path_5152" data-name="Path 5152" d="m30.62,47.82c-.13.04-.26.07-.39.08.11-.03.25-.06.39-.08Z" fill="#b133d0" stroke="#a33dc9"/>
  <path id="Path_5153" data-name="Path 5153" d="m66.27,44.61s.11-.07.17-.08c0,.03-.06.06-.17.08Z" fill="#b133d0" stroke="#a33dc9"/>
  <path id="Path_5154" data-name="Path 5154" d="m67.76,44.7h.06s.03,0,.06.03l-.11-.03Z" fill="#b133d0" stroke="#a33dc9"/>
  <path id="Path_5155" data-name="Path 5155" d="m23.34,48.38c-.34-.17.31-.08.56-.11-.25.03-.34.2-.56.11Z" fill="#b133d0" stroke="#a33dc9"/>
  <path id="Path_5156" data-name="Path 5156" d="m25.39,48.46c-.21-.04-.43-.05-.65-.03.21-.06.44-.05.65.03Z" fill="#b133d0" stroke="#a33dc9"/>
  <path id="Path_5157" data-name="Path 5157" d="m23.73,48.58c.33-.07.67-.13,1.01-.17-.33.11-.67.17-1.01.17Z" fill="#b133d0" stroke="#a33dc9"/>
  <path id="Path_5158" data-name="Path 5158" d="m30.81,47.74c-.31-.04-.62-.02-.93.06,1.32-.28-.31-.2-.42-.28.46-.04.92.04,1.35.23Z" fill="#b133d0" stroke="#a33dc9"/>
  <path id="Path_5159" data-name="Path 5159" d="m32.58,47.59c-.14.03-.25.03-.36.06.12-.03.24-.05.36-.06Z" fill="#b133d0" stroke="#a33dc9"/>
  <path id="Path_5160" data-name="Path 5160" d="m33.06,47.42c.3-.01.6.05.87.17-.45.07-.9.07-1.35,0,.34-.03.65-.06.48-.17h0Z" fill="#b133d0" stroke="#a33dc9"/>
  <path id="Path_5161" data-name="Path 5161" d="m47.16,45.18c-.11,0-.37.03-.37-.06l.76-.08c.31,0-.25.11-.39.14h0Z" fill="#b133d0" stroke="#a33dc9"/>
  <path id="Path_5162" data-name="Path 5162" d="m50.03,45.26c.62-.06.28-.23.59-.2v.28l-.59-.08Z" fill="#b133d0" stroke="#a33dc9"/>
  <path id="Path_5163" data-name="Path 5163" d="m49.84,46.67h-.2c.06-.03.14-.03.2,0Z" fill="#b133d0" stroke="#a33dc9"/>
  <path id="Path_5164" data-name="Path 5164" d="m52.98,44.7l-.45-.25c.53.03.56.25.45.25Z" fill="#b133d0" stroke="#a33dc9"/>
  <path id="Path_5165" data-name="Path 5165" d="m55.31,44.25l-.37-.06h1.15l-.79.06Z" fill="#b133d0" stroke="#a33dc9"/>
  <path id="Path_5166" data-name="Path 5166" d="m58.15,44.14l.11-.08.79.03-.9.06Z" fill="#b133d0" stroke="#a33dc9"/>
  <path id="Path_5167" data-name="Path 5167" d="m53.96,44.81c-.14-.25,1.1-.23,1.46-.31-.22.34-.98-.06-1.46.31Z" fill="#b133d0" stroke="#a33dc9"/>
  <path id="Path_5168" data-name="Path 5168" d="m31.66,47.54l1.18-.14c-.9.25-.25.03-1.18.14Z" fill="#b133d0" stroke="#a33dc9"/>
  <path id="Path_5169" data-name="Path 5169" d="m12.86,7.64c-.2,0-.51.03-.76.03.73-.06,1.07-.09.76-.03Z" fill="#b133d0" stroke="#a33dc9"/>
  <path id="Path_5170" data-name="Path 5170" d="m2.8,8.43c1.29-.11,2.98-.28,4.66-.42s3.34-.25,4.66-.31c-1.15.11-3.29.34-5.2.53-1.37.19-2.75.26-4.13.2h0Z" fill="#b133d0" stroke="#a33dc9"/>
  <path id="Path_5171" data-name="Path 5171" d="m13.37,8.09l-3.23.2c1.07-.13,2.15-.2,3.23-.2Z" fill="#b133d0" stroke="#a33dc9"/>
  <path id="Path_5172" data-name="Path 5172" d="m12.16,7.93l.17-.14,1.74-.03-1.91.17Z" fill="#b133d0" stroke="#a33dc9"/>
  <path id="Path_5173" data-name="Path 5173" d="m73.07,85.24c.34,0,.56.03.39.11l-.39-.11Z" fill="#b133d0" stroke="#a33dc9"/>
  <path id="Path_5174" data-name="Path 5174" d="m65.54,85.6c-.67.06-1.15.11-1.54.14.48-.06.87-.08,1.54-.14Z" fill="#b133d0" stroke="#a33dc9"/>
  <path id="Path_5175" data-name="Path 5175" d="m79.84,84.39l-1.32.17c.42-.06.9-.11,1.32-.17Z" fill="#b133d0" stroke="#a33dc9"/>
  <path id="Path_5176" data-name="Path 5176" d="m87.76,4.75c-.08-.12-.17-.24-.28-.34-.26-.24-.57-.42-.9-.53-.28-.09-.57-.15-.87-.17-.56-.06-.98-.06-1.4-.08.51-.03.9-.03,1.26-.03.31.01.62.06.93.14.39.11.73.33.98.65.12.1.21.23.28.36h0Z" fill="#b133d0" stroke="#a33dc9"/>
  <path id="Path_5177" data-name="Path 5177" d="m31.07,87.77l-.31.11c-.36,0-.53-.03.31-.11Z" fill="#b133d0" stroke="#a33dc9"/>
  <path id="Path_5178" data-name="Path 5178" d="m63.6,84.34c.03.06-.03.08-.17.14-.13,0-.26,0-.39.03l.56-.17h0Z" fill="#b133d0" stroke="#a33dc9"/>
  <path id="Path_5179" data-name="Path 5179" d="m85.23,82.88s.05-.03.06-.06c.18-.12.34-.25.51-.39l.45-.45c-.16.23-.35.44-.56.62-.13.13-.28.22-.45.28Z" fill="#b133d0" stroke="#a33dc9"/>
  <path id="Path_5180" data-name="Path 5180" d="m20.56,88.72c-.48,0-.93-.03-1.32-.06,1.01-.08,1.49-.06,1.32.06Z" fill="#b133d0" stroke="#a33dc9"/>
  <path id="Path_5181" data-name="Path 5181" d="m63.82,85.77h0c.07,0,.14,0,.2-.03-.06.02-.13.03-.2.03Z" fill="#b133d0" stroke="#a33dc9"/>
  <path id="Path_5182" data-name="Path 5182" d="m74.39,83.19c-.56.06-1.1.11-1.71.14.57-.08,1.14-.12,1.71-.14Z" fill="#b133d0" stroke="#a33dc9"/>
  <path id="Path_5183" data-name="Path 5183" d="m87.76,4.75c.23.34.37.74.39,1.15-.05-.41-.18-.8-.39-1.15Z" fill="#b133d0" stroke="#a33dc9"/>
  <path id="Path_5184" data-name="Path 5184" d="m21.54,6.75c.49-.07,1-.07,1.49,0-.5.03-.99.03-1.49,0Z" fill="#b133d0" stroke="#a33dc9"/>
  <path id="Path_5185" data-name="Path 5185" d="m82.2,1.55l.42-.03c-.17,0-.31.03-.42.03Z" fill="#b133d0" stroke="#a33dc9"/>
  <path id="Path_5186" data-name="Path 5186" d="m42.3,6.58c-.18.01-.36.01-.53,0,.34-.08.53-.06.53,0Z" fill="#b133d0" stroke="#a33dc9"/>
  <path id="Path_5187" data-name="Path 5187" d="m8.34,15.51l-1.69.28c-.5.08-1,.19-1.49.34-.4.12-.78.3-1.12.53-.29.2-.52.47-.67.79.03.03-.03.17-.06.36s-.06.45-.08.65c0,.23,0,.36.03.36.07-.19.13-.39.17-.59-.1.37-.17.75-.22,1.13-.06.42-.11.87-.14,1.32l.14-.2c-.09,5.37-.34,10.37-.48,15.37-.17,5.12-.04,10.24.39,15.34l.03-.2v3.15c0,1.04,0,2.11.03,3.15.11,1.15.34,1.46.53,3.31-.31-.87.22,3.62.11,4.8.22,1.46.17-.06.22-.45.73,5.98.82,10.82,1.8,17.33-1.12-6.49-1.01-6.52-1.6-10.98.39,5.31.73,6.18,1.35,11.85l-.23-2.66c.2.85.35,1.72.45,2.58.06.48.11.98.17,1.46s.11.96.2,1.38c.07.4.16.79.28,1.18.09.31.22.61.36.9.28.48.53.7.7.73.37.4.85.67,1.38.79.69.16,1.4.23,2.11.2.39,0,.81-.03,1.26-.06.42-.03.87-.06,1.35-.08.9-.06,1.88-.14,2.92-.28l-1.8-.17,3.79-.39.08.22c.67-.04,1.34-.13,2-.28,2.61,0,6.21-.51,9.8-.67l.39-.17h.76c.67-.28,3.54-.51,3.68-.7-1.21.04-2.41.15-3.6.34-2.92.06,3.54-.51,5.42-.7-2.05.34.62.08,1.77,0,.17-.06-.2-.03-.39-.06,3.54-.51,4.86-.06,7.19-.73l.65.14,2.78-.48c.31.42,3.96-.39,4.47-.03,3.2-.34-.45-.2.7-.28,2.98-.42,8.29-.62,9.27-.93,2.61-.14,5.42-.56,7.61-.73l.14-.2c1.15-.08,2.5-.14,3.62-.31,0-.03-.17-.03-.39-.03,2.14-.2,4.07-.39,5.9-.59.45-.06.93-.11,1.38-.14.45-.06.87-.11,1.26-.2.72-.13,1.38-.5,1.88-1.04-.13.02-.25.07-.36.14-.08.06-.22.14-.42.25-.27.15-.55.26-.84.34.32-.12.62-.28.9-.48.3-.21.56-.48.76-.79.52-.84.84-1.78.96-2.75.09-.59.14-1.18.17-1.77.03-.62.06-1.26.08-1.91.03-1.29.08-2.61.08-3.88l-.11.39.2-2.87c-.06.59-.14.2-.2.22-.07-4.53.12-9.06.54-13.57-.11,1.35-.2-2.25-.39.62.31-5,.34-11.35.48-16.86v.08l.11-2.3-.03-.17-.08,1.62c.06-2.22.14-4.3.28-6.04-.16-.73-.25-1.47-.28-2.22.25-.03-.14-6.43.17-9.13-.06-.36-.06,1.15-.14.23.03-2.19.11-4.72.2-7.39.03-1.35.08-2.73.11-4.13,0-.34.03-.7.03-1.07v-1.04c.01-.29-.03-.57-.11-.84-.03-.2-.13-.38-.28-.51-.08-.06-.16-.12-.25-.17-.13-.05-.26-.09-.39-.11-.36-.05-.72-.07-1.08-.06-.79,0-1.6.03-2.39.03-1.57.03-3.09.06-4.58.11-.65-.45-7.47-.22-11.88-.28-1.1.31,2.5.06,3.68.25-2.47,0-.51.34-4.92.25.2.03.03.08.96.06-2.44.08.51-.36-3.26-.14l-.14.2-2.33-.17c-7.75.39-14.44.56-21.21,1.15-.39-.03-.25-.11.62-.22-3.06.2-6.69.08-10.2.53l.95.03c-5.62.56-5.73.17-12.39.62,1.52-.14,4.94-.25,5.25-.51-1.71,0-3.42.13-5.11.39l.51-.31c.98.08,3.43-.14,5.34-.2-.27.03-.55,0-.82-.06,1.66-.03,3.93-.2,6.35-.31l-3.43.25c1.4.14,5.7-.39,7.05-.39-.06-.22-2.14-.06-.08-.39,1.47-.17,2.96-.22,4.44-.14,1.4.11,2.81.15,4.21.11l-.93.14c1.84.05,3.68-.02,5.51-.2-.96-.1-1.93-.13-2.89-.08.53-.14,3.12.14,4.97-.14-.79-.06-2.25-.08-3.85-.06s-3.37.11-4.78.2c.34-.08.34-.17-.06-.22,8.43-.31,17.59-.42,25.93-.79-4.44-.17,1.91-.06.87-.34.62.2,3.23-.08,5.53-.03.9-.25-4.61-.08-2.75-.28,4.41-.06,10.37.28,16.07.14-.39-.08-1.74-.08-1.94-.14.65,0,1.29.03,1.97.06.35.02.7.07,1.04.14.34.08.66.25.93.48.24.25.41.56.48.9.07.32.1.65.08.98-.03.67-.06,1.32-.08,1.94-.06,1.08-.03,2.16.08,3.23.08-.9.17-1.85.25-2.84.03-.51.08-1.01.11-1.52.05-.51.06-1.03.03-1.55.06.31.1.62.11.93.03.34.03.76.06,1.26.06-.45.14-.9.17-1.38v1.49c0,.35-.02.69-.06,1.04-.06.59-.11.95-.17,1.26-.22.73-.36,1.49-.42,2.25l.2,2.81c.09,4.39-.07,8.78-.51,13.15,0,.95-.06,4.75.2,3.2.45-2.93.65-5.89.62-8.85-.2-.73-.28,3.85-.28,2.33.08-2.11-.06-5.87.17-7.61l-.08,5.51c.31-.06.03-2.28.22-3.26.22,1.49-.08,4.58.03,6.83l.03-.36c-.11,4.38-.03,3.79-.22,8.17-.28.25-.17-1.49-.25-3.57-.08,7.05-.76,16.66-.34,23.77l.31-4.21c.03,2.64-.31,7.25.06,7-.08-3.03.14-1.71.22-3.26l-.03-.17c.03-.39.08-1.52.11-.79-.22,2.28-.34,5.98-.48,8.54.08-1.12.17,1.26.22,1.57-.08,2.5-.17.03-.28-.14-.12,1.52-.15,3.05-.08,4.58.14,1.85.2-2.3.34-2.92l-.37,7.44.06-.2c-.09.83-.12,1.67-.08,2.5.11.73.17-.98.14-2.11.03.98.03,1.91,0,2.78-.03.87-.11,1.73-.25,2.58-.13.85-.35,1.68-.67,2.47-.17.41-.37.81-.62,1.18-.11.2-.28.36-.42.56l-.25.25-.25.25c-.68.46-1.46.75-2.28.84-.2.08-.56.2-.17.14-.76.08-1.43.11-2.16.17-4.02.34-1.04.39-2.36.62l.2-.03c-1.21.2-2.11.42-1.26.34l-4.21.31h.03c-1.66-.03-7.81.62-7.78.2-1.1.17-1.99.34-1.49.34-3.12.34.79.25-4.24.76.45.05.9.03,1.35-.06-.69.12-1.38.18-2.08.17,0,.06-.08.11-.37.2-1.08-.02-2.17.07-3.23.28l1.8.06c-1.34,0-2.69.11-4.02.31l1.38.03c-3.4.31-.28-.34-4.38.28l3.74-.56c-4.38.42-2.95-.06-4.89,0-4.61.25-10.14,1.32-13.71,1.15-.51.22.06.22-1.21.51,1.92-.22,3.86-.3,5.79-.22,5.56-.34,1.32-.79,7.5-1.07-1.28.37-2.6.55-3.93.53-.14.2,1.99.11,3.31.06-3.54.28-8.54,1.07-10.73,1.26-1.07,0-3.85.17-5.08.34.17-.17-5.34.31-3.65-.17-3.79.31-2.33.65-6.04.7,1.4.11-2.42.42-.82.48,2.41-.31,4.84-.46,7.28-.45l-5.45.7c1.32-.2-.62-.17-1.38-.11l-.7.28c-.45-.22-2.84.11-5.48.48-.65.08-1.32.17-1.99.25-.66.1-1.33.16-1.99.17-.63.03-1.26-.02-1.88-.14-.51-.09-1-.3-1.43-.59.82.36,1.71.54,2.61.51.59-.03,1.18-.01,1.77.06,3.18-.45-.7-.31.79-.65-.62.03-1.29.08-1.99.11-.76.02-1.51-.06-2.25-.22-.4-.11-.78-.27-1.13-.48-.36-.22-.69-.49-.98-.79-.55-.63-.97-1.37-1.24-2.16-.44-1.54-.72-3.12-.84-4.72-.08-.76-.17-1.52-.22-2.25s-.11-1.43-.14-2.11c0,.71.02,1.43.08,2.14.08.52.08,1.05,0,1.57-.62-3.93-.67-8.79-.9-13.4l-.2.84c.02-.91-.05-1.82-.2-2.72-.17-.99-.27-1.98-.3-2.98.06.17.17.73.11-.22-.25-3.4-.25-.31-.48-2.56.1-1.1.04-2.2-.17-3.29-.27-1.35-.38-2.72-.34-4.1l-.09.39c-.06-4.21-.59-9.66-.7-14.22.06.37.06,3.79.31,3.37,0-1.91-.03-3.82,0-5.73-.06-.37-.11-2.84-.23-1.29-.03.79.03,1.54.06,2.08l-.14-.76c.11-5.34.39.31.62.25-.11-2.83.14-3.85.14-5.73-.22-.9-.28,3.68-.53,1.24-.07-3.07.08-6.14.45-9.19-.06-.67-.08-1.71-.08-2.89,0-.59,0-1.21.03-1.83.01-.65.08-1.3.2-1.94.09-.65.33-1.26.7-1.8.33-.45.74-.84,1.21-1.15.39-.28.73-.42.95-.56s.37-.23.37-.28c-.08.06.14,0,.53-.06s.98-.2,1.63-.36c-.25.03-.53.03-.79.06,1.2-.36,2.43-.59,3.68-.67.87-.02,1.74-.14,2.59-.36-.4,0-.81.02-1.21.06,5.2-1.18,8.23-1.15,13.34-2.39-.32-.02-.65.02-.95.11.8-.23,1.62-.37,2.44-.42l-1.8.48c2.81-.03,7.22-1.57,11.57-2.19-.42-.03-3.6.53-1.94.11,2.81-.51,2.61.08,5.9-.73-1.52.2-1.1-.14-2.56.06,1.47-.38,2.98-.62,4.49-.73.59-.11.84-.22.84-.28,1.72-.18,3.42-.45,5.11-.82l-.39-.03c2.81.08,4.52-.67,8.12-1.15l-.62-.06c2.15-.16,4.29-.46,6.4-.87h-1.38c2.11-.17,6.01-.95,7.78-.9.73-.14-2-.06,1.4-.51,1.46-.03,2.92-.18,4.35-.45-.03-.08-.42-.11-1.35.06-.56.08-.2.06.03.08h-1.18c2.61-.42,2.14-.14,4.92-.53.57-.17-.95-.06-1.37-.09l5.25-.42,5.29-.39c.22.11-1.1.31-.11.37l-3.57.42c-1.66.36,1.97.03,3.49-.06l-2.47.28c-.11.03-.06.06.17.06l-1.85.17c2.5-.11,1.24.11.03.34s-2.36.42.31.25c-1.21.11-2.43.15-3.65.11-.96.01-1.9.17-2.81.48l3.65-.22c-5.7.56.62.14-3.48.76-4.78.39-7.42,1.38-9.86,1.71-4.89.59,1.83-.48-1.21-.2-1.01.11-2,.31-2.98.59l-1.24-.11c-3.03.37-.08.28-1.83.42-2.39.51.79,0,1.4.14-1.46.1-2.92.28-4.35.56.03.06,3.23-.36,1.18-.06-1.88.25-3.43.45-4.75.65-1.35.22-2.47.42-3.6.62s-2.22.39-3.46.62-2.61.45-4.3.73l.62.03c-.76.11-1.35.14-2.08.31l.42.03c-.96.14-7.75,1.12-12.19,2.02l2.3-.25c-1.35.17-2.67.36-3.99.53l.48.17c-1.35.12-2.69.33-4.02.62-1.8.36-3.88.79-5.76,1.12l.06.14-2.28.36.79-.06c-1.12.23-2.36.42-3.62.62-.65.11-1.29.23-1.94.36s-1.29.28-1.91.45c.32-.09.65-.16.98-.2.28-.03.48-.06.62-.06.45.03.53.08.45.17h.01Zm11.66,73.41l1.04-.08c-.35,0-.7.03-1.04.08l-1.63.14c.55.05,1.1,0,1.63-.14ZM80.99,4.98h2.67c-.56.03-2.47-.03-1.69.06-.39,0-1.35.03-.98-.06ZM16.54,90.83h1.18l.9-.25-2.08.25h0Zm-12.98-11.35l.17,2.28.06.2c-.06-.76-.14-1.54-.2-2.3l-.03-.17h0Zm-.9-29.53c-.08,1.31-.06,2.63.06,3.93h0c.03-.51.08-1.07.08-1.69.06-.75.01-1.51-.14-2.25Zm12.03,39.81c-.06-.17-2.7.08-3.48.03-1.07.11.39.14.81.2-.55.07-1.1.11-1.66.11.23.17.7.11,1.43-.03.95-.19,1.92-.3,2.89-.31h0Zm51.47-5.34l-2.13.11.59-.08,1.54-.03Zm10.54-1.35c2.44-.31,4.58-.36,4.07-.11-2.08.2-5.08.59-6.29.53,1.18-.03-.65-.22,2.22-.42h0ZM3.79,72.37c0,2.24.16,4.47.51,6.69l-.17-2.28.08.56.08-.59c-.37.65-.39-3.03-.51-4.38h0Zm82.71-1.74c0-.96.17-4.02.45-3.88-.14-.34-.34,3.46-.51,5.56.06-.56.08-1.12.06-1.69h0Zm.28,1.1c.12.94.14,1.89.06,2.84-.06-.17-.2-.06-.28.48-.13.98-.2,1.96-.22,2.95.19-.81.33-1.64.42-2.47.08-.73.17-1.54.25-3.09l-.22-.7h0Zm-.62,5.14c.03,1.19-.17,2.37-.59,3.48.22-.32.4-.67.51-1.04.08-.26.13-.54.14-.82.03-.51-.03-.93-.06-1.63h0Zm.45-28.07l-.08,1.04c-.03-.14-.08.03-.11,1.26l.11-1.26c.05.3.14,1.71.08-1.05h0Zm-.34,24.33l.08-3.63c.04,1.21.01,2.42-.08,3.62h0Zm.45-17.5c0,.56.03-3.43.03-4.94-.13,1.64-.14,3.29-.03,4.93h0ZM54.72,5.44l1.1-.22-2.28.08,1.18.14h0Zm23.68-.97h1.32l.56-.11-1.88.11Zm9.27,18.54c0-.26-.01-.53-.06-.79-.08-1.97-.11-6.88-.03-9.47-.11-1.12-.31,2.14-.39,3.09.67-1.43-.08,3.62.11,5.87.06-.59.08-2.11.17-2.5.06,1.05.06,2.1,0,3.15-.06.29-.09.58-.08.87.03-.17.06-.48.08-.87.06-.2.11-.25.14-.14.03.36.06.65.06.79Zm-.39,34.02c-.06.48-.11-.79-.22,1.18.08.22.14-.39.22-1.18.03-.17.06-.59.08-1.52l-.08,1.52Zm.36-1.77l-.31,4.61.17-1.54-.17,3.06c.29-2.03.39-4.08.31-6.12Zm-.34,12.19l.14-5.14-.03.14v-.34l-.17.96.17-.62-.11,5h0Zm-28.74,18.43l-2.44.28c.37-.03,2.87-.17,4.94-.42-2.53.73-.96.03-5.25.7,5-.56,3.09-.08,2.89.14-1.04-.14-7.44.73-5.59-.03,1.74-.08,4.04-.84,5.45-.67h0Zm-31.89,3.6l-3.03.28,3.2-.31-.17.03ZM1.15,26.66c-.2,1.63-.19,3.29.03,4.92-.08-.56-.06-2.84-.03-4.92Zm20.42-15.85c-1.66.36-4.21.59-4.83.98l3.57-.62c.53-.17,1.88-.34,1.26-.36Zm21.86-3.96l1.24.08-1.15.14-.08-.22Zm-3.85.31c.56-.11,3.03-.45,2.33-.2l-2.33.2Zm23.23-3.26l-1.38-.08,1.49-.22-.11.31Zm-1.46.37c-.26.04-.53.02-.79-.06-1.14.07-2.28.22-3.4.45.64,0,1.28-.08,1.91-.2-.56.08-1.49.31-2.64.42,1.24-.39.31-.25.42-.48,3.43-.59,3.31-.34,3.68-.2.48,0,.79,0,.81.06h0Zm-12.22,1.85c.23-.04.44-.12.65-.22,2.19-.39,4.41-.79,2.03-.67l-2.05.34c.93-.14.76-.08.96-.06-1.19.21-2.39.36-3.6.45.65,0,3.01-.25,2.64-.03-.59.11-1.18.22-1.66.31-.42.01-.84.09-1.24.22l.22.03c.33-.09.67-.17,1.01-.22.37-.06.7-.06,1.04-.14h0Zm13.96-1.88c.2.03-.14.14.45.11l1.12-.11c1.49-.28-.25-.17-1.57,0ZM1.6,18.63c-.08.39-.14,3.79-.31,3.85l.2.9c0-1.71.25-3.43.28-2.67-.05-.58-.06-1.16-.03-1.74.03-.42.03-.62-.14-.34h0Zm19.97,71.38c-.95.03-5.25.65-5.9.39-1.43.48,3.65-.11,5.9-.39Zm.48-.39c.37-.02.74-.05,1.1-.11,1.17.05,2.35-.02,3.51-.2-.59,0-1.52.17-2.08.17.11-.17-.23-.11-1.4.03-.31.03-.65.06-1.12.11h0ZM2.44,57.09l.17,2.47c-.06.53-.08,1.07-.11,1.57-.03-1.35-.03-2.7-.06-4.04Zm-.37-23.57l-.06,2.08-.06-.76c-.06,0-.14-.39-.2.17,0,.37-.03.7-.03.98,0-.33,0-.66.03-.98-.06-1.2,0-2.41.2-3.6-.11,1.07-.09,2.14.06,3.2l.06-1.09Zm30.54-23.6c-1.01.1-2,.28-2.98.56,1.15-.17,2.64-.45,2.98-.56h0ZM2.38,45.43c-.11.22,0,2.87-.17,1.97l-.06-1.15c.11,1.71-.31,1.01-.03,3.43l-.08-1.49c.14,1.85.17-2.36.37.48.03.56.06.08.06-.7s-.03-1.88-.08-2.53h0ZM36.29,9.61c-1.69.25-1.26-.14-3.99.51,2.08-.34,1.8.03,3.99-.51ZM2.8,28.49l.03.2-.11,2.27-.03-.17s.11-2.3.11-2.3Z" fill="#b133d0" stroke="#a33dc9"/>
  <path id="Path_5188" data-name="Path 5188" d="m35.45,7.87c.5-.11,1.01-.2,1.52-.25-.48.06-.98.17-1.52.25Z" fill="#b133d0" stroke="#a33dc9"/>
  <path id="Path_5189" data-name="Path 5189" d="m30.14,89.96c.19-.09.4-.14.62-.14-.03,0-.2.06-.62.14Z" fill="#b133d0" stroke="#a33dc9"/>
  <path id="Path_5190" data-name="Path 5190" d="m35.64,89.48c.07,0,.14,0,.2-.03h.17l-.37.03Z" fill="#b133d0" stroke="#a33dc9"/>
  <path id="Path_5191" data-name="Path 5191" d="m23.2,6.41c-1.21-.11,1.12-.11,2.08-.2-.69.13-1.38.19-2.08.2Z" fill="#b133d0" stroke="#a33dc9"/>
  <path id="Path_5192" data-name="Path 5192" d="m30.67,6.21c-.56-.03-1.38,0-2.36.03.62-.03,1.29-.06,2.36-.03Z" fill="#b133d0" stroke="#a33dc9"/>
  <path id="Path_5193" data-name="Path 5193" d="m24.58,6.55c1.46-.14,2.72-.25,3.74-.31-.96.11-1.74.23-3.74.31Z" fill="#b133d0" stroke="#a33dc9"/>
  <path id="Path_5194" data-name="Path 5194" d="m50.79,5.03c-1.14-.03-2.29,0-3.43.11,4.92-.36-1.01-.2-1.4-.25,1.61-.09,3.23-.04,4.83.14h0Z" fill="#b133d0" stroke="#a33dc9"/>
  <path id="Path_5195" data-name="Path 5195" d="m57.31,4.83c-.51.03-.98.06-1.38.08.46-.05.92-.08,1.38-.08Z" fill="#b133d0" stroke="#a33dc9"/>
  <path id="Path_5196" data-name="Path 5196" d="m59.13,4.64c1.03-.03,2.07.03,3.09.17-2.05.17-3.4,0-4.92.03,1.21-.06,2.39-.08,1.83-.2h0Z" fill="#b133d0" stroke="#a33dc9"/>
  <path id="Path_5197" data-name="Path 5197" d="m88.46,28.94c0-.45.03-.9.11-1.35l-.03,2.87c-.06,1.12-.06-.93-.08-1.52h0Z" fill="#b133d0" stroke="#a33dc9"/>
  <path id="Path_5198" data-name="Path 5198" d="m87.95,39.47c-.03,2.28.17,1.1.11,2.25l-.28-.14.17-2.11Z" fill="#b133d0" stroke="#a33dc9"/>
  <path id="Path_5199" data-name="Path 5199" d="m86.61,38.18l.03-.67c0,.25,0,.51-.03.76v-.09Z" fill="#b133d0" stroke="#a33dc9"/>
  <path id="Path_5200" data-name="Path 5200" d="m88.09,50.46l.31-1.57c-.08,1.91-.33,1.94-.31,1.57Z" fill="#b133d0" stroke="#a33dc9"/>
  <path id="Path_5201" data-name="Path 5201" d="m88.18,59.17l.11-1.35-.14,4.19.03-2.84Z" fill="#b133d0" stroke="#a33dc9"/>
  <path id="Path_5202" data-name="Path 5202" d="m87.9,69.65l.06.37-.11,2.87.06-3.23Z" fill="#b133d0" stroke="#a33dc9"/>
  <path id="Path_5203" data-name="Path 5203" d="m2.24,68.94c.22-.45.53,4.13.73,5.42-.39-.87-.22-3.65-.73-5.42Z" fill="#b133d0" stroke="#a33dc9"/>
  <path id="Path_5204" data-name="Path 5204" d="m31.54,8.66l-4.33.73c3.34-.7.96-.17,4.33-.73Z" fill="#b133d0" stroke="#a33dc9"/>
</svg>